STARTFONT 2.1
COMMENT
COMMENT Converted from OpenType font "Q:\font stuff\winfont\Racer Regular.ttf" by "otf2bdf 3.0".
COMMENT
FONT -FreeType-Racer-Medium-R-Normal--179-1800-72-72-P-928-ISO10646-1
SIZE 180 72 72
FONTBOUNDINGBOX 196 190 0 -29
STARTPROPERTIES 19
FOUNDRY "FreeType"
FAMILY_NAME "Racer"
WEIGHT_NAME "Medium"
SLANT "R"
SETWIDTH_NAME "Normal"
ADD_STYLE_NAME ""
PIXEL_SIZE 140
POINT_SIZE 1800
RESOLUTION_X 72
RESOLUTION_Y 72
SPACING "P"
AVERAGE_WIDTH 928
CHARSET_REGISTRY "ISO10646"
CHARSET_ENCODING "1"
FONT_ASCENT 160
FONT_DESCENT 30
COPYRIGHT "design: onezero/\2512003onezero/contact: onezero@gmx.ch"
_OTF_FONTFILE "Q:\font stuff\winfont\Racer Regular.ttf"
_OTF_PSNAME "Racer"
ENDPROPERTIES
CHARS 120
STARTCHAR 0020
ENCODING 32
SWIDTH 333 0
DWIDTH 60 0
BBX 0 0 0 0
BITMAP
ENDCHAR
STARTCHAR 0021
ENCODING 33
SWIDTH 250 0
DWIDTH 45 0
BBX 27 138 0 -2
BITMAP
003F8000
01FFF000
03FFF800
07FFFC00
0FFFFE00
1FFFFF00
3FFFFF80
7FFFFFC0
7FFFFFC0
7FFFFFC0
FFFFFFE0
FFFFFFE0
FFFFFFE0
FFFFFFE0
FFFFFFE0
FFFFFFE0
FFFFFFE0
FFFFFFE0
FFFFFFE0
FFFFFFE0
FFFFFFE0
FFFFFFE0
FFFFFFE0
FFFFFFE0
FFFFFFE0
FFFFFFE0
FFFFFFE0
FFFFFFE0
FFFFFFE0
FFFFFFE0
FFFFFFE0
FFFFFFE0
FFFFFFE0
FFFFFFE0
FFFFFFE0
FFFFFFE0
FFFFFFE0
FFFFFFE0
FFFFFFE0
FFFFFFE0
FFFFFFE0
FFFFFFE0
FFFFFFE0
FFFFFFE0
FFFFFFE0
FFFFFFE0
FFFFFFE0
FFFFFFE0
FFFFFFE0
FFFFFFE0
FFFFFFE0
FFFFFFE0
FFFFFFE0
FFFFFFE0
FFFFFFE0
FFFFFFE0
FFFFFFE0
FFFFFFE0
FFFFFFE0
FFFFFFE0
FFFFFFE0
FFFFFFE0
FFFFFFE0
FFFFFFE0
FFFFFFE0
FFFFFFE0
FFFFFFE0
FFFFFFE0
FFFFFFE0
FFFFFFE0
FFFFFFE0
FFFFFFE0
FFFFFFE0
FFFFFFE0
FFFFFFE0
FFFFFFE0
FFFFFFE0
FFFFFFE0
FFFFFFE0
FFFFFFE0
FFFFFFE0
FFFFFFE0
FFFFFFE0
FFFFFFE0
FFFFFFE0
FFFFFFE0
FFFFFFE0
FFFFFFE0
FFFFFFE0
FFFFFFE0
FFFFFFE0
FFFFFFE0
FFFFFFE0
FFFFFFE0
7FFFFFC0
7FFFFFC0
7FFFFFC0
3FFFFF80
1FFFFF00
1FFFFF00
0FFFFE00
03FFF800
01FFF000
003F8000
00000000
00000000
00000000
00000000
00000000
003F8000
01FFF000
03FFF800
0FFFFE00
1FFFFF00
1FFFFF00
3FFFFF80
7FFFFFC0
7FFFFFC0
7FFFFFC0
FFFFFFE0
FFFFFFE0
FFFFFFE0
FFFFFFE0
FFFFFFE0
FFFFFFE0
FFFFFFE0
FFFFFFE0
FFFFFFE0
FFFFFFE0
7FFFFFC0
7FFFFFC0
3FFFFF80
3FFFFF80
1FFFFF00
0FFFFE00
03FFFC00
01FFF000
003F8000
ENDCHAR
STARTCHAR 0022
ENCODING 34
SWIDTH 438 0
DWIDTH 79 0
BBX 0 0 0 0
BITMAP
ENDCHAR
STARTCHAR 0023
ENCODING 35
SWIDTH 833 0
DWIDTH 150 0
BBX 0 0 0 0
BITMAP
ENDCHAR
STARTCHAR 0024
ENCODING 36
SWIDTH 761 0
DWIDTH 137 0
BBX 0 0 0 0
BITMAP
ENDCHAR
STARTCHAR 0025
ENCODING 37
SWIDTH 1316 0
DWIDTH 237 0
BBX 0 0 0 0
BITMAP
ENDCHAR
STARTCHAR 0026
ENCODING 38
SWIDTH 888 0
DWIDTH 160 0
BBX 140 134 0 0
BITMAP
000000000000000FFFFFFFFFFFFFC0000000
00000000000001FFFFFFFFFFFFFFFE000000
0000000000000FFFFFFFFFFFFFFFFF800000
0000000000003FFFFFFFFFFFFFFFFFE00000
000000000000FFFFFFFFFFFFFFFFFFF80000
000000000003FFFFFFFFFFFFFFFFFFFC0000
00000000000FFFFFFFFFFFFFFFFFFFFF0000
00000000001FFFFFFFFFFFFFFFFFFFFF8000
00000000003FFFFFFFFFFFFFFFFFFFFFC000
0000000000FFFFFFFFFFFFFFFFFFFFFFE000
0000000001FFFFFFFFFFFFFFFFFFFFFFF000
0000000003FFFFFFFFFFFFFFFFFFFFFFF800
0000000007FFFFFFFFFFFFFFFFFFFFFFFC00
000000000FFFFFFFFFFFFFFFFFFFFFFFFC00
000000001FFFFFFFFFFFFFFFFFFFFFFFFE00
000000003FFFFFFFFFFFFFFFFFFFFFFFFF00
000000003FFFFFFFFFFFFFFFFFFFFFFFFF00
000000007FFFFFFFFFFFFFFFFFFFFFFFFF80
00000000FFFFFFFFFFFFFFFFFFFFFFFFFF80
00000000FFFFFFFFFFFFFFFFFFFFFFFFFFC0
00000001FFFFFFFFFFFFFFFFFFFFFFFFFFC0
00000003FFFFFFFFFFFFFFFFFFFFFFFFFFE0
00000003FFFFFFFFFFFFFFFFFFFFFFFFFFE0
00000007FFFFFFFFFFFFFFFFFFFFFFFFFFE0
00000007FFFFFFFFFFFFFFFFFFFFFFFFFFE0
0000000FFFFFFFFFFFFFFFFFFFFFFFFFFFF0
0000000FFFFFFFFE000000000000FFFFFFF0
0000000FFFFFFFF00000000000007FFFFFF0
0000001FFFFFFFC00000000000003FFFFFF0
0000001FFFFFFF800000000000003FFFFFF0
0000001FFFFFFF000000000000003FFFFFF0
0000003FFFFFFE000000000000003FFFFFF0
0000003FFFFFFC000000000000003FFFFFF0
0000003FFFFFF8000000000000003FFFFFF0
0000003FFFFFF8000000000000003FFFFFF0
0000003FFFFFF0000000000000001FFFFFF0
0000007FFFFFF0000000000000001FFFFFE0
0000007FFFFFF0000000000000001FFFFFE0
0000007FFFFFE0000000000000000FFFFFC0
0000007FFFFFE00000000000000007FFFFC0
0000007FFFFFE00000000000000003FFFF80
0000007FFFFFE00000000000000003FFFF00
0000007FFFFFE00000000000000000FFFE00
0000007FFFFFE000000000000000007FF800
0000007FFFFFE000000000000000000FE000
0000007FFFFFF00000000000000000000000
0000007FFFFFF00000000000000000000000
0000007FFFFFF00000000000000000000000
0000003FFFFFF80000000000000000000000
0000003FFFFFF80000000000000000000000
0000003FFFFFFC0000000000000000000000
0000003FFFFFFE0000000000000000000000
0000003FFFFFFF0000000000000000000000
0000001FFFFFFF0000000000000000000000
0000001FFFFFFF8000000000000000000000
0000001FFFFFFFC000000000000000000000
0000000FFFFFFFE000000000000000000000
0000000FFFFFFFF0000000000000000FE000
0000000FFFFFFFF8000000000000007FF800
00000007FFFFFFFC00000000000000FFFE00
00000007FFFFFFFC00000000000003FFFF00
00000003FFFFFFFE00000000000007FFFF80
00000003FFFFFFFF00000000000007FFFFC0
00000001FFFFFFFF8000000000000FFFFFC0
00000001FFFFFFFFC000000000001FFFFFE0
00000007FFFFFFFFE000000000001FFFFFE0
0000003FFFFFFFFFE000000000001FFFFFF0
000001FFFFFFFFFFF000000000003FFFFFF0
00000FFFFFFFFFFFF800000000003FFFFFF0
00003FFFFFFFFFFFFC00000000003FFFFFF0
0000FFFFFFFFFFFFFE00000000003FFFFFF0
0001FFFFFFFFFFFFFF00000000003FFFFFF0
0007FFFFFFFFFFFFFF80000000003FFFFFF0
000FFFFFFFFFFFFFFF80000000003FFFFFF0
001FFFFFFFFFFFFFFFC0000000003FFFFFF0
003FFFFFFFFFFFFFFFE0000000003FFFFFF0
007FFFFFFFFFFFFFFFF0000000003FFFFFF0
00FFFFFFFFFFFFFFFFF8000000003FFFFFF0
01FFFFFFFFFFFFFFFFFC000000003FFFFFF0
01FFFFFFFFFFFFFFFFFC000000003FFFFFF0
03FFFFFFFFFFFFFFFFFE000000003FFFFFF0
07FFFFFFFFFFFFFFFFFF000000003FFFFFF0
07FFFFFFFFFFFFFFFFFF800000003FFFFFF0
0FFFFFFFFFFFFFFFFFFFC00000003FFFFFF0
0FFFFFFFFFFFFFFFFFFFE00000003FFFFFF0
1FFFFFFFFFFFFFFFFFFFE00000003FFFFFF0
1FFFFFFFFFFF3FFFFFFFF00000003FFFFFF0
3FFFFFFFFFF03FFFFFFFF80000003FFFFFF0
3FFFFFFFFF801FFFFFFFFC0000003FFFFFF0
3FFFFFFFFC000FFFFFFFFE0000003FFFFFF0
7FFFFFFFE00007FFFFFFFF0000003FFFFFF0
7FFFFFFF000003FFFFFFFF8000003FFFFFF0
7FFFFFF8000001FFFFFFFF8000003FFFFFF0
7FFFFFF0000000FFFFFFFFC000003FFFFFF0
7FFFFFE0000000FFFFFFFFE000003FFFFFF0
FFFFFFE00000007FFFFFFFF000003FFFFFF0
FFFFFFC00000003FFFFFFFF800003FFFFFF0
FFFFFFC00000001FFFFFFFFC00007FFFFFF0
FFFFFFC00000000FFFFFFFFC00007FFFFFF0
FFFFFFC000000007FFFFFFFE0000FFFFFFF0
FFFFFFC000000007FFFFFFFF0000FFFFFFE0
FFFFFFE000000003FFFFFFFF8001FFFFFFE0
FFFFFFE000000001FFFFFFFFC003FFFFFFE0
FFFFFFE000000000FFFFFFFFE007FFFFFFE0
FFFFFFF0000000007FFFFFFFF00FFFFFFFC0
7FFFFFF8000000003FFFFFFFF03FFFFFFFC0
7FFFFFFE000000001FFFFFFFF8FFFFFFFFC0
7FFFFFFFFFFFFFFFFFFFFFFFFFFFFFFFFF80
7FFFFFFFFFFFFFFFFFFFFFFFFFFFFFFFFF80
3FFFFFFFFFFFFFFFFFFFFFFFFFFFFFFFFF00
3FFFFFFFFFFFFFFFFFFFFFFFFFFFFFFFFF00
3FFFFFFFFFFFFFFFFFFFFFFFFFFFFFFFFE00
1FFFFFFFFFFFFFFFFFFFFFFFFFFFFFFFFE00
1FFFFFFFFFFFFFFFFFFFFFFFFFFFFFFFFC00
1FFFFFFFFFFFFFFFFFFFFFFFFFFFFFFFFC00
0FFFFFFFFFFFFFFFFFFFFFFFFFFFFFFFF800
0FFFFFFFFFFFFFFFFFFFFFFFFFFFFFFFF000
07FFFFFFFFFFFFFFFFFFFFFFFFFFFFFFE000
03FFFFFFFFFFFFFFFFFFFFFFFFFFFFFFE000
03FFFFFFFFFFFFFFFFFFFFFFFFFFFFFFC000
01FFFFFFFFFFFFFFFFFFFFFFFFFFFFFF8000
00FFFFFFFFFFFFFFFFFFFFFFFFFFFFFF0000
007FFFFFFFFFFFFFFFFFFFFFFFFFFFFE0000
003FFFFFFFFFFFFFFFFFFFFFFFFFFFFC0000
001FFFFFFFFFFFFFFFFFFFFFFFFFFFF80000
000FFFFFFFFFFFFFFFFFFFFFFFFFFFF00000
0007FFFFFFFFFFFFFFFFFFFFFFFFFFC00000
0003FFFFFFFFFFFFFFFFFFFFFFFFFF800000
0000FFFFFFFFFFFFFFFFFFFFFFFFFE000000
00007FFFFFFFFFFFFFFFFFFFFFFFF8000000
00001FFFFFFFFFFFFFFFFFFFFFFFE0000000
000007FFFFFFFFFFFFFFFFFFFFFF80000000
000000FFFFFFFFFFFFFFFFFFFFFC00000000
0000000FFFFFFFFFFFFFFFFFFF8000000000
ENDCHAR
STARTCHAR 0027
ENCODING 39
SWIDTH 261 0
DWIDTH 47 0
BBX 0 0 0 0
BITMAP
ENDCHAR
STARTCHAR 0028
ENCODING 40
SWIDTH 338 0
DWIDTH 61 0
BBX 46 137 0 -2
BITMAP
0000001FF000
000003FFFE00
00000FFFFF00
00003FFFFF80
0000FFFFFFC0
0003FFFFFFE0
0007FFFFFFF0
000FFFFFFFF8
001FFFFFFFF8
003FFFFFFFF8
007FFFFFFFFC
00FFFFFFFFFC
01FFFFFFFFFC
03FFFFFFFFFC
07FFFFFFFFFC
07FFFFFFFFFC
0FFFFFFFFFFC
0FFFFFFFFFF8
1FFFFFFFFFF8
1FFFFFFFFFF8
3FFFFFFFFFF0
3FFFFFFFFFE0
7FFFFFFFFFC0
7FFFFFFFFF80
7FFFFFFFFF00
7FFFFFFFFE00
7FFFFFFFF000
FFFFFFFC0000
FFFFFFF00000
FFFFFFF00000
FFFFFFE00000
FFFFFFE00000
FFFFFFE00000
FFFFFFE00000
FFFFFFE00000
FFFFFFE00000
FFFFFFE00000
FFFFFFE00000
FFFFFFE00000
FFFFFFE00000
FFFFFFE00000
FFFFFFE00000
FFFFFFE00000
FFFFFFE00000
FFFFFFE00000
FFFFFFE00000
FFFFFFE00000
FFFFFFE00000
FFFFFFE00000
FFFFFFE00000
FFFFFFE00000
FFFFFFE00000
FFFFFFE00000
FFFFFFE00000
FFFFFFE00000
FFFFFFE00000
FFFFFFE00000
FFFFFFE00000
FFFFFFE00000
FFFFFFE00000
FFFFFFE00000
FFFFFFE00000
FFFFFFE00000
FFFFFFE00000
FFFFFFE00000
FFFFFFE00000
FFFFFFE00000
FFFFFFE00000
FFFFFFE00000
FFFFFFE00000
FFFFFFE00000
FFFFFFE00000
FFFFFFE00000
FFFFFFE00000
FFFFFFE00000
FFFFFFE00000
FFFFFFE00000
FFFFFFE00000
FFFFFFE00000
FFFFFFE00000
FFFFFFE00000
FFFFFFE00000
FFFFFFE00000
FFFFFFE00000
FFFFFFE00000
FFFFFFE00000
FFFFFFE00000
FFFFFFE00000
FFFFFFE00000
FFFFFFE00000
FFFFFFE00000
FFFFFFE00000
FFFFFFE00000
FFFFFFE00000
FFFFFFE00000
FFFFFFE00000
FFFFFFE00000
FFFFFFE00000
FFFFFFE00000
FFFFFFE00000
FFFFFFE00000
FFFFFFE00000
FFFFFFE00000
FFFFFFE00000
FFFFFFE00000
FFFFFFE00000
FFFFFFE00000
FFFFFFF00000
FFFFFFF00000
FFFFFFFC0000
FFFFFFFFF000
7FFFFFFFFE00
7FFFFFFFFF00
7FFFFFFFFF80
7FFFFFFFFFC0
3FFFFFFFFFE0
3FFFFFFFFFF0
1FFFFFFFFFF8
1FFFFFFFFFF8
0FFFFFFFFFF8
0FFFFFFFFFFC
07FFFFFFFFFC
07FFFFFFFFFC
03FFFFFFFFFC
01FFFFFFFFFC
00FFFFFFFFFC
007FFFFFFFFC
003FFFFFFFF8
001FFFFFFFF8
000FFFFFFFF8
0007FFFFFFF0
0003FFFFFFE0
0000FFFFFFC0
00003FFFFF80
00000FFFFF00
000003FFFE00
0000001FF000
ENDCHAR
STARTCHAR 0029
ENCODING 41
SWIDTH 338 0
DWIDTH 61 0
BBX 46 137 0 -2
BITMAP
003FE0000000
01FFFE000000
03FFFFC00000
0FFFFFF00000
1FFFFFFC0000
1FFFFFFF0000
3FFFFFFF8000
7FFFFFFFC000
7FFFFFFFE000
7FFFFFFFF000
FFFFFFFFF800
FFFFFFFFFC00
FFFFFFFFFE00
FFFFFFFFFF00
FFFFFFFFFF80
FFFFFFFFFF80
FFFFFFFFFFC0
7FFFFFFFFFC0
7FFFFFFFFFE0
7FFFFFFFFFE0
3FFFFFFFFFF0
1FFFFFFFFFF0
1FFFFFFFFFF0
0FFFFFFFFFF8
03FFFFFFFFF8
01FFFFFFFFF8
003FFFFFFFF8
0000FFFFFFFC
00003FFFFFFC
00003FFFFFFC
00001FFFFFFC
00001FFFFFFC
00001FFFFFFC
00001FFFFFFC
00001FFFFFFC
00001FFFFFFC
00001FFFFFFC
00001FFFFFFC
00001FFFFFFC
00001FFFFFFC
00001FFFFFFC
00001FFFFFFC
00001FFFFFFC
00001FFFFFFC
00001FFFFFFC
00001FFFFFFC
00001FFFFFFC
00001FFFFFFC
00001FFFFFFC
00001FFFFFFC
00001FFFFFFC
00001FFFFFFC
00001FFFFFFC
00001FFFFFFC
00001FFFFFFC
00001FFFFFFC
00001FFFFFFC
00001FFFFFFC
00001FFFFFFC
00001FFFFFFC
00001FFFFFFC
00001FFFFFFC
00001FFFFFFC
00001FFFFFFC
00001FFFFFFC
00001FFFFFFC
00001FFFFFFC
00001FFFFFFC
00001FFFFFFC
00001FFFFFFC
00001FFFFFFC
00001FFFFFFC
00001FFFFFFC
00001FFFFFFC
00001FFFFFFC
00001FFFFFFC
00001FFFFFFC
00001FFFFFFC
00001FFFFFFC
00001FFFFFFC
00001FFFFFFC
00001FFFFFFC
00001FFFFFFC
00001FFFFFFC
00001FFFFFFC
00001FFFFFFC
00001FFFFFFC
00001FFFFFFC
00001FFFFFFC
00001FFFFFFC
00001FFFFFFC
00001FFFFFFC
00001FFFFFFC
00001FFFFFFC
00001FFFFFFC
00001FFFFFFC
00001FFFFFFC
00001FFFFFFC
00001FFFFFFC
00001FFFFFFC
00001FFFFFFC
00001FFFFFFC
00001FFFFFFC
00001FFFFFFC
00001FFFFFFC
00001FFFFFFC
00001FFFFFFC
00003FFFFFFC
00003FFFFFFC
0000FFFFFFFC
003FFFFFFFF8
01FFFFFFFFF8
03FFFFFFFFF8
0FFFFFFFFFF8
1FFFFFFFFFF8
1FFFFFFFFFF0
3FFFFFFFFFF0
7FFFFFFFFFE0
7FFFFFFFFFE0
7FFFFFFFFFC0
FFFFFFFFFFC0
FFFFFFFFFF80
FFFFFFFFFF80
FFFFFFFFFF00
FFFFFFFFFE00
FFFFFFFFFC00
FFFFFFFFF800
7FFFFFFFF000
7FFFFFFFE000
7FFFFFFFC000
3FFFFFFF8000
1FFFFFFF0000
1FFFFFFC0000
0FFFFFF00000
03FFFFC00000
01FFFF000000
003FE0000000
ENDCHAR
STARTCHAR 002A
ENCODING 42
SWIDTH 933 0
DWIDTH 168 0
BBX 0 0 0 0
BITMAP
ENDCHAR
STARTCHAR 002B
ENCODING 43
SWIDTH 622 0
DWIDTH 112 0
BBX 0 0 0 0
BITMAP
ENDCHAR
STARTCHAR 002C
ENCODING 44
SWIDTH 250 0
DWIDTH 45 0
BBX 31 43 0 -16
BITMAP
0003F800
001FFF00
003FFF80
00FFFFE0
01FFFFF0
01FFFFF0
03FFFFF8
07FFFFFC
07FFFFFC
07FFFFFC
0FFFFFFE
0FFFFFFE
0FFFFFFE
0FFFFFFE
1FFFFFFE
1FFFFFFE
1FFFFFFC
1FFFFFFC
3FFFFFFC
3FFFFFFC
3FFFFFFC
3FFFFFF8
7FFFFFF8
7FFFFFF8
7FFFFFF8
7FFFFFF0
7FFFFFF0
FFFFFFF0
FFFFFFF0
FFFFFFE0
FFFFFFE0
FFFFFFE0
FFFFFFE0
FFFFFFC0
7FFFFFC0
7FFFFFC0
3FFFFF80
3FFFFF00
1FFFFF00
0FFFFE00
07FFF800
01FFF000
003F8000
ENDCHAR
STARTCHAR 002D
ENCODING 45
SWIDTH 561 0
DWIDTH 101 0
BBX 86 27 0 46
BITMAP
007FFFFFFFFFFFFFFFF800
01FFFFFFFFFFFFFFFFFE00
07FFFFFFFFFFFFFFFFFF80
0FFFFFFFFFFFFFFFFFFFC0
1FFFFFFFFFFFFFFFFFFFE0
3FFFFFFFFFFFFFFFFFFFF0
3FFFFFFFFFFFFFFFFFFFF0
7FFFFFFFFFFFFFFFFFFFF8
7FFFFFFFFFFFFFFFFFFFF8
7FFFFFFFFFFFFFFFFFFFFC
FFFFFFFFFFFFFFFFFFFFFC
FFFFFFFFFFFFFFFFFFFFFC
FFFFFFFFFFFFFFFFFFFFFC
FFFFFFFFFFFFFFFFFFFFFC
FFFFFFFFFFFFFFFFFFFFFC
FFFFFFFFFFFFFFFFFFFFFC
FFFFFFFFFFFFFFFFFFFFFC
7FFFFFFFFFFFFFFFFFFFFC
7FFFFFFFFFFFFFFFFFFFF8
7FFFFFFFFFFFFFFFFFFFF8
3FFFFFFFFFFFFFFFFFFFF0
3FFFFFFFFFFFFFFFFFFFF0
1FFFFFFFFFFFFFFFFFFFE0
0FFFFFFFFFFFFFFFFFFFC0
07FFFFFFFFFFFFFFFFFF80
01FFFFFFFFFFFFFFFFFE00
007FFFFFFFFFFFFFFFF800
ENDCHAR
STARTCHAR 002E
ENCODING 46
SWIDTH 250 0
DWIDTH 45 0
BBX 27 29 0 -2
BITMAP
003F8000
01FFF000
03FFF800
0FFFFE00
1FFFFF00
1FFFFF00
3FFFFF80
7FFFFFC0
7FFFFFC0
7FFFFFC0
FFFFFFE0
FFFFFFE0
FFFFFFE0
FFFFFFE0
FFFFFFE0
FFFFFFE0
FFFFFFE0
FFFFFFE0
FFFFFFE0
FFFFFFE0
7FFFFFC0
7FFFFFC0
3FFFFF80
3FFFFF80
1FFFFF00
0FFFFE00
03FFFC00
01FFF000
003F8000
ENDCHAR
STARTCHAR 002F
ENCODING 47
SWIDTH 377 0
DWIDTH 68 0
BBX 53 138 0 -2
BITMAP
000000000FF000
000000003FFC00
00000000FFFF00
00000001FFFF80
00000003FFFFC0
00000007FFFFE0
0000000FFFFFF0
0000000FFFFFF0
0000001FFFFFF8
0000001FFFFFF8
0000001FFFFFF8
0000001FFFFFF8
0000003FFFFFF8
0000003FFFFFF8
0000003FFFFFF8
0000003FFFFFF8
0000007FFFFFF8
0000007FFFFFF8
0000007FFFFFF8
0000007FFFFFF0
000000FFFFFFF0
000000FFFFFFF0
000000FFFFFFF0
000000FFFFFFE0
000001FFFFFFE0
000001FFFFFFE0
000001FFFFFFE0
000001FFFFFFC0
000001FFFFFFC0
000003FFFFFFC0
000003FFFFFFC0
000003FFFFFFC0
000003FFFFFF80
000007FFFFFF80
000007FFFFFF80
000007FFFFFF80
000007FFFFFF00
00000FFFFFFF00
00000FFFFFFF00
00000FFFFFFF00
00000FFFFFFE00
00001FFFFFFE00
00001FFFFFFE00
00001FFFFFFE00
00001FFFFFFC00
00003FFFFFFC00
00003FFFFFFC00
00003FFFFFFC00
00003FFFFFF800
00003FFFFFF800
00007FFFFFF800
00007FFFFFF800
00007FFFFFF800
00007FFFFFF000
0000FFFFFFF000
0000FFFFFFF000
0000FFFFFFF000
0000FFFFFFE000
0001FFFFFFE000
0001FFFFFFE000
0001FFFFFFE000
0001FFFFFFC000
0003FFFFFFC000
0003FFFFFFC000
0003FFFFFFC000
0003FFFFFF8000
0007FFFFFF8000
0007FFFFFF8000
0007FFFFFF8000
0007FFFFFF0000
0007FFFFFF0000
000FFFFFFF0000
000FFFFFFF0000
000FFFFFFF0000
000FFFFFFE0000
001FFFFFFE0000
001FFFFFFE0000
001FFFFFFE0000
001FFFFFFC0000
003FFFFFFC0000
003FFFFFFC0000
003FFFFFFC0000
003FFFFFF80000
007FFFFFF80000
007FFFFFF80000
007FFFFFF80000
007FFFFFF00000
00FFFFFFF00000
00FFFFFFF00000
00FFFFFFF00000
00FFFFFFE00000
00FFFFFFE00000
01FFFFFFE00000
01FFFFFFE00000
01FFFFFFE00000
01FFFFFFC00000
03FFFFFFC00000
03FFFFFFC00000
03FFFFFFC00000
03FFFFFF800000
07FFFFFF800000
07FFFFFF800000
07FFFFFF800000
07FFFFFF000000
0FFFFFFF000000
0FFFFFFF000000
0FFFFFFF000000
0FFFFFFE000000
1FFFFFFE000000
1FFFFFFE000000
1FFFFFFE000000
1FFFFFFC000000
1FFFFFFC000000
3FFFFFFC000000
3FFFFFFC000000
3FFFFFFC000000
3FFFFFF8000000
7FFFFFF8000000
7FFFFFF8000000
7FFFFFF8000000
7FFFFFF0000000
FFFFFFF0000000
FFFFFFF0000000
FFFFFFF0000000
FFFFFFE0000000
FFFFFFE0000000
FFFFFFE0000000
FFFFFFE0000000
7FFFFFC0000000
7FFFFFC0000000
7FFFFFC0000000
3FFFFF80000000
1FFFFF00000000
1FFFFF00000000
0FFFFE00000000
03FFF800000000
01FFF000000000
003F8000000000
ENDCHAR
STARTCHAR 0030
ENCODING 48
SWIDTH 888 0
DWIDTH 160 0
BBX 140 134 0 0
BITMAP
000000000003FFFFFFFFFFFFFFFFC0000000
00000000007FFFFFFFFFFFFFFFFFFC000000
0000000003FFFFFFFFFFFFFFFFFFFF800000
000000000FFFFFFFFFFFFFFFFFFFFFE00000
000000003FFFFFFFFFFFFFFFFFFFFFF80000
00000000FFFFFFFFFFFFFFFFFFFFFFFC0000
00000003FFFFFFFFFFFFFFFFFFFFFFFF0000
00000007FFFFFFFFFFFFFFFFFFFFFFFF8000
0000000FFFFFFFFFFFFFFFFFFFFFFFFFC000
0000003FFFFFFFFFFFFFFFFFFFFFFFFFE000
0000007FFFFFFFFFFFFFFFFFFFFFFFFFF000
000000FFFFFFFFFFFFFFFFFFFFFFFFFFF800
000001FFFFFFFFFFFFFFFFFFFFFFFFFFFC00
000003FFFFFFFFFFFFFFFFFFFFFFFFFFFC00
000007FFFFFFFFFFFFFFFFFFFFFFFFFFFE00
00000FFFFFFFFFFFFFFFFFFFFFFFFFFFFF00
00000FFFFFFFFFFFFFFFFFFFFFFFFFFFFF00
00001FFFFFFFFFFFFFFFFFFFFFFFFFFFFF80
00003FFFFFFFFFFFFFFFFFFFFFFFFFFFFF80
00007FFFFFFFFFFFFFFFFFFFFFFFFFFFFFC0
00007FFFFFFFFFFFFFFFFFFFFFFFFFFFFFC0
0000FFFFFFFFFFFFFFFFFFFFFFFFFFFFFFC0
0000FFFFFFFFFFFFFFFFFFFFFFFFFFFFFFE0
0001FFFFFFFFFFFFFFFFFFFFFFFFFFFFFFE0
0001FFFFFFFFFFFFFFFFFFFFFFFFFFFFFFE0
0003FFFFFFFFFFFFFFFFFFFFFFFFFFFFFFE0
0003FFFFFFFF8000000000000001FFFFFFF0
0007FFFFFFFC00000000000000007FFFFFF0
0007FFFFFFF000000000000000007FFFFFF0
0007FFFFFFE000000000000000003FFFFFF0
0007FFFFFFE000000000000000003FFFFFF0
000FFFFFFFE000000000000000003FFFFFF0
000FFFFFFFC000000000000000003FFFFFF0
000FFFFFFFC000000000000000003FFFFFF0
000FFFFFFFC000000000000000003FFFFFF0
001FFFFFFFC000000000000000003FFFFFF0
001FFFFFFF8000000000000000003FFFFFF0
001FFFFFFF8000000000000000003FFFFFF0
001FFFFFFF8000000000000000003FFFFFF0
001FFFFFFF8000000000000000003FFFFFF0
003FFFFFFF0000000000000000003FFFFFF0
003FFFFFFF0000000000000000003FFFFFF0
003FFFFFFF0000000000000000003FFFFFF0
003FFFFFFF0000000000000000003FFFFFF0
007FFFFFFE0000000000000000003FFFFFF0
007FFFFFFE0000000000000000003FFFFFF0
007FFFFFFE0000000000000000003FFFFFF0
007FFFFFFE0000000000000000003FFFFFF0
007FFFFFFC0000000000000000003FFFFFF0
00FFFFFFFC0000000000000000003FFFFFF0
00FFFFFFFC0000000000000000003FFFFFF0
00FFFFFFF80000000000000000003FFFFFF0
00FFFFFFF80000000000000000003FFFFFF0
00FFFFFFF80000000000000000003FFFFFF0
01FFFFFFF80000000000000000003FFFFFF0
01FFFFFFF00000000000000000003FFFFFF0
01FFFFFFF00000000000000000003FFFFFF0
01FFFFFFF00000000000000000003FFFFFF0
03FFFFFFE00000000000000000003FFFFFF0
03FFFFFFE00000000000000000003FFFFFF0
03FFFFFFE00000000000000000003FFFFFF0
03FFFFFFE00000000000000000003FFFFFF0
03FFFFFFC00000000000000000003FFFFFF0
07FFFFFFC00000000000000000003FFFFFF0
07FFFFFFC00000000000000000003FFFFFF0
07FFFFFF800000000000000000003FFFFFF0
07FFFFFF800000000000000000003FFFFFF0
0FFFFFFF800000000000000000003FFFFFF0
0FFFFFFF800000000000000000003FFFFFF0
0FFFFFFF000000000000000000003FFFFFF0
0FFFFFFF000000000000000000003FFFFFF0
0FFFFFFF000000000000000000003FFFFFF0
1FFFFFFE000000000000000000003FFFFFF0
1FFFFFFE000000000000000000003FFFFFF0
1FFFFFFE000000000000000000003FFFFFF0
1FFFFFFC000000000000000000003FFFFFF0
1FFFFFFC000000000000000000003FFFFFF0
3FFFFFFC000000000000000000003FFFFFF0
3FFFFFFC000000000000000000003FFFFFF0
3FFFFFF8000000000000000000003FFFFFF0
3FFFFFF8000000000000000000003FFFFFF0
7FFFFFF8000000000000000000003FFFFFF0
7FFFFFF0000000000000000000003FFFFFF0
7FFFFFF0000000000000000000003FFFFFF0
7FFFFFF0000000000000000000003FFFFFF0
7FFFFFE0000000000000000000003FFFFFF0
FFFFFFE0000000000000000000003FFFFFF0
FFFFFFE0000000000000000000003FFFFFF0
FFFFFFC0000000000000000000003FFFFFF0
FFFFFFC0000000000000000000003FFFFFF0
FFFFFFC0000000000000000000003FFFFFF0
FFFFFFC0000000000000000000003FFFFFF0
FFFFFFC0000000000000000000003FFFFFF0
FFFFFFC0000000000000000000003FFFFFF0
FFFFFFC0000000000000000000003FFFFFF0
FFFFFFC0000000000000000000003FFFFFF0
FFFFFFC0000000000000000000003FFFFFF0
FFFFFFE0000000000000000000003FFFFFF0
FFFFFFE0000000000000000000003FFFFFF0
7FFFFFF0000000000000000000003FFFFFF0
7FFFFFF0000000000000000000003FFFFFF0
7FFFFFF8000000000000000000003FFFFFF0
7FFFFFFC000000000000000000003FFFFFF0
7FFFFFFE000000000000000000003FFFFFF0
3FFFFFFF000000000000000000003FFFFFF0
3FFFFFFF800000000000000000007FFFFFF0
3FFFFFFFE00000000000000000007FFFFFF0
1FFFFFFFF8000000000000000001FFFFFFF0
1FFFFFFFFFFFFFFFFFFFFFFFFFFFFFFFFFE0
0FFFFFFFFFFFFFFFFFFFFFFFFFFFFFFFFFE0
0FFFFFFFFFFFFFFFFFFFFFFFFFFFFFFFFFE0
07FFFFFFFFFFFFFFFFFFFFFFFFFFFFFFFFE0
07FFFFFFFFFFFFFFFFFFFFFFFFFFFFFFFFC0
03FFFFFFFFFFFFFFFFFFFFFFFFFFFFFFFFC0
03FFFFFFFFFFFFFFFFFFFFFFFFFFFFFFFFC0
01FFFFFFFFFFFFFFFFFFFFFFFFFFFFFFFF80
00FFFFFFFFFFFFFFFFFFFFFFFFFFFFFFFF80
00FFFFFFFFFFFFFFFFFFFFFFFFFFFFFFFF00
007FFFFFFFFFFFFFFFFFFFFFFFFFFFFFFF00
003FFFFFFFFFFFFFFFFFFFFFFFFFFFFFFE00
001FFFFFFFFFFFFFFFFFFFFFFFFFFFFFFC00
000FFFFFFFFFFFFFFFFFFFFFFFFFFFFFFC00
0007FFFFFFFFFFFFFFFFFFFFFFFFFFFFF800
0003FFFFFFFFFFFFFFFFFFFFFFFFFFFFF000
0001FFFFFFFFFFFFFFFFFFFFFFFFFFFFE000
0000FFFFFFFFFFFFFFFFFFFFFFFFFFFFC000
00003FFFFFFFFFFFFFFFFFFFFFFFFFFF8000
00001FFFFFFFFFFFFFFFFFFFFFFFFFFF0000
000007FFFFFFFFFFFFFFFFFFFFFFFFFC0000
000001FFFFFFFFFFFFFFFFFFFFFFFFF80000
0000007FFFFFFFFFFFFFFFFFFFFFFFE00000
0000001FFFFFFFFFFFFFFFFFFFFFFF800000
00000003FFFFFFFFFFFFFFFFFFFFFE000000
000000001FFFFFFFFFFFFFFFFFFFC0000000
ENDCHAR
STARTCHAR 0031
ENCODING 49
SWIDTH 388 0
DWIDTH 70 0
BBX 56 136 0 -2
BITMAP
003FF000000000
01FFFF80000000
03FFFFF0000000
07FFFFFE000000
0FFFFFFF800000
1FFFFFFFE00000
3FFFFFFFF00000
7FFFFFFFFC0000
7FFFFFFFFE0000
7FFFFFFFFF0000
FFFFFFFFFF8000
FFFFFFFFFFE000
FFFFFFFFFFF000
FFFFFFFFFFF800
FFFFFFFFFFF800
FFFFFFFFFFFC00
FFFFFFFFFFFE00
7FFFFFFFFFFF00
7FFFFFFFFFFF80
7FFFFFFFFFFF80
3FFFFFFFFFFFC0
1FFFFFFFFFFFE0
1FFFFFFFFFFFE0
0FFFFFFFFFFFF0
03FFFFFFFFFFF0
01FFFFFFFFFFF8
003FFFFFFFFFF8
00007FFFFFFFF8
00000FFFFFFFFC
000003FFFFFFFC
000001FFFFFFFC
000000FFFFFFFE
0000007FFFFFFE
0000003FFFFFFE
0000001FFFFFFE
0000001FFFFFFE
0000000FFFFFFF
0000000FFFFFFF
0000000FFFFFFF
00000007FFFFFF
00000007FFFFFF
00000007FFFFFF
00000007FFFFFF
00000007FFFFFF
00000007FFFFFF
00000007FFFFFF
00000007FFFFFF
00000007FFFFFF
00000007FFFFFF
00000007FFFFFF
00000007FFFFFF
00000007FFFFFF
00000007FFFFFF
00000007FFFFFF
00000007FFFFFF
00000007FFFFFF
00000007FFFFFF
00000007FFFFFF
00000007FFFFFF
00000007FFFFFF
00000007FFFFFF
00000007FFFFFF
00000007FFFFFF
00000007FFFFFF
00000007FFFFFF
00000007FFFFFF
00000007FFFFFF
00000007FFFFFF
00000007FFFFFF
00000007FFFFFF
00000007FFFFFF
00000007FFFFFF
00000007FFFFFF
00000007FFFFFF
00000007FFFFFF
00000007FFFFFF
00000007FFFFFF
00000007FFFFFF
00000007FFFFFF
00000007FFFFFF
00000007FFFFFF
00000007FFFFFF
00000007FFFFFF
00000007FFFFFF
00000007FFFFFF
00000007FFFFFF
00000007FFFFFF
00000007FFFFFF
00000007FFFFFF
00000007FFFFFF
00000007FFFFFF
00000007FFFFFF
00000007FFFFFF
00000007FFFFFF
00000007FFFFFF
00000007FFFFFF
00000007FFFFFF
00000007FFFFFF
00000007FFFFFF
00000007FFFFFF
00000007FFFFFF
00000007FFFFFF
00000007FFFFFF
00000007FFFFFF
00000007FFFFFF
00000007FFFFFF
00000007FFFFFF
00000007FFFFFF
00000007FFFFFF
00000007FFFFFF
00000007FFFFFF
00000007FFFFFF
00000007FFFFFF
00000007FFFFFF
00000007FFFFFF
00000007FFFFFF
00000007FFFFFF
00000007FFFFFF
00000007FFFFFF
00000007FFFFFF
00000007FFFFFF
00000007FFFFFF
00000007FFFFFF
00000007FFFFFF
00000007FFFFFF
00000007FFFFFF
00000007FFFFFE
00000003FFFFFE
00000003FFFFFE
00000001FFFFFC
00000001FFFFF8
00000000FFFFF8
000000007FFFF0
000000003FFFC0
000000000FFF80
0000000001FC00
ENDCHAR
STARTCHAR 0032
ENCODING 50
SWIDTH 888 0
DWIDTH 160 0
BBX 140 134 0 0
BITMAP
0000003FFFFFFFFFFFFFFFFFFFF000000000
000003FFFFFFFFFFFFFFFFFFFFFF80000000
00001FFFFFFFFFFFFFFFFFFFFFFFF0000000
00007FFFFFFFFFFFFFFFFFFFFFFFFC000000
0001FFFFFFFFFFFFFFFFFFFFFFFFFF000000
0003FFFFFFFFFFFFFFFFFFFFFFFFFFC00000
0007FFFFFFFFFFFFFFFFFFFFFFFFFFE00000
001FFFFFFFFFFFFFFFFFFFFFFFFFFFF80000
003FFFFFFFFFFFFFFFFFFFFFFFFFFFFC0000
007FFFFFFFFFFFFFFFFFFFFFFFFFFFFE0000
00FFFFFFFFFFFFFFFFFFFFFFFFFFFFFF0000
01FFFFFFFFFFFFFFFFFFFFFFFFFFFFFF8000
01FFFFFFFFFFFFFFFFFFFFFFFFFFFFFFC000
03FFFFFFFFFFFFFFFFFFFFFFFFFFFFFFE000
07FFFFFFFFFFFFFFFFFFFFFFFFFFFFFFF000
0FFFFFFFFFFFFFFFFFFFFFFFFFFFFFFFF800
0FFFFFFFFFFFFFFFFFFFFFFFFFFFFFFFF800
1FFFFFFFFFFFFFFFFFFFFFFFFFFFFFFFFC00
1FFFFFFFFFFFFFFFFFFFFFFFFFFFFFFFFE00
3FFFFFFFFFFFFFFFFFFFFFFFFFFFFFFFFE00
3FFFFFFFFFFFFFFFFFFFFFFFFFFFFFFFFF00
3FFFFFFFFFFFFFFFFFFFFFFFFFFFFFFFFF00
7FFFFFFFFFFFFFFFFFFFFFFFFFFFFFFFFF80
7FFFFFFFFFFFFFFFFFFFFFFFFFFFFFFFFF80
7FFFFFFFFFFFFFFFFFFFFFFFFFFFFFFFFFC0
7FFFFFFFFFFFFFFFFFFFFFFFFFFFFFFFFFC0
FFFFFFFFFFFFFFFFFFFFFFFFFFFFFFFFFFC0
FFFFFFF80000000000000000003FFFFFFFE0
FFFFFFE00000000000000000000FFFFFFFE0
FFFFFFC000000000000000000003FFFFFFE0
FFFFFFC000000000000000000001FFFFFFE0
FFFFFFC000000000000000000000FFFFFFE0
FFFFFFC000000000000000000000FFFFFFF0
FFFFFFC0000000000000000000007FFFFFF0
FFFFFFC0000000000000000000007FFFFFF0
FFFFFFC0000000000000000000003FFFFFF0
7FFFFF80000000000000000000003FFFFFF0
7FFFFF80000000000000000000003FFFFFF0
3FFFFF00000000000000000000003FFFFFF0
3FFFFF00000000000000000000003FFFFFF0
1FFFFE00000000000000000000003FFFFFF0
0FFFFC00000000000000000000003FFFFFF0
07FFF800000000000000000000007FFFFFF0
03FFE000000000000000000000007FFFFFF0
007F800000000000000000000000FFFFFFE0
0000000000000000000000000000FFFFFFE0
0000000000000000000000000001FFFFFFE0
0000000000000000000000000003FFFFFFE0
000000000000000000000000000FFFFFFFE0
000000000000000000000000003FFFFFFFC0
000000001FFFFFFFFFFFFFFFFFFFFFFFFFC0
00000003FFFFFFFFFFFFFFFFFFFFFFFFFFC0
0000001FFFFFFFFFFFFFFFFFFFFFFFFFFF80
0000007FFFFFFFFFFFFFFFFFFFFFFFFFFF80
000001FFFFFFFFFFFFFFFFFFFFFFFFFFFF00
000007FFFFFFFFFFFFFFFFFFFFFFFFFFFF00
00001FFFFFFFFFFFFFFFFFFFFFFFFFFFFE00
00003FFFFFFFFFFFFFFFFFFFFFFFFFFFFE00
00007FFFFFFFFFFFFFFFFFFFFFFFFFFFFC00
0001FFFFFFFFFFFFFFFFFFFFFFFFFFFFF800
0003FFFFFFFFFFFFFFFFFFFFFFFFFFFFF800
0007FFFFFFFFFFFFFFFFFFFFFFFFFFFFF000
000FFFFFFFFFFFFFFFFFFFFFFFFFFFFFE000
001FFFFFFFFFFFFFFFFFFFFFFFFFFFFFC000
003FFFFFFFFFFFFFFFFFFFFFFFFFFFFF8000
007FFFFFFFFFFFFFFFFFFFFFFFFFFFFF0000
007FFFFFFFFFFFFFFFFFFFFFFFFFFFFE0000
00FFFFFFFFFFFFFFFFFFFFFFFFFFFFFC0000
01FFFFFFFFFFFFFFFFFFFFFFFFFFFFF80000
03FFFFFFFFFFFFFFFFFFFFFFFFFFFFF00000
03FFFFFFFFFFFFFFFFFFFFFFFFFFFFC00000
07FFFFFFFFFFFFFFFFFFFFFFFFFFFF000000
07FFFFFFFFFFFFFFFFFFFFFFFFFFFC000000
0FFFFFFFFFFFFFFFFFFFFFFFFFFFF0000000
0FFFFFFFFFFFFFFFFFFFFFFFFFFF80000000
1FFFFFFFFFFFFFFFFFFFFFFFFFF800000000
1FFFFFFFFC00000000000000000000000000
3FFFFFFFE000000000000000000000000000
3FFFFFFF8000000000000000000000000000
3FFFFFFF0000000000000000000000000000
7FFFFFFE0000000000000000000000000000
7FFFFFFC0000000000000000000000000000
7FFFFFF80000000000000000000000000000
7FFFFFF00000000000000000000000000000
7FFFFFF00000000000000000000000000000
FFFFFFE00000000000000000000000000000
FFFFFFE00000000000000000000000000000
FFFFFFC00000000000000000000000000000
FFFFFFC00000000000000000000000000000
FFFFFFC00000000000000000000000000000
FFFFFFC00000000000000000000000000000
FFFFFFC00000000000000000000000000000
FFFFFFC00000000000000000000000000000
FFFFFFC00000000000000000000000000000
FFFFFFC00000000000000000000000000000
FFFFFFC00000000000000000000000000000
FFFFFFE00000000000000000000000000000
FFFFFFE00000000000000000000000000000
FFFFFFF00000000000000000000000000000
7FFFFFF00000000000000000000000000000
7FFFFFF80000000000000000000000000000
7FFFFFFC0000000000000000000000000000
7FFFFFFE0000000000000000000000000000
7FFFFFFF0000000000000000000000000000
3FFFFFFF8000000000000000000000000000
3FFFFFFFE000000000000000000000000000
3FFFFFFFF800000000000000000000000000
1FFFFFFFFFFFFFFFFFFFFFFFFFFFFFFFC000
1FFFFFFFFFFFFFFFFFFFFFFFFFFFFFFFF000
0FFFFFFFFFFFFFFFFFFFFFFFFFFFFFFFFC00
0FFFFFFFFFFFFFFFFFFFFFFFFFFFFFFFFE00
07FFFFFFFFFFFFFFFFFFFFFFFFFFFFFFFF00
07FFFFFFFFFFFFFFFFFFFFFFFFFFFFFFFF80
03FFFFFFFFFFFFFFFFFFFFFFFFFFFFFFFFC0
03FFFFFFFFFFFFFFFFFFFFFFFFFFFFFFFFC0
01FFFFFFFFFFFFFFFFFFFFFFFFFFFFFFFFE0
00FFFFFFFFFFFFFFFFFFFFFFFFFFFFFFFFE0
007FFFFFFFFFFFFFFFFFFFFFFFFFFFFFFFE0
007FFFFFFFFFFFFFFFFFFFFFFFFFFFFFFFE0
003FFFFFFFFFFFFFFFFFFFFFFFFFFFFFFFE0
001FFFFFFFFFFFFFFFFFFFFFFFFFFFFFFFF0
000FFFFFFFFFFFFFFFFFFFFFFFFFFFFFFFE0
0007FFFFFFFFFFFFFFFFFFFFFFFFFFFFFFE0
0003FFFFFFFFFFFFFFFFFFFFFFFFFFFFFFE0
0001FFFFFFFFFFFFFFFFFFFFFFFFFFFFFFE0
0000FFFFFFFFFFFFFFFFFFFFFFFFFFFFFFE0
00003FFFFFFFFFFFFFFFFFFFFFFFFFFFFFC0
00001FFFFFFFFFFFFFFFFFFFFFFFFFFFFFC0
000007FFFFFFFFFFFFFFFFFFFFFFFFFFFF80
000001FFFFFFFFFFFFFFFFFFFFFFFFFFFF00
0000007FFFFFFFFFFFFFFFFFFFFFFFFFFE00
0000001FFFFFFFFFFFFFFFFFFFFFFFFFFC00
00000003FFFFFFFFFFFFFFFFFFFFFFFFF000
000000001FFFFFFFFFFFFFFFFFFFFFFFC000
ENDCHAR
STARTCHAR 0033
ENCODING 51
SWIDTH 888 0
DWIDTH 160 0
BBX 141 134 0 0
BITMAP
0000003FFFFFFFFFFFFFFFFFFF8000000000
000003FFFFFFFFFFFFFFFFFFFFFC00000000
00001FFFFFFFFFFFFFFFFFFFFFFF80000000
00007FFFFFFFFFFFFFFFFFFFFFFFE0000000
0001FFFFFFFFFFFFFFFFFFFFFFFFF8000000
0003FFFFFFFFFFFFFFFFFFFFFFFFFE000000
0007FFFFFFFFFFFFFFFFFFFFFFFFFF000000
001FFFFFFFFFFFFFFFFFFFFFFFFFFFC00000
003FFFFFFFFFFFFFFFFFFFFFFFFFFFE00000
007FFFFFFFFFFFFFFFFFFFFFFFFFFFF00000
00FFFFFFFFFFFFFFFFFFFFFFFFFFFFF80000
01FFFFFFFFFFFFFFFFFFFFFFFFFFFFFC0000
01FFFFFFFFFFFFFFFFFFFFFFFFFFFFFE0000
03FFFFFFFFFFFFFFFFFFFFFFFFFFFFFF0000
07FFFFFFFFFFFFFFFFFFFFFFFFFFFFFF8000
0FFFFFFFFFFFFFFFFFFFFFFFFFFFFFFF8000
0FFFFFFFFFFFFFFFFFFFFFFFFFFFFFFFC000
1FFFFFFFFFFFFFFFFFFFFFFFFFFFFFFFE000
1FFFFFFFFFFFFFFFFFFFFFFFFFFFFFFFE000
3FFFFFFFFFFFFFFFFFFFFFFFFFFFFFFFF000
3FFFFFFFFFFFFFFFFFFFFFFFFFFFFFFFF800
3FFFFFFFFFFFFFFFFFFFFFFFFFFFFFFFF800
7FFFFFFFFFFFFFFFFFFFFFFFFFFFFFFFFC00
7FFFFFFFFFFFFFFFFFFFFFFFFFFFFFFFFC00
7FFFFFFFFFFFFFFFFFFFFFFFFFFFFFFFFE00
7FFFFFFFFFFFFFFFFFFFFFFFFFFFFFFFFE00
FFFFFFFFFFFFFFFFFFFFFFFFFFFFFFFFFE00
FFFFFFF8000000000000000001FFFFFFFF00
FFFFFFE00000000000000000007FFFFFFF00
FFFFFFC00000000000000000001FFFFFFF00
FFFFFFC00000000000000000000FFFFFFF00
FFFFFFC000000000000000000007FFFFFF00
FFFFFFC000000000000000000007FFFFFF80
FFFFFFC000000000000000000003FFFFFF80
FFFFFFC000000000000000000003FFFFFF80
FFFFFFC000000000000000000001FFFFFF80
7FFFFF8000000000000000000001FFFFFF80
7FFFFF8000000000000000000001FFFFFF80
3FFFFF0000000000000000000001FFFFFF80
3FFFFF0000000000000000000001FFFFFF80
1FFFFE0000000000000000000001FFFFFF80
0FFFFC0000000000000000000001FFFFFF80
07FFF80000000000000000000003FFFFFF80
01FFE00000000000000000000003FFFFFF80
007F800000000000000000000007FFFFFF00
0000000000000000000000000007FFFFFF00
000000000000000000000000000FFFFFFF00
000000000000000000000000001FFFFFFF00
000000000000000000000000007FFFFFFF00
00000000000000000000000001FFFFFFFE00
0000000000000000001FFFFFFFFFFFFFFE00
0000000000000000007FFFFFFFFFFFFFFE00
000000000000000001FFFFFFFFFFFFFFFC00
000000000000000003FFFFFFFFFFFFFFFC00
000000000000000007FFFFFFFFFFFFFFF800
00000000000000000FFFFFFFFFFFFFFFF800
00000000000000000FFFFFFFFFFFFFFFF000
00000000000000001FFFFFFFFFFFFFFFF000
00000000000000001FFFFFFFFFFFFFFFE000
00000000000000003FFFFFFFFFFFFFFFC000
00000000000000003FFFFFFFFFFFFFFFC000
00000000000000003FFFFFFFFFFFFFFF8000
00000000000000003FFFFFFFFFFFFFFF0000
00000000000000003FFFFFFFFFFFFFFF8000
00000000000000003FFFFFFFFFFFFFFFC000
00000000000000003FFFFFFFFFFFFFFFE000
00000000000000003FFFFFFFFFFFFFFFF000
00000000000000001FFFFFFFFFFFFFFFF800
00000000000000001FFFFFFFFFFFFFFFFC00
00000000000000001FFFFFFFFFFFFFFFFC00
00000000000000000FFFFFFFFFFFFFFFFE00
000000000000000007FFFFFFFFFFFFFFFF00
000000000000000003FFFFFFFFFFFFFFFF00
000000000000000001FFFFFFFFFFFFFFFF80
0000000000000000007FFFFFFFFFFFFFFF80
0000000000000000001FFFFFFFFFFFFFFFC0
00000000000000000000000001FFFFFFFFC0
000000000000000000000000003FFFFFFFC0
000000000000000000000000001FFFFFFFE0
0000000000000000000000000007FFFFFFE0
0000000000000000000000000003FFFFFFE0
0000000000000000000000000001FFFFFFF0
0000000000000000000000000000FFFFFFF0
00000000000000000000000000007FFFFFF0
00000000000000000000000000007FFFFFF0
00000000000000000000000000003FFFFFF8
00000000000000000000000000003FFFFFF8
00000000000000000000000000003FFFFFF8
00000000000000000000000000001FFFFFF8
000E0000000000000000000000001FFFFFF8
00FFC000000000000000000000001FFFFFF8
03FFF000000000000000000000001FFFFFF8
07FFF800000000000000000000001FFFFFF8
1FFFFE00000000000000000000001FFFFFF8
1FFFFE00000000000000000000001FFFFFF8
3FFFFF00000000000000000000003FFFFFF8
7FFFFF80000000000000000000003FFFFFF8
7FFFFF80000000000000000000003FFFFFF8
7FFFFFC0000000000000000000007FFFFFF8
FFFFFFC0000000000000000000007FFFFFF0
FFFFFFC000000000000000000000FFFFFFF0
FFFFFFC000000000000000000001FFFFFFF0
FFFFFFC000000000000000000003FFFFFFF0
FFFFFFC000000000000000000007FFFFFFE0
FFFFFFC00000000000000000000FFFFFFFE0
FFFFFFE00000000000000000003FFFFFFFE0
FFFFFFF8000000000000000001FFFFFFFFE0
FFFFFFFFFFFFFFFFFFFFFFFFFFFFFFFFFFC0
FFFFFFFFFFFFFFFFFFFFFFFFFFFFFFFFFFC0
7FFFFFFFFFFFFFFFFFFFFFFFFFFFFFFFFF80
7FFFFFFFFFFFFFFFFFFFFFFFFFFFFFFFFF80
7FFFFFFFFFFFFFFFFFFFFFFFFFFFFFFFFF00
3FFFFFFFFFFFFFFFFFFFFFFFFFFFFFFFFF00
3FFFFFFFFFFFFFFFFFFFFFFFFFFFFFFFFE00
3FFFFFFFFFFFFFFFFFFFFFFFFFFFFFFFFE00
1FFFFFFFFFFFFFFFFFFFFFFFFFFFFFFFFC00
1FFFFFFFFFFFFFFFFFFFFFFFFFFFFFFFF800
0FFFFFFFFFFFFFFFFFFFFFFFFFFFFFFFF000
0FFFFFFFFFFFFFFFFFFFFFFFFFFFFFFFF000
07FFFFFFFFFFFFFFFFFFFFFFFFFFFFFFE000
03FFFFFFFFFFFFFFFFFFFFFFFFFFFFFFC000
03FFFFFFFFFFFFFFFFFFFFFFFFFFFFFF8000
01FFFFFFFFFFFFFFFFFFFFFFFFFFFFFF0000
00FFFFFFFFFFFFFFFFFFFFFFFFFFFFFE0000
007FFFFFFFFFFFFFFFFFFFFFFFFFFFFC0000
003FFFFFFFFFFFFFFFFFFFFFFFFFFFF00000
001FFFFFFFFFFFFFFFFFFFFFFFFFFFE00000
000FFFFFFFFFFFFFFFFFFFFFFFFFFFC00000
0003FFFFFFFFFFFFFFFFFFFFFFFFFF000000
0001FFFFFFFFFFFFFFFFFFFFFFFFFC000000
00007FFFFFFFFFFFFFFFFFFFFFFFF0000000
00001FFFFFFFFFFFFFFFFFFFFFFFC0000000
000003FFFFFFFFFFFFFFFFFFFFFE00000000
0000003FFFFFFFFFFFFFFFFFFFC000000000
ENDCHAR
STARTCHAR 0034
ENCODING 52
SWIDTH 888 0
DWIDTH 160 0
BBX 144 138 0 -2
BITMAP
003F8000000000000000000000000003FC00
01FFF00000000000000000000000000FFF80
07FFF80000000000000000000000003FFFC0
0FFFFC0000000000000000000000007FFFE0
1FFFFE000000000000000000000000FFFFF0
3FFFFF000000000000000000000001FFFFF8
3FFFFF800000000000000000000001FFFFFC
7FFFFF800000000000000000000003FFFFFC
7FFFFFC00000000000000000000003FFFFFE
FFFFFFC00000000000000000000007FFFFFE
FFFFFFC00000000000000000000007FFFFFF
FFFFFFE00000000000000000000007FFFFFF
FFFFFFE00000000000000000000007FFFFFF
FFFFFFE00000000000000000000007FFFFFF
FFFFFFE00000000000000000000007FFFFFF
FFFFFFE00000000000000000000007FFFFFF
FFFFFFE00000000000000000000007FFFFFF
FFFFFFE00000000000000000000007FFFFFF
FFFFFFE00000000000000000000007FFFFFF
FFFFFFE00000000000000000000007FFFFFF
FFFFFFE00000000000000000000007FFFFFF
FFFFFFE00000000000000000000007FFFFFF
FFFFFFE00000000000000000000007FFFFFF
FFFFFFE00000000000000000000007FFFFFF
FFFFFFE00000000000000000000007FFFFFF
FFFFFFE00000000000000000000007FFFFFF
FFFFFFE00000000000000000000007FFFFFF
FFFFFFE00000000000000000000007FFFFFF
FFFFFFE00000000000000000000007FFFFFF
FFFFFFE00000000000000000000007FFFFFF
FFFFFFE00000000000000000000007FFFFFF
FFFFFFE00000000000000000000007FFFFFF
FFFFFFE00000000000000000000007FFFFFF
FFFFFFE00000000000000000000007FFFFFF
FFFFFFE00000000000000000000007FFFFFF
FFFFFFE00000000000000000000007FFFFFF
FFFFFFE00000000000000000000007FFFFFF
FFFFFFE00000000000000000000007FFFFFF
FFFFFFE00000000000000000000007FFFFFF
FFFFFFE00000000000000000000007FFFFFF
FFFFFFE00000000000000000000007FFFFFF
FFFFFFE00000000000000000000007FFFFFF
FFFFFFE00000000000000000000007FFFFFF
FFFFFFE00000000000000000000007FFFFFF
FFFFFFE00000000000000000000007FFFFFF
FFFFFFE00000000000000000000007FFFFFF
FFFFFFE00000000000000000000007FFFFFF
FFFFFFE00000000000000000000007FFFFFF
FFFFFFE00000000000000000000007FFFFFF
FFFFFFE00000000000000000000007FFFFFF
FFFFFFE00000000000000000000007FFFFFF
FFFFFFE00000000000000000000007FFFFFF
FFFFFFE00000000000000000000007FFFFFF
FFFFFFE00000000000000000000007FFFFFF
FFFFFFE00000000000000000000007FFFFFF
FFFFFFE00000000000000000000007FFFFFF
FFFFFFE00000000000000000000007FFFFFF
FFFFFFE00000000000000000000007FFFFFF
FFFFFFE00000000000000000000007FFFFFF
FFFFFFE00000000000000000000007FFFFFF
FFFFFFE00000000000000000000007FFFFFF
FFFFFFE00000000000000000000007FFFFFF
FFFFFFE00000000000000000000007FFFFFF
FFFFFFE00000000000000000000007FFFFFF
FFFFFFE00000000000000000000007FFFFFF
FFFFFFF00000000000000000000007FFFFFF
FFFFFFF00000000000000000000007FFFFFF
FFFFFFF00000000000000000000007FFFFFF
7FFFFFF80000000000000000000007FFFFFF
7FFFFFFC0000000000000000000007FFFFFF
7FFFFFFC0000000000000000000007FFFFFF
7FFFFFFE0000000000000000000007FFFFFF
7FFFFFFF0000000000000000000007FFFFFF
3FFFFFFFC000000000000000000007FFFFFF
3FFFFFFFE000000000000000000007FFFFFF
3FFFFFFFF800000000000000000007FFFFFF
1FFFFFFFFFFFFFFFFFFFFFFFFFFFFFFFFFFF
1FFFFFFFFFFFFFFFFFFFFFFFFFFFFFFFFFFF
0FFFFFFFFFFFFFFFFFFFFFFFFFFFFFFFFFFF
0FFFFFFFFFFFFFFFFFFFFFFFFFFFFFFFFFFF
07FFFFFFFFFFFFFFFFFFFFFFFFFFFFFFFFFF
07FFFFFFFFFFFFFFFFFFFFFFFFFFFFFFFFFF
03FFFFFFFFFFFFFFFFFFFFFFFFFFFFFFFFFF
01FFFFFFFFFFFFFFFFFFFFFFFFFFFFFFFFFF
01FFFFFFFFFFFFFFFFFFFFFFFFFFFFFFFFFF
00FFFFFFFFFFFFFFFFFFFFFFFFFFFFFFFFFF
007FFFFFFFFFFFFFFFFFFFFFFFFFFFFFFFFF
003FFFFFFFFFFFFFFFFFFFFFFFFFFFFFFFFF
003FFFFFFFFFFFFFFFFFFFFFFFFFFFFFFFFF
001FFFFFFFFFFFFFFFFFFFFFFFFFFFFFFFFF
000FFFFFFFFFFFFFFFFFFFFFFFFFFFFFFFFF
0007FFFFFFFFFFFFFFFFFFFFFFFFFFFFFFFF
0003FFFFFFFFFFFFFFFFFFFFFFFFFFFFFFFF
0000FFFFFFFFFFFFFFFFFFFFFFFFFFFFFFFF
00007FFFFFFFFFFFFFFFFFFFFFFFFFFFFFFF
00003FFFFFFFFFFFFFFFFFFFFFFFFFFFFFFF
00000FFFFFFFFFFFFFFFFFFFFFFFFFFFFFFF
000007FFFFFFFFFFFFFFFFFFFFFFFFFFFFFF
000001FFFFFFFFFFFFFFFFFFFFFFFFFFFFFF
0000007FFFFFFFFFFFFFFFFFFFFFFFFFFFFF
0000000FFFFFFFFFFFFFFFFFFFFFFFFFFFFF
00000001FFFFFFFFFFFFFFFFFFFFFFFFFFFF
000000000FFFFFFFFFFFFFFFFFFFFFFFFFFF
000000000000000000000000000007FFFFFF
000000000000000000000000000007FFFFFF
000000000000000000000000000007FFFFFF
000000000000000000000000000007FFFFFF
000000000000000000000000000007FFFFFF
000000000000000000000000000007FFFFFF
000000000000000000000000000007FFFFFF
000000000000000000000000000007FFFFFF
000000000000000000000000000007FFFFFF
000000000000000000000000000007FFFFFF
000000000000000000000000000007FFFFFF
000000000000000000000000000007FFFFFF
000000000000000000000000000007FFFFFF
000000000000000000000000000007FFFFFF
000000000000000000000000000007FFFFFF
000000000000000000000000000007FFFFFF
000000000000000000000000000007FFFFFF
000000000000000000000000000007FFFFFF
000000000000000000000000000007FFFFFF
000000000000000000000000000007FFFFFF
000000000000000000000000000007FFFFFF
000000000000000000000000000007FFFFFF
000000000000000000000000000007FFFFFF
000000000000000000000000000007FFFFFF
000000000000000000000000000007FFFFFF
000000000000000000000000000007FFFFFE
000000000000000000000000000003FFFFFE
000000000000000000000000000003FFFFFC
000000000000000000000000000001FFFFFC
000000000000000000000000000001FFFFF8
000000000000000000000000000000FFFFF0
0000000000000000000000000000007FFFE0
0000000000000000000000000000003FFFC0
0000000000000000000000000000000FFF80
00000000000000000000000000000003FC00
ENDCHAR
STARTCHAR 0035
ENCODING 53
SWIDTH 888 0
DWIDTH 160 0
BBX 141 134 0 0
BITMAP
00000000FFFFFFFFFFFFFFFFFFFFFFFFC000
0000001FFFFFFFFFFFFFFFFFFFFFFFFFF000
000000FFFFFFFFFFFFFFFFFFFFFFFFFFFC00
000003FFFFFFFFFFFFFFFFFFFFFFFFFFFE00
00000FFFFFFFFFFFFFFFFFFFFFFFFFFFFF00
00003FFFFFFFFFFFFFFFFFFFFFFFFFFFFF80
00007FFFFFFFFFFFFFFFFFFFFFFFFFFFFF80
0001FFFFFFFFFFFFFFFFFFFFFFFFFFFFFFC0
0003FFFFFFFFFFFFFFFFFFFFFFFFFFFFFFC0
0007FFFFFFFFFFFFFFFFFFFFFFFFFFFFFFE0
000FFFFFFFFFFFFFFFFFFFFFFFFFFFFFFFE0
001FFFFFFFFFFFFFFFFFFFFFFFFFFFFFFFE0
003FFFFFFFFFFFFFFFFFFFFFFFFFFFFFFFE0
007FFFFFFFFFFFFFFFFFFFFFFFFFFFFFFFE0
00FFFFFFFFFFFFFFFFFFFFFFFFFFFFFFFFE0
01FFFFFFFFFFFFFFFFFFFFFFFFFFFFFFFFE0
03FFFFFFFFFFFFFFFFFFFFFFFFFFFFFFFFE0
03FFFFFFFFFFFFFFFFFFFFFFFFFFFFFFFFE0
07FFFFFFFFFFFFFFFFFFFFFFFFFFFFFFFFC0
07FFFFFFFFFFFFFFFFFFFFFFFFFFFFFFFFC0
0FFFFFFFFFFFFFFFFFFFFFFFFFFFFFFFFF80
0FFFFFFFFFFFFFFFFFFFFFFFFFFFFFFFFF80
1FFFFFFFFFFFFFFFFFFFFFFFFFFFFFFFFF00
1FFFFFFFFFFFFFFFFFFFFFFFFFFFFFFFFE00
3FFFFFFFFFFFFFFFFFFFFFFFFFFFFFFFFC00
3FFFFFFFFFFFFFFFFFFFFFFFFFFFFFFFF000
7FFFFFFFFFFFFFFFFFFFFFFFFFFFFFFFC000
7FFFFFFFC000000000000000000000000000
7FFFFFFF0000000000000000000000000000
7FFFFFFC0000000000000000000000000000
7FFFFFF80000000000000000000000000000
FFFFFFF00000000000000000000000000000
FFFFFFE00000000000000000000000000000
FFFFFFE00000000000000000000000000000
FFFFFFC00000000000000000000000000000
FFFFFFC00000000000000000000000000000
FFFFFFC00000000000000000000000000000
FFFFFFC00000000000000000000000000000
FFFFFFC00000000000000000000000000000
FFFFFFC00000000000000000000000000000
FFFFFFC00000000000000000000000000000
FFFFFFC00000000000000000000000000000
FFFFFFC00000000000000000000000000000
FFFFFFE00000000000000000000000000000
FFFFFFE00000000000000000000000000000
FFFFFFF00000000000000000000000000000
7FFFFFF80000000000000000000000000000
7FFFFFFC0000000000000000000000000000
7FFFFFFF0000000000000000000000000000
7FFFFFFFC000000000000000000000000000
3FFFFFFFFFFFFFFFFFFFFFFFFF8000000000
3FFFFFFFFFFFFFFFFFFFFFFFFFFC00000000
3FFFFFFFFFFFFFFFFFFFFFFFFFFF80000000
1FFFFFFFFFFFFFFFFFFFFFFFFFFFF0000000
1FFFFFFFFFFFFFFFFFFFFFFFFFFFFC000000
0FFFFFFFFFFFFFFFFFFFFFFFFFFFFF000000
0FFFFFFFFFFFFFFFFFFFFFFFFFFFFF800000
07FFFFFFFFFFFFFFFFFFFFFFFFFFFFE00000
03FFFFFFFFFFFFFFFFFFFFFFFFFFFFF00000
03FFFFFFFFFFFFFFFFFFFFFFFFFFFFF80000
01FFFFFFFFFFFFFFFFFFFFFFFFFFFFFC0000
00FFFFFFFFFFFFFFFFFFFFFFFFFFFFFF0000
007FFFFFFFFFFFFFFFFFFFFFFFFFFFFF8000
003FFFFFFFFFFFFFFFFFFFFFFFFFFFFFC000
001FFFFFFFFFFFFFFFFFFFFFFFFFFFFFC000
000FFFFFFFFFFFFFFFFFFFFFFFFFFFFFE000
0007FFFFFFFFFFFFFFFFFFFFFFFFFFFFF000
0003FFFFFFFFFFFFFFFFFFFFFFFFFFFFF800
0001FFFFFFFFFFFFFFFFFFFFFFFFFFFFFC00
0000FFFFFFFFFFFFFFFFFFFFFFFFFFFFFC00
00003FFFFFFFFFFFFFFFFFFFFFFFFFFFFE00
00000FFFFFFFFFFFFFFFFFFFFFFFFFFFFF00
000003FFFFFFFFFFFFFFFFFFFFFFFFFFFF00
000000FFFFFFFFFFFFFFFFFFFFFFFFFFFF80
0000001FFFFFFFFFFFFFFFFFFFFFFFFFFF80
00000000FFFFFFFFFFFFFFFFFFFFFFFFFFC0
00000000000000000000000001FFFFFFFFC0
000000000000000000000000003FFFFFFFC0
000000000000000000000000000FFFFFFFE0
0000000000000000000000000007FFFFFFE0
0000000000000000000000000003FFFFFFE0
0000000000000000000000000001FFFFFFF0
0000000000000000000000000000FFFFFFF0
0000000000000000000000000000FFFFFFF0
00000000000000000000000000007FFFFFF0
00000000000000000000000000003FFFFFF0
00000000000000000000000000003FFFFFF0
00000000000000000000000000003FFFFFF8
00000000000000000000000000001FFFFFF8
001C0000000000000000000000001FFFFFF8
01FFC000000000000000000000001FFFFFF8
03FFF000000000000000000000001FFFFFF8
0FFFF800000000000000000000001FFFFFF8
1FFFFC00000000000000000000001FFFFFF8
3FFFFE00000000000000000000001FFFFFF8
3FFFFF00000000000000000000003FFFFFF8
7FFFFF80000000000000000000003FFFFFF8
7FFFFF80000000000000000000003FFFFFF0
FFFFFF80000000000000000000007FFFFFF0
FFFFFFC0000000000000000000007FFFFFF0
FFFFFFC000000000000000000000FFFFFFF0
FFFFFFC000000000000000000001FFFFFFF0
FFFFFFC000000000000000000003FFFFFFF0
FFFFFFC000000000000000000007FFFFFFE0
FFFFFFC00000000000000000000FFFFFFFE0
FFFFFFE00000000000000000003FFFFFFFE0
FFFFFFF0000000000000000001FFFFFFFFC0
FFFFFFFFFFFFFFFFFFFFFFFFFFFFFFFFFFC0
FFFFFFFFFFFFFFFFFFFFFFFFFFFFFFFFFFC0
FFFFFFFFFFFFFFFFFFFFFFFFFFFFFFFFFF80
7FFFFFFFFFFFFFFFFFFFFFFFFFFFFFFFFF80
7FFFFFFFFFFFFFFFFFFFFFFFFFFFFFFFFF00
7FFFFFFFFFFFFFFFFFFFFFFFFFFFFFFFFF00
3FFFFFFFFFFFFFFFFFFFFFFFFFFFFFFFFE00
3FFFFFFFFFFFFFFFFFFFFFFFFFFFFFFFFC00
1FFFFFFFFFFFFFFFFFFFFFFFFFFFFFFFFC00
1FFFFFFFFFFFFFFFFFFFFFFFFFFFFFFFF800
0FFFFFFFFFFFFFFFFFFFFFFFFFFFFFFFF000
0FFFFFFFFFFFFFFFFFFFFFFFFFFFFFFFE000
07FFFFFFFFFFFFFFFFFFFFFFFFFFFFFFE000
07FFFFFFFFFFFFFFFFFFFFFFFFFFFFFFC000
03FFFFFFFFFFFFFFFFFFFFFFFFFFFFFF8000
01FFFFFFFFFFFFFFFFFFFFFFFFFFFFFF0000
00FFFFFFFFFFFFFFFFFFFFFFFFFFFFFE0000
007FFFFFFFFFFFFFFFFFFFFFFFFFFFF80000
003FFFFFFFFFFFFFFFFFFFFFFFFFFFF00000
001FFFFFFFFFFFFFFFFFFFFFFFFFFFE00000
000FFFFFFFFFFFFFFFFFFFFFFFFFFF800000
0003FFFFFFFFFFFFFFFFFFFFFFFFFF000000
0001FFFFFFFFFFFFFFFFFFFFFFFFFC000000
00007FFFFFFFFFFFFFFFFFFFFFFFF0000000
00001FFFFFFFFFFFFFFFFFFFFFFFC0000000
000003FFFFFFFFFFFFFFFFFFFFFE00000000
0000003FFFFFFFFFFFFFFFFFFFC000000000
ENDCHAR
STARTCHAR 0036
ENCODING 54
SWIDTH 888 0
DWIDTH 160 0
BBX 141 134 0 0
BITMAP
000000001FFFFFFFFFFFFFFFFFFFE0000000
00000003FFFFFFFFFFFFFFFFFFFFFE000000
0000001FFFFFFFFFFFFFFFFFFFFFFFC00000
0000007FFFFFFFFFFFFFFFFFFFFFFFF00000
000001FFFFFFFFFFFFFFFFFFFFFFFFFC0000
000007FFFFFFFFFFFFFFFFFFFFFFFFFE0000
00001FFFFFFFFFFFFFFFFFFFFFFFFFFF0000
00003FFFFFFFFFFFFFFFFFFFFFFFFFFFC000
00007FFFFFFFFFFFFFFFFFFFFFFFFFFFE000
0001FFFFFFFFFFFFFFFFFFFFFFFFFFFFF000
0003FFFFFFFFFFFFFFFFFFFFFFFFFFFFF800
0007FFFFFFFFFFFFFFFFFFFFFFFFFFFFFC00
000FFFFFFFFFFFFFFFFFFFFFFFFFFFFFFC00
001FFFFFFFFFFFFFFFFFFFFFFFFFFFFFFE00
003FFFFFFFFFFFFFFFFFFFFFFFFFFFFFFF00
007FFFFFFFFFFFFFFFFFFFFFFFFFFFFFFF00
007FFFFFFFFFFFFFFFFFFFFFFFFFFFFFFF80
00FFFFFFFFFFFFFFFFFFFFFFFFFFFFFFFFC0
01FFFFFFFFFFFFFFFFFFFFFFFFFFFFFFFFC0
03FFFFFFFFFFFFFFFFFFFFFFFFFFFFFFFFE0
03FFFFFFFFFFFFFFFFFFFFFFFFFFFFFFFFE0
07FFFFFFFFFFFFFFFFFFFFFFFFFFFFFFFFE0
07FFFFFFFFFFFFFFFFFFFFFFFFFFFFFFFFF0
0FFFFFFFFFFFFFFFFFFFFFFFFFFFFFFFFFF0
0FFFFFFFFFFFFFFFFFFFFFFFFFFFFFFFFFF0
1FFFFFFFFFFFFFFFFFFFFFFFFFFFFFFFFFF0
1FFFFFFFFFFFFFFFFFFFFFFFFFFFFFFFFFF8
3FFFFFFFFC000000000000000000FFFFFFF8
3FFFFFFFE00000000000000000003FFFFFF8
3FFFFFFF800000000000000000003FFFFFF8
7FFFFFFF000000000000000000001FFFFFF8
7FFFFFFC000000000000000000001FFFFFF8
7FFFFFFC000000000000000000001FFFFFF8
7FFFFFF8000000000000000000001FFFFFF8
7FFFFFF0000000000000000000001FFFFFF8
FFFFFFF0000000000000000000001FFFFFF8
FFFFFFE0000000000000000000000FFFFFF0
FFFFFFE0000000000000000000000FFFFFF0
FFFFFFC0000000000000000000000FFFFFE0
FFFFFFC00000000000000000000007FFFFE0
FFFFFFC00000000000000000000003FFFFC0
FFFFFFC00000000000000000000001FFFF80
FFFFFFC00000000000000000000000FFFF00
FFFFFFC000000000000000000000007FFE00
FFFFFFC000000000000000000000001FF800
FFFFFFC00000000000000000000000000000
FFFFFFC00000000000000000000000000000
FFFFFFC00000000000000000000000000000
FFFFFFC00000000000000000000000000000
FFFFFFC00000000000000000000000000000
FFFFFFFFFFFFFFFFFFFFFFFFFFC000000000
FFFFFFFFFFFFFFFFFFFFFFFFFFFC00000000
FFFFFFFFFFFFFFFFFFFFFFFFFFFFC0000000
FFFFFFFFFFFFFFFFFFFFFFFFFFFFF0000000
FFFFFFFFFFFFFFFFFFFFFFFFFFFFFC000000
FFFFFFFFFFFFFFFFFFFFFFFFFFFFFF000000
FFFFFFFFFFFFFFFFFFFFFFFFFFFFFF800000
FFFFFFFFFFFFFFFFFFFFFFFFFFFFFFE00000
FFFFFFFFFFFFFFFFFFFFFFFFFFFFFFF00000
FFFFFFFFFFFFFFFFFFFFFFFFFFFFFFFC0000
FFFFFFFFFFFFFFFFFFFFFFFFFFFFFFFE0000
FFFFFFFFFFFFFFFFFFFFFFFFFFFFFFFF0000
FFFFFFFFFFFFFFFFFFFFFFFFFFFFFFFF8000
FFFFFFFFFFFFFFFFFFFFFFFFFFFFFFFFC000
FFFFFFFFFFFFFFFFFFFFFFFFFFFFFFFFE000
FFFFFFFFFFFFFFFFFFFFFFFFFFFFFFFFF000
FFFFFFFFFFFFFFFFFFFFFFFFFFFFFFFFF000
FFFFFFFFFFFFFFFFFFFFFFFFFFFFFFFFF800
FFFFFFFFFFFFFFFFFFFFFFFFFFFFFFFFFC00
FFFFFFFFFFFFFFFFFFFFFFFFFFFFFFFFFC00
FFFFFFFFFFFFFFFFFFFFFFFFFFFFFFFFFE00
FFFFFFFFFFFFFFFFFFFFFFFFFFFFFFFFFF00
FFFFFFFFFFFFFFFFFFFFFFFFFFFFFFFFFF00
FFFFFFFFFFFFFFFFFFFFFFFFFFFFFFFFFF80
FFFFFFFFFFFFFFFFFFFFFFFFFFFFFFFFFF80
FFFFFFFFFFFFFFFFFFFFFFFFFFFFFFFFFFC0
FFFFFFC0000000000000000001FFFFFFFFC0
FFFFFFC00000000000000000003FFFFFFFC0
FFFFFFC00000000000000000000FFFFFFFE0
FFFFFFC000000000000000000007FFFFFFE0
FFFFFFC000000000000000000003FFFFFFE0
FFFFFFC000000000000000000001FFFFFFF0
FFFFFFC000000000000000000000FFFFFFF0
FFFFFFC0000000000000000000007FFFFFF0
FFFFFFC0000000000000000000007FFFFFF0
FFFFFFC0000000000000000000003FFFFFF0
FFFFFFC0000000000000000000003FFFFFF8
FFFFFFC0000000000000000000003FFFFFF8
FFFFFFC0000000000000000000001FFFFFF8
FFFFFFC0000000000000000000001FFFFFF8
FFFFFFC0000000000000000000001FFFFFF8
FFFFFFC0000000000000000000001FFFFFF8
FFFFFFC0000000000000000000001FFFFFF8
FFFFFFC0000000000000000000001FFFFFF8
FFFFFFC0000000000000000000001FFFFFF8
FFFFFFC0000000000000000000003FFFFFF8
FFFFFFE0000000000000000000003FFFFFF8
FFFFFFE0000000000000000000003FFFFFF8
FFFFFFF0000000000000000000007FFFFFF8
7FFFFFF0000000000000000000007FFFFFF0
7FFFFFF800000000000000000000FFFFFFF0
7FFFFFFC00000000000000000001FFFFFFF0
7FFFFFFE00000000000000000003FFFFFFF0
7FFFFFFF00000000000000000007FFFFFFF0
3FFFFFFF8000000000000000000FFFFFFFE0
3FFFFFFFE000000000000000003FFFFFFFE0
3FFFFFFFFC0000000000000001FFFFFFFFE0
1FFFFFFFFFFFFFFFFFFFFFFFFFFFFFFFFFC0
1FFFFFFFFFFFFFFFFFFFFFFFFFFFFFFFFFC0
0FFFFFFFFFFFFFFFFFFFFFFFFFFFFFFFFF80
0FFFFFFFFFFFFFFFFFFFFFFFFFFFFFFFFF80
07FFFFFFFFFFFFFFFFFFFFFFFFFFFFFFFF00
07FFFFFFFFFFFFFFFFFFFFFFFFFFFFFFFF00
03FFFFFFFFFFFFFFFFFFFFFFFFFFFFFFFE00
03FFFFFFFFFFFFFFFFFFFFFFFFFFFFFFFE00
01FFFFFFFFFFFFFFFFFFFFFFFFFFFFFFFC00
00FFFFFFFFFFFFFFFFFFFFFFFFFFFFFFF800
007FFFFFFFFFFFFFFFFFFFFFFFFFFFFFF800
007FFFFFFFFFFFFFFFFFFFFFFFFFFFFFF000
003FFFFFFFFFFFFFFFFFFFFFFFFFFFFFE000
001FFFFFFFFFFFFFFFFFFFFFFFFFFFFFC000
000FFFFFFFFFFFFFFFFFFFFFFFFFFFFF8000
0007FFFFFFFFFFFFFFFFFFFFFFFFFFFF0000
0003FFFFFFFFFFFFFFFFFFFFFFFFFFFE0000
0001FFFFFFFFFFFFFFFFFFFFFFFFFFFC0000
00007FFFFFFFFFFFFFFFFFFFFFFFFFF80000
00003FFFFFFFFFFFFFFFFFFFFFFFFFE00000
00001FFFFFFFFFFFFFFFFFFFFFFFFFC00000
000007FFFFFFFFFFFFFFFFFFFFFFFF000000
000001FFFFFFFFFFFFFFFFFFFFFFFC000000
0000007FFFFFFFFFFFFFFFFFFFFFF0000000
0000001FFFFFFFFFFFFFFFFFFFFFC0000000
00000003FFFFFFFFFFFFFFFFFFFE00000000
000000001FFFFFFFFFFFFFFFFFC000000000
ENDCHAR
STARTCHAR 0037
ENCODING 55
SWIDTH 888 0
DWIDTH 160 0
BBX 143 136 0 -2
BITMAP
0000003FFFFFFFFFFFFFFFFFFFE000000000
000003FFFFFFFFFFFFFFFFFFFFFF00000000
00001FFFFFFFFFFFFFFFFFFFFFFFE0000000
00007FFFFFFFFFFFFFFFFFFFFFFFFC000000
0001FFFFFFFFFFFFFFFFFFFFFFFFFF000000
0003FFFFFFFFFFFFFFFFFFFFFFFFFF800000
000FFFFFFFFFFFFFFFFFFFFFFFFFFFE00000
001FFFFFFFFFFFFFFFFFFFFFFFFFFFF80000
003FFFFFFFFFFFFFFFFFFFFFFFFFFFFC0000
007FFFFFFFFFFFFFFFFFFFFFFFFFFFFE0000
00FFFFFFFFFFFFFFFFFFFFFFFFFFFFFF0000
01FFFFFFFFFFFFFFFFFFFFFFFFFFFFFF8000
03FFFFFFFFFFFFFFFFFFFFFFFFFFFFFFC000
03FFFFFFFFFFFFFFFFFFFFFFFFFFFFFFE000
07FFFFFFFFFFFFFFFFFFFFFFFFFFFFFFF000
0FFFFFFFFFFFFFFFFFFFFFFFFFFFFFFFF800
0FFFFFFFFFFFFFFFFFFFFFFFFFFFFFFFFC00
1FFFFFFFFFFFFFFFFFFFFFFFFFFFFFFFFE00
1FFFFFFFFFFFFFFFFFFFFFFFFFFFFFFFFE00
3FFFFFFFFFFFFFFFFFFFFFFFFFFFFFFFFF00
3FFFFFFFFFFFFFFFFFFFFFFFFFFFFFFFFF80
3FFFFFFFFFFFFFFFFFFFFFFFFFFFFFFFFF80
7FFFFFFFFFFFFFFFFFFFFFFFFFFFFFFFFFC0
7FFFFFFFFFFFFFFFFFFFFFFFFFFFFFFFFFC0
7FFFFFFFFFFFFFFFFFFFFFFFFFFFFFFFFFE0
FFFFFFFFFFFFFFFFFFFFFFFFFFFFFFFFFFE0
FFFFFFFFFFFFFFFFFFFFFFFFFFFFFFFFFFF0
FFFFFFF8000000000000000000FFFFFFFFF0
FFFFFFF00000000000000000001FFFFFFFF8
FFFFFFE000000000000000000007FFFFFFF8
FFFFFFE000000000000000000003FFFFFFF8
FFFFFFE000000000000000000001FFFFFFF8
FFFFFFE000000000000000000000FFFFFFFC
FFFFFFE0000000000000000000007FFFFFFC
FFFFFFE0000000000000000000007FFFFFFC
FFFFFFC0000000000000000000003FFFFFFC
FFFFFFC0000000000000000000003FFFFFFC
7FFFFFC0000000000000000000001FFFFFFE
7FFFFF80000000000000000000001FFFFFFE
3FFFFF80000000000000000000001FFFFFFE
1FFFFF00000000000000000000000FFFFFFE
0FFFFE00000000000000000000000FFFFFFE
07FFFC00000000000000000000000FFFFFFE
03FFF000000000000000000000000FFFFFFE
00FFE000000000000000000000000FFFFFFE
00040000000000000000000000000FFFFFFE
00000000000000000000000000001FFFFFFE
00000000000000000000000000001FFFFFFE
00000000000000000000000000001FFFFFFC
00000000000000000000000000003FFFFFFC
00000000000000000000000000003FFFFFFC
00000000000000000000000000007FFFFFFC
0000000000000000000000000000FFFFFFFC
0000000000000000000000000000FFFFFFF8
0000000000000000000000000001FFFFFFF8
0000000000000000000000000003FFFFFFF8
0000000000000000000000000007FFFFFFF0
000000000000000000000000000FFFFFFFF0
000000000000000000000000000FFFFFFFF0
000000000000000000000000001FFFFFFFE0
000000000000000000000000003FFFFFFFE0
000000000000000000000000007FFFFFFFC0
00000000000000000000000000FFFFFFFFC0
00000000000000000000000001FFFFFFFF80
00000000000000000000000001FFFFFFFF80
00000000000000000000000003FFFFFFFF00
00000000000000000000000007FFFFFFFE00
0000000000000000000000000FFFFFFFFE00
0000000000000000000000001FFFFFFFFC00
0000000000000000000000003FFFFFFFF800
0000000000000000000000003FFFFFFFF000
0000000000000000000000007FFFFFFFF000
000000000000000000000000FFFFFFFFE000
000000000000000000000001FFFFFFFFC000
000000000000000000000003FFFFFFFF8000
000000000000000000000007FFFFFFFF0000
000000000000000000000007FFFFFFFE0000
00000000000000000000000FFFFFFFFE0000
00000000000000000000001FFFFFFFFC0000
00000000000000000000003FFFFFFFF80000
00000000000000000000007FFFFFFFF00000
0000000000000000000000FFFFFFFFE00000
0000000000000000000001FFFFFFFFC00000
0000000000000000000001FFFFFFFF800000
0000000000000000000003FFFFFFFF800000
0000000000000000000007FFFFFFFF000000
000000000000000000000FFFFFFFFE000000
000000000000000000001FFFFFFFFC000000
000000000000000000003FFFFFFFF8000000
000000000000000000003FFFFFFFF0000000
000000000000000000007FFFFFFFF0000000
00000000000000000000FFFFFFFFE0000000
00000000000000000001FFFFFFFFC0000000
00000000000000000003FFFFFFFF80000000
00000000000000000007FFFFFFFF00000000
00000000000000000007FFFFFFFE00000000
0000000000000000000FFFFFFFFE00000000
0000000000000000001FFFFFFFFC00000000
0000000000000000003FFFFFFFF800000000
0000000000000000007FFFFFFFF000000000
000000000000000000FFFFFFFFE000000000
000000000000000000FFFFFFFFC000000000
000000000000000001FFFFFFFFC000000000
000000000000000003FFFFFFFF8000000000
000000000000000007FFFFFFFF0000000000
00000000000000000FFFFFFFFE0000000000
00000000000000001FFFFFFFFC0000000000
00000000000000001FFFFFFFF80000000000
00000000000000003FFFFFFFF80000000000
00000000000000007FFFFFFFF00000000000
0000000000000000FFFFFFFFE00000000000
0000000000000001FFFFFFFFC00000000000
0000000000000003FFFFFFFF800000000000
0000000000000003FFFFFFFF000000000000
0000000000000007FFFFFFFF000000000000
000000000000000FFFFFFFFE000000000000
000000000000000FFFFFFFFC000000000000
000000000000001FFFFFFFF8000000000000
000000000000001FFFFFFFF0000000000000
000000000000003FFFFFFFE0000000000000
000000000000003FFFFFFFE0000000000000
000000000000003FFFFFFFC0000000000000
000000000000003FFFFFFF80000000000000
000000000000003FFFFFFF00000000000000
000000000000003FFFFFFE00000000000000
000000000000003FFFFFFC00000000000000
000000000000001FFFFFFC00000000000000
000000000000001FFFFFF800000000000000
000000000000001FFFFFF000000000000000
000000000000000FFFFFE000000000000000
0000000000000007FFFFC000000000000000
0000000000000003FFFF8000000000000000
0000000000000001FFFF0000000000000000
0000000000000000FFFE0000000000000000
00000000000000007FFC0000000000000000
00000000000000000FE00000000000000000
ENDCHAR
STARTCHAR 0038
ENCODING 56
SWIDTH 888 0
DWIDTH 160 0
BBX 141 134 0 0
BITMAP
000000000FFFFFFFFFFFFFFFFF8000000000
00000001FFFFFFFFFFFFFFFFFFFC00000000
0000000FFFFFFFFFFFFFFFFFFFFF80000000
0000003FFFFFFFFFFFFFFFFFFFFFE0000000
000000FFFFFFFFFFFFFFFFFFFFFFF8000000
000003FFFFFFFFFFFFFFFFFFFFFFFE000000
000007FFFFFFFFFFFFFFFFFFFFFFFF000000
00001FFFFFFFFFFFFFFFFFFFFFFFFFC00000
00003FFFFFFFFFFFFFFFFFFFFFFFFFE00000
00007FFFFFFFFFFFFFFFFFFFFFFFFFF00000
0000FFFFFFFFFFFFFFFFFFFFFFFFFFF80000
0001FFFFFFFFFFFFFFFFFFFFFFFFFFFC0000
0003FFFFFFFFFFFFFFFFFFFFFFFFFFFE0000
0007FFFFFFFFFFFFFFFFFFFFFFFFFFFF0000
000FFFFFFFFFFFFFFFFFFFFFFFFFFFFF8000
001FFFFFFFFFFFFFFFFFFFFFFFFFFFFF8000
001FFFFFFFFFFFFFFFFFFFFFFFFFFFFFC000
003FFFFFFFFFFFFFFFFFFFFFFFFFFFFFE000
007FFFFFFFFFFFFFFFFFFFFFFFFFFFFFE000
007FFFFFFFFFFFFFFFFFFFFFFFFFFFFFF000
00FFFFFFFFFFFFFFFFFFFFFFFFFFFFFFF800
00FFFFFFFFFFFFFFFFFFFFFFFFFFFFFFF800
01FFFFFFFFFFFFFFFFFFFFFFFFFFFFFFFC00
01FFFFFFFFFFFFFFFFFFFFFFFFFFFFFFFC00
03FFFFFFFFFFFFFFFFFFFFFFFFFFFFFFFE00
03FFFFFFFFFFFFFFFFFFFFFFFFFFFFFFFE00
03FFFFFFFFFFFFFFFFFFFFFFFFFFFFFFFE00
07FFFFFFFC0000000000000001FFFFFFFF00
07FFFFFFF000000000000000007FFFFFFF00
07FFFFFFC000000000000000001FFFFFFF00
07FFFFFF8000000000000000000FFFFFFF00
07FFFFFF00000000000000000007FFFFFF00
0FFFFFFF00000000000000000007FFFFFF80
0FFFFFFE00000000000000000003FFFFFF80
0FFFFFFE00000000000000000003FFFFFF80
0FFFFFFC00000000000000000001FFFFFF80
0FFFFFFC00000000000000000001FFFFFF80
0FFFFFFC00000000000000000001FFFFFF80
0FFFFFFC00000000000000000001FFFFFF80
0FFFFFFC00000000000000000001FFFFFF80
0FFFFFFC00000000000000000001FFFFFF80
0FFFFFFC00000000000000000001FFFFFF80
0FFFFFFE00000000000000000003FFFFFF80
0FFFFFFE00000000000000000003FFFFFF80
0FFFFFFF00000000000000000007FFFFFF00
07FFFFFF00000000000000000007FFFFFF00
07FFFFFF8000000000000000000FFFFFFF00
07FFFFFFC000000000000000001FFFFFFF00
07FFFFFFF000000000000000007FFFFFFF00
03FFFFFFFC0000000000000001FFFFFFFE00
03FFFFFFFFFFFFFFFFFFFFFFFFFFFFFFFE00
03FFFFFFFFFFFFFFFFFFFFFFFFFFFFFFFE00
01FFFFFFFFFFFFFFFFFFFFFFFFFFFFFFFC00
01FFFFFFFFFFFFFFFFFFFFFFFFFFFFFFFC00
01FFFFFFFFFFFFFFFFFFFFFFFFFFFFFFF800
00FFFFFFFFFFFFFFFFFFFFFFFFFFFFFFF800
00FFFFFFFFFFFFFFFFFFFFFFFFFFFFFFF000
007FFFFFFFFFFFFFFFFFFFFFFFFFFFFFF000
003FFFFFFFFFFFFFFFFFFFFFFFFFFFFFE000
003FFFFFFFFFFFFFFFFFFFFFFFFFFFFFC000
001FFFFFFFFFFFFFFFFFFFFFFFFFFFFFC000
000FFFFFFFFFFFFFFFFFFFFFFFFFFFFF8000
000FFFFFFFFFFFFFFFFFFFFFFFFFFFFF0000
001FFFFFFFFFFFFFFFFFFFFFFFFFFFFF8000
003FFFFFFFFFFFFFFFFFFFFFFFFFFFFFC000
007FFFFFFFFFFFFFFFFFFFFFFFFFFFFFE000
007FFFFFFFFFFFFFFFFFFFFFFFFFFFFFF000
00FFFFFFFFFFFFFFFFFFFFFFFFFFFFFFF800
01FFFFFFFFFFFFFFFFFFFFFFFFFFFFFFFC00
03FFFFFFFFFFFFFFFFFFFFFFFFFFFFFFFC00
03FFFFFFFFFFFFFFFFFFFFFFFFFFFFFFFE00
07FFFFFFFFFFFFFFFFFFFFFFFFFFFFFFFF00
07FFFFFFFFFFFFFFFFFFFFFFFFFFFFFFFF00
0FFFFFFFFFFFFFFFFFFFFFFFFFFFFFFFFF80
0FFFFFFFFFFFFFFFFFFFFFFFFFFFFFFFFF80
1FFFFFFFFFFFFFFFFFFFFFFFFFFFFFFFFFC0
1FFFFFFFFC0000000000000001FFFFFFFFC0
3FFFFFFFE000000000000000003FFFFFFFC0
3FFFFFFF8000000000000000001FFFFFFFE0
3FFFFFFF00000000000000000007FFFFFFE0
7FFFFFFE00000000000000000003FFFFFFE0
7FFFFFFC00000000000000000001FFFFFFF0
7FFFFFF800000000000000000000FFFFFFF0
7FFFFFF0000000000000000000007FFFFFF0
7FFFFFF0000000000000000000007FFFFFF0
FFFFFFE0000000000000000000003FFFFFF8
FFFFFFE0000000000000000000003FFFFFF8
FFFFFFC0000000000000000000003FFFFFF8
FFFFFFC0000000000000000000001FFFFFF8
FFFFFFC0000000000000000000001FFFFFF8
FFFFFFC0000000000000000000001FFFFFF8
FFFFFFC0000000000000000000001FFFFFF8
FFFFFFC0000000000000000000001FFFFFF8
FFFFFFC0000000000000000000001FFFFFF8
FFFFFFC0000000000000000000001FFFFFF8
FFFFFFC0000000000000000000003FFFFFF8
FFFFFFE0000000000000000000003FFFFFF8
FFFFFFE0000000000000000000003FFFFFF8
FFFFFFF0000000000000000000007FFFFFF8
7FFFFFF0000000000000000000007FFFFFF0
7FFFFFF800000000000000000000FFFFFFF0
7FFFFFFC00000000000000000001FFFFFFF0
7FFFFFFE00000000000000000003FFFFFFF0
7FFFFFFF00000000000000000007FFFFFFE0
3FFFFFFF8000000000000000000FFFFFFFE0
3FFFFFFFE000000000000000003FFFFFFFE0
3FFFFFFFFC0000000000000001FFFFFFFFE0
1FFFFFFFFFFFFFFFFFFFFFFFFFFFFFFFFFC0
1FFFFFFFFFFFFFFFFFFFFFFFFFFFFFFFFFC0
0FFFFFFFFFFFFFFFFFFFFFFFFFFFFFFFFF80
0FFFFFFFFFFFFFFFFFFFFFFFFFFFFFFFFF80
07FFFFFFFFFFFFFFFFFFFFFFFFFFFFFFFF00
07FFFFFFFFFFFFFFFFFFFFFFFFFFFFFFFF00
03FFFFFFFFFFFFFFFFFFFFFFFFFFFFFFFE00
03FFFFFFFFFFFFFFFFFFFFFFFFFFFFFFFE00
01FFFFFFFFFFFFFFFFFFFFFFFFFFFFFFFC00
00FFFFFFFFFFFFFFFFFFFFFFFFFFFFFFF800
007FFFFFFFFFFFFFFFFFFFFFFFFFFFFFF000
007FFFFFFFFFFFFFFFFFFFFFFFFFFFFFF000
003FFFFFFFFFFFFFFFFFFFFFFFFFFFFFE000
001FFFFFFFFFFFFFFFFFFFFFFFFFFFFFC000
000FFFFFFFFFFFFFFFFFFFFFFFFFFFFF8000
0007FFFFFFFFFFFFFFFFFFFFFFFFFFFF0000
0003FFFFFFFFFFFFFFFFFFFFFFFFFFFE0000
0001FFFFFFFFFFFFFFFFFFFFFFFFFFFC0000
00007FFFFFFFFFFFFFFFFFFFFFFFFFF00000
00003FFFFFFFFFFFFFFFFFFFFFFFFFE00000
00001FFFFFFFFFFFFFFFFFFFFFFFFFC00000
000007FFFFFFFFFFFFFFFFFFFFFFFF000000
000001FFFFFFFFFFFFFFFFFFFFFFFC000000
0000007FFFFFFFFFFFFFFFFFFFFFF0000000
0000001FFFFFFFFFFFFFFFFFFFFFC0000000
00000003FFFFFFFFFFFFFFFFFFFE00000000
000000001FFFFFFFFFFFFFFFFFC000000000
ENDCHAR
STARTCHAR 0039
ENCODING 57
SWIDTH 888 0
DWIDTH 160 0
BBX 141 134 0 0
BITMAP
000000001FFFFFFFFFFFFFFFFFC000000000
00000001FFFFFFFFFFFFFFFFFFFE00000000
0000001FFFFFFFFFFFFFFFFFFFFFC0000000
0000007FFFFFFFFFFFFFFFFFFFFFF0000000
000001FFFFFFFFFFFFFFFFFFFFFFFC000000
000007FFFFFFFFFFFFFFFFFFFFFFFF000000
00001FFFFFFFFFFFFFFFFFFFFFFFFFC00000
00003FFFFFFFFFFFFFFFFFFFFFFFFFE00000
0000FFFFFFFFFFFFFFFFFFFFFFFFFFF80000
0001FFFFFFFFFFFFFFFFFFFFFFFFFFFC0000
0003FFFFFFFFFFFFFFFFFFFFFFFFFFFE0000
0007FFFFFFFFFFFFFFFFFFFFFFFFFFFF0000
000FFFFFFFFFFFFFFFFFFFFFFFFFFFFF8000
001FFFFFFFFFFFFFFFFFFFFFFFFFFFFFC000
003FFFFFFFFFFFFFFFFFFFFFFFFFFFFFE000
007FFFFFFFFFFFFFFFFFFFFFFFFFFFFFF000
00FFFFFFFFFFFFFFFFFFFFFFFFFFFFFFF000
00FFFFFFFFFFFFFFFFFFFFFFFFFFFFFFF800
01FFFFFFFFFFFFFFFFFFFFFFFFFFFFFFFC00
03FFFFFFFFFFFFFFFFFFFFFFFFFFFFFFFE00
03FFFFFFFFFFFFFFFFFFFFFFFFFFFFFFFE00
07FFFFFFFFFFFFFFFFFFFFFFFFFFFFFFFF00
07FFFFFFFFFFFFFFFFFFFFFFFFFFFFFFFF00
0FFFFFFFFFFFFFFFFFFFFFFFFFFFFFFFFF80
0FFFFFFFFFFFFFFFFFFFFFFFFFFFFFFFFF80
1FFFFFFFFFFFFFFFFFFFFFFFFFFFFFFFFFC0
1FFFFFFFFFFFFFFFFFFFFFFFFFFFFFFFFFC0
3FFFFFFFFC0000000000000001FFFFFFFFC0
3FFFFFFFE000000000000000003FFFFFFFE0
3FFFFFFF8000000000000000000FFFFFFFE0
7FFFFFFF00000000000000000007FFFFFFE0
7FFFFFFE00000000000000000003FFFFFFF0
7FFFFFFC00000000000000000001FFFFFFF0
7FFFFFF800000000000000000000FFFFFFF0
7FFFFFF0000000000000000000007FFFFFF0
FFFFFFF0000000000000000000007FFFFFF0
FFFFFFE0000000000000000000003FFFFFF8
FFFFFFE0000000000000000000003FFFFFF8
FFFFFFE0000000000000000000003FFFFFF8
FFFFFFC0000000000000000000001FFFFFF8
FFFFFFC0000000000000000000001FFFFFF8
FFFFFFC0000000000000000000001FFFFFF8
FFFFFFC0000000000000000000001FFFFFF8
FFFFFFC0000000000000000000001FFFFFF8
FFFFFFC0000000000000000000001FFFFFF8
FFFFFFC0000000000000000000001FFFFFF8
FFFFFFC0000000000000000000001FFFFFF8
FFFFFFE0000000000000000000001FFFFFF8
FFFFFFE0000000000000000000001FFFFFF8
7FFFFFF0000000000000000000001FFFFFF8
7FFFFFF0000000000000000000001FFFFFF8
7FFFFFF8000000000000000000001FFFFFF8
7FFFFFFC000000000000000000001FFFFFF8
7FFFFFFE000000000000000000001FFFFFF8
3FFFFFFF000000000000000000001FFFFFF8
3FFFFFFF800000000000000000001FFFFFF8
3FFFFFFFE00000000000000000001FFFFFF8
1FFFFFFFFC0000000000000000001FFFFFF8
1FFFFFFFFFFFFFFFFFFFFFFFFFFFFFFFFFF8
0FFFFFFFFFFFFFFFFFFFFFFFFFFFFFFFFFF8
0FFFFFFFFFFFFFFFFFFFFFFFFFFFFFFFFFF8
07FFFFFFFFFFFFFFFFFFFFFFFFFFFFFFFFF8
07FFFFFFFFFFFFFFFFFFFFFFFFFFFFFFFFF8
03FFFFFFFFFFFFFFFFFFFFFFFFFFFFFFFFF8
03FFFFFFFFFFFFFFFFFFFFFFFFFFFFFFFFF8
01FFFFFFFFFFFFFFFFFFFFFFFFFFFFFFFFF8
00FFFFFFFFFFFFFFFFFFFFFFFFFFFFFFFFF8
007FFFFFFFFFFFFFFFFFFFFFFFFFFFFFFFF8
007FFFFFFFFFFFFFFFFFFFFFFFFFFFFFFFF8
003FFFFFFFFFFFFFFFFFFFFFFFFFFFFFFFF8
001FFFFFFFFFFFFFFFFFFFFFFFFFFFFFFFF8
000FFFFFFFFFFFFFFFFFFFFFFFFFFFFFFFF8
0007FFFFFFFFFFFFFFFFFFFFFFFFFFFFFFF8
0003FFFFFFFFFFFFFFFFFFFFFFFFFFFFFFF8
0001FFFFFFFFFFFFFFFFFFFFFFFFFFFFFFF8
00007FFFFFFFFFFFFFFFFFFFFFFFFFFFFFF8
00003FFFFFFFFFFFFFFFFFFFFFFFFFFFFFF8
00001FFFFFFFFFFFFFFFFFFFFFFFFFFFFFF8
000007FFFFFFFFFFFFFFFFFFFFFFFFFFFFF8
000001FFFFFFFFFFFFFFFFFFFFFFFFFFFFF8
0000007FFFFFFFFFFFFFFFFFFFFFFFFFFFF8
0000001FFFFFFFFFFFFFFFFFFFFFFFFFFFF8
00000003FFFFFFFFFFFFFFFFFFFFFFFFFFF8
000000001FFFFFFFFFFFFFFFFFFFFFFFFFF8
00000000000000000000000000001FFFFFF8
00000000000000000000000000001FFFFFF8
00000000000000000000000000001FFFFFF8
00000000000000000000000000001FFFFFF8
00000000000000000000000000001FFFFFF8
000E0000000000000000000000001FFFFFF8
00FFC000000000000000000000001FFFFFF8
03FFF000000000000000000000001FFFFFF8
07FFFC00000000000000000000001FFFFFF8
0FFFFE00000000000000000000001FFFFFF8
1FFFFE00000000000000000000001FFFFFF8
3FFFFF00000000000000000000001FFFFFF8
7FFFFF80000000000000000000003FFFFFF8
7FFFFF80000000000000000000003FFFFFF8
7FFFFF80000000000000000000007FFFFFF8
FFFFFFC0000000000000000000007FFFFFF0
FFFFFFC000000000000000000000FFFFFFF0
FFFFFFC000000000000000000001FFFFFFF0
FFFFFFC000000000000000000001FFFFFFF0
FFFFFFC000000000000000000007FFFFFFE0
FFFFFFC00000000000000000000FFFFFFFE0
FFFFFFE00000000000000000003FFFFFFFE0
FFFFFFF8000000000000000000FFFFFFFFE0
FFFFFFFFFFFFFFFFFFFFFFFFFFFFFFFFFFC0
FFFFFFFFFFFFFFFFFFFFFFFFFFFFFFFFFFC0
7FFFFFFFFFFFFFFFFFFFFFFFFFFFFFFFFF80
7FFFFFFFFFFFFFFFFFFFFFFFFFFFFFFFFF80
7FFFFFFFFFFFFFFFFFFFFFFFFFFFFFFFFF00
7FFFFFFFFFFFFFFFFFFFFFFFFFFFFFFFFF00
3FFFFFFFFFFFFFFFFFFFFFFFFFFFFFFFFE00
3FFFFFFFFFFFFFFFFFFFFFFFFFFFFFFFFE00
1FFFFFFFFFFFFFFFFFFFFFFFFFFFFFFFFC00
1FFFFFFFFFFFFFFFFFFFFFFFFFFFFFFFF800
0FFFFFFFFFFFFFFFFFFFFFFFFFFFFFFFF000
0FFFFFFFFFFFFFFFFFFFFFFFFFFFFFFFF000
07FFFFFFFFFFFFFFFFFFFFFFFFFFFFFFE000
07FFFFFFFFFFFFFFFFFFFFFFFFFFFFFFC000
03FFFFFFFFFFFFFFFFFFFFFFFFFFFFFF8000
01FFFFFFFFFFFFFFFFFFFFFFFFFFFFFF0000
00FFFFFFFFFFFFFFFFFFFFFFFFFFFFFE0000
007FFFFFFFFFFFFFFFFFFFFFFFFFFFFC0000
003FFFFFFFFFFFFFFFFFFFFFFFFFFFF00000
001FFFFFFFFFFFFFFFFFFFFFFFFFFFE00000
000FFFFFFFFFFFFFFFFFFFFFFFFFFFC00000
0003FFFFFFFFFFFFFFFFFFFFFFFFFF000000
0001FFFFFFFFFFFFFFFFFFFFFFFFFC000000
00007FFFFFFFFFFFFFFFFFFFFFFFF0000000
00001FFFFFFFFFFFFFFFFFFFFFFFC0000000
000003FFFFFFFFFFFFFFFFFFFFFE00000000
0000003FFFFFFFFFFFFFFFFFFFC000000000
ENDCHAR
STARTCHAR 003A
ENCODING 58
SWIDTH 250 0
DWIDTH 45 0
BBX 27 103 0 -2
BITMAP
003F8000
01FFF000
03FFF800
0FFFFC00
0FFFFE00
1FFFFF00
3FFFFF80
7FFFFFC0
7FFFFFC0
7FFFFFC0
FFFFFFE0
FFFFFFE0
FFFFFFE0
FFFFFFE0
FFFFFFE0
FFFFFFE0
FFFFFFE0
FFFFFFE0
FFFFFFE0
FFFFFFE0
7FFFFFC0
7FFFFFC0
7FFFFFC0
3FFFFF80
1FFFFF00
1FFFFF00
0FFFFE00
03FFF800
01FFF000
003F8000
00000000
00000000
00000000
00000000
00000000
00000000
00000000
00000000
00000000
00000000
00000000
00000000
00000000
00000000
00000000
00000000
00000000
00000000
00000000
00000000
00000000
00000000
00000000
00000000
00000000
00000000
00000000
00000000
00000000
00000000
00000000
00000000
00000000
00000000
00000000
00000000
00000000
00000000
00000000
00000000
00000000
00000000
00000000
003F8000
01FFF000
03FFF800
0FFFFC00
0FFFFE00
1FFFFF00
3FFFFF80
7FFFFFC0
7FFFFFC0
7FFFFFC0
FFFFFFE0
FFFFFFE0
FFFFFFE0
FFFFFFE0
FFFFFFE0
FFFFFFE0
FFFFFFE0
FFFFFFE0
FFFFFFE0
FFFFFFE0
7FFFFFC0
7FFFFFC0
7FFFFFC0
3FFFFF80
1FFFFF00
1FFFFF00
0FFFFE00
03FFF800
01FFF000
003F8000
ENDCHAR
STARTCHAR 003B
ENCODING 59
SWIDTH 250 0
DWIDTH 45 0
BBX 31 115 0 -14
BITMAP
0003F800
001FFF00
003FFF80
007FFFC0
00FFFFE0
01FFFFF0
03FFFFF8
07FFFFFC
07FFFFFC
07FFFFFC
0FFFFFFE
0FFFFFFE
0FFFFFFE
0FFFFFFE
0FFFFFFE
0FFFFFFE
0FFFFFFE
0FFFFFFE
0FFFFFFE
0FFFFFFE
07FFFFFC
07FFFFFC
07FFFFFC
03FFFFF8
01FFFFF0
01FFFFF0
00FFFFE0
003FFF80
001FFF00
0003F800
00000000
00000000
00000000
00000000
00000000
00000000
00000000
00000000
00000000
00000000
00000000
00000000
00000000
00000000
00000000
00000000
00000000
00000000
00000000
00000000
00000000
00000000
00000000
00000000
00000000
00000000
00000000
00000000
00000000
00000000
00000000
00000000
00000000
00000000
00000000
00000000
00000000
00000000
00000000
00000000
00000000
00000000
0003F800
000FFF00
003FFF80
007FFFE0
00FFFFF0
01FFFFF8
03FFFFF8
03FFFFFC
07FFFFFC
07FFFFFE
07FFFFFE
0FFFFFFE
0FFFFFFE
0FFFFFFE
0FFFFFFE
1FFFFFFE
1FFFFFFE
1FFFFFFE
1FFFFFFC
3FFFFFFC
3FFFFFFC
3FFFFFFC
3FFFFFF8
7FFFFFF8
7FFFFFF8
7FFFFFF8
7FFFFFF0
FFFFFFF0
FFFFFFF0
FFFFFFF0
FFFFFFE0
FFFFFFE0
FFFFFFE0
7FFFFFE0
7FFFFFC0
7FFFFFC0
3FFFFF80
1FFFFF80
1FFFFF00
0FFFFE00
03FFF800
01FFF000
003F8000
ENDCHAR
STARTCHAR 003C
ENCODING 60
SWIDTH 283 0
DWIDTH 51 0
BBX 0 0 0 0
BITMAP
ENDCHAR
STARTCHAR 003D
ENCODING 61
SWIDTH 605 0
DWIDTH 109 0
BBX 0 0 0 0
BITMAP
ENDCHAR
STARTCHAR 003E
ENCODING 62
SWIDTH 283 0
DWIDTH 51 0
BBX 0 0 0 0
BITMAP
ENDCHAR
STARTCHAR 003F
ENCODING 63
SWIDTH 888 0
DWIDTH 160 0
BBX 143 136 0 -2
BITMAP
0000003FFFFFFFFFFFFFFFFFFFE000000000
000003FFFFFFFFFFFFFFFFFFFFFF00000000
00001FFFFFFFFFFFFFFFFFFFFFFFE0000000
00007FFFFFFFFFFFFFFFFFFFFFFFFC000000
0000FFFFFFFFFFFFFFFFFFFFFFFFFF000000
0003FFFFFFFFFFFFFFFFFFFFFFFFFF800000
0007FFFFFFFFFFFFFFFFFFFFFFFFFFE00000
001FFFFFFFFFFFFFFFFFFFFFFFFFFFF80000
003FFFFFFFFFFFFFFFFFFFFFFFFFFFFC0000
007FFFFFFFFFFFFFFFFFFFFFFFFFFFFE0000
00FFFFFFFFFFFFFFFFFFFFFFFFFFFFFF0000
01FFFFFFFFFFFFFFFFFFFFFFFFFFFFFF8000
01FFFFFFFFFFFFFFFFFFFFFFFFFFFFFFE000
03FFFFFFFFFFFFFFFFFFFFFFFFFFFFFFE000
07FFFFFFFFFFFFFFFFFFFFFFFFFFFFFFF000
07FFFFFFFFFFFFFFFFFFFFFFFFFFFFFFF800
0FFFFFFFFFFFFFFFFFFFFFFFFFFFFFFFFC00
1FFFFFFFFFFFFFFFFFFFFFFFFFFFFFFFFE00
1FFFFFFFFFFFFFFFFFFFFFFFFFFFFFFFFF00
3FFFFFFFFFFFFFFFFFFFFFFFFFFFFFFFFF00
3FFFFFFFFFFFFFFFFFFFFFFFFFFFFFFFFF80
3FFFFFFFFFFFFFFFFFFFFFFFFFFFFFFFFF80
7FFFFFFFFFFFFFFFFFFFFFFFFFFFFFFFFFC0
7FFFFFFFFFFFFFFFFFFFFFFFFFFFFFFFFFE0
7FFFFFFFFFFFFFFFFFFFFFFFFFFFFFFFFFE0
7FFFFFFFFFFFFFFFFFFFFFFFFFFFFFFFFFE0
FFFFFFFFFFFFFFFFFFFFFFFFFFFFFFFFFFF0
FFFFFFFC000000000000000000FFFFFFFFF0
FFFFFFF00000000000000000001FFFFFFFF8
FFFFFFF000000000000000000007FFFFFFF8
FFFFFFE000000000000000000003FFFFFFF8
FFFFFFE000000000000000000001FFFFFFFC
FFFFFFE000000000000000000000FFFFFFFC
FFFFFFE0000000000000000000007FFFFFFC
FFFFFFE0000000000000000000003FFFFFFC
FFFFFFE0000000000000000000003FFFFFFC
7FFFFFC0000000000000000000001FFFFFFE
7FFFFFC0000000000000000000001FFFFFFE
7FFFFF80000000000000000000001FFFFFFE
3FFFFF80000000000000000000000FFFFFFE
1FFFFF00000000000000000000000FFFFFFE
0FFFFE00000000000000000000000FFFFFFE
07FFFC00000000000000000000000FFFFFFE
03FFF800000000000000000000000FFFFFFE
00FFE000000000000000000000000FFFFFFE
00040000000000000000000000000FFFFFFE
00000000000000000000000000000FFFFFFE
00000000000000000000000000001FFFFFFE
00000000000000000000000000001FFFFFFE
00000000000000000000000000001FFFFFFE
00000000000000000000000000003FFFFFFC
00000000000000000000000000003FFFFFFC
00000000000000000000000000007FFFFFFC
0000000000000000000000000000FFFFFFFC
0000000000000000000000000001FFFFFFF8
0000000000000000000000000003FFFFFFF8
000000000000000000000000000FFFFFFFF8
000000000000000000000000003FFFFFFFF8
00000000000000000000000001FFFFFFFFF0
0000000000000000000000001FFFFFFFFFF0
000000000000000000000003FFFFFFFFFFE0
00000000000000000000003FFFFFFFFFFFE0
0000000000000000000003FFFFFFFFFFFFC0
000000000000000000007FFFFFFFFFFFFFC0
00000000000000000007FFFFFFFFFFFFFF80
0000000000000000007FFFFFFFFFFFFFFF80
00000000000000000FFFFFFFFFFFFFFFFF00
0000000000000000FFFFFFFFFFFFFFFFFE00
000000000000000FFFFFFFFFFFFFFFFFFE00
00000000000001FFFFFFFFFFFFFFFFFFFC00
0000000000001FFFFFFFFFFFFFFFFFFFF800
000000000001FFFFFFFFFFFFFFFFFFFFF000
00000000000FFFFFFFFFFFFFFFFFFFFFE000
00000000001FFFFFFFFFFFFFFFFFFFFFC000
00000000007FFFFFFFFFFFFFFFFFFFFF8000
0000000000FFFFFFFFFFFFFFFFFFFFFF0000
0000000000FFFFFFFFFFFFFFFFFFFFFE0000
0000000001FFFFFFFFFFFFFFFFFFFFFC0000
0000000003FFFFFFFFFFFFFFFFFFFFF80000
0000000003FFFFFFFFFFFFFFFFFFFFE00000
0000000003FFFFFFFFFFFFFFFFFFFF800000
0000000007FFFFFFFFFFFFFFFFFFFF000000
0000000007FFFFFFFFFFFFFFFFFFF8000000
0000000007FFFFFFFFFFFFFFFFFFE0000000
0000000007FFFFFFFFFFFFFFFFFF00000000
0000000007FFFFFFFFFFFFFFFFE000000000
0000000007FFFFFFFFFFFFFFFE0000000000
0000000007FFFFFFFFFFFFFFE00000000000
0000000003FFFFFFFFFFFFFC000000000000
0000000003FFFFFFFFFFFFC0000000000000
0000000003FFFFFFFFFFFC00000000000000
0000000001FFFFFFFFFF8000000000000000
0000000000FFFFFFFFF80000000000000000
0000000000FFFFFFFF800000000000000000
00000000007FFFFFF0000000000000000000
00000000001FFFFF00000000000000000000
00000000000FFFF000000000000000000000
000000000001FE0000000000000000000000
000000000000000000000000000000000000
000000000000000000000000000000000000
000000000000000000000000000000000000
000000000000000000000000000000000000
000000000000000000000000000000000000
000000000000000000000000000000000000
000000000000000000000000000000000000
000000000000000000000000000000000000
000000000000000000000000000000000000
000000000001FC0000000000000000000000
00000000000FFF8000000000000000000000
00000000001FFFC000000000000000000000
00000000007FFFF000000000000000000000
0000000000FFFFF800000000000000000000
0000000000FFFFF800000000000000000000
0000000001FFFFFC00000000000000000000
0000000003FFFFFE00000000000000000000
0000000003FFFFFE00000000000000000000
0000000007FFFFFE00000000000000000000
0000000007FFFFFF00000000000000000000
0000000007FFFFFF00000000000000000000
0000000007FFFFFF00000000000000000000
0000000007FFFFFF00000000000000000000
0000000007FFFFFF00000000000000000000
0000000007FFFFFF00000000000000000000
0000000007FFFFFF00000000000000000000
0000000007FFFFFF00000000000000000000
0000000007FFFFFF00000000000000000000
0000000007FFFFFE00000000000000000000
0000000003FFFFFE00000000000000000000
0000000003FFFFFE00000000000000000000
0000000001FFFFFC00000000000000000000
0000000001FFFFF800000000000000000000
0000000000FFFFF800000000000000000000
00000000007FFFF000000000000000000000
00000000003FFFC000000000000000000000
00000000000FFF8000000000000000000000
000000000001FC0000000000000000000000
ENDCHAR
STARTCHAR 0040
ENCODING 64
SWIDTH 888 0
DWIDTH 160 0
BBX 141 134 0 0
BITMAP
000000001FFFFFFFFFFFFFFFFFC000000000
00000003FFFFFFFFFFFFFFFFFFFE00000000
0000001FFFFFFFFFFFFFFFFFFFFFC0000000
0000007FFFFFFFFFFFFFFFFFFFFFF0000000
000001FFFFFFFFFFFFFFFFFFFFFFFC000000
000007FFFFFFFFFFFFFFFFFFFFFFFF000000
00001FFFFFFFFFFFFFFFFFFFFFFFFFC00000
00003FFFFFFFFFFFFFFFFFFFFFFFFFE00000
00007FFFFFFFFFFFFFFFFFFFFFFFFFF00000
0001FFFFFFFFFFFFFFFFFFFFFFFFFFFC0000
0003FFFFFFFFFFFFFFFFFFFFFFFFFFFE0000
0007FFFFFFFFFFFFFFFFFFFFFFFFFFFF0000
000FFFFFFFFFFFFFFFFFFFFFFFFFFFFF8000
001FFFFFFFFFFFFFFFFFFFFFFFFFFFFFC000
003FFFFFFFFFFFFFFFFFFFFFFFFFFFFFE000
007FFFFFF80000000000000000FFFFFFF000
007FFFFF8000000000000000000FFFFFF000
00FFFFFE00000000000000000003FFFFF800
01FFFFF800000000000000000000FFFFFC00
03FFFFE0000000000000000000003FFFFE00
03FFFFC0000000000000000000001FFFFE00
07FFFF80000000000000000000000FFFFF00
07FFFE000000000000000000000007FFFF00
0FFFFE000000000000000000000003FFFF80
0FFFFC000000000000000000000001FFFF80
1FFFF8000000000000000000000000FFFFC0
1FFFF00000000000000000000000007FFFC0
3FFFE00000000000000000000000003FFFE0
3FFFE00000000000000000000000003FFFE0
3FFFC0000000007FFFFFF0000000001FFFE0
7FFFC000000003FFFFFFFE000000001FFFE0
7FFF800000001FFFFFFFFFC00000000FFFF0
7FFF800000003FFFFFFFFFE00000000FFFF0
7FFF00000000FFFFFFFFFFF800000007FFF0
7FFF00000001FFFFFFFFFFFC00000007FFF0
FFFF00000003FFFFFFFFFFFE00000007FFF8
FFFF00000007FFFFFFFFFFFF00000007FFF8
FFFE0000000FFFFFFFFFFFFF80000003FFF8
FFFE0000001FFFFFFFFFFFFFC0000003FFF8
FFFE0000003FFFFFFFFFFFFFE0000003FFF8
FFFE0000007FFFFFFFFFFFFFE0000003FFF8
FFFE0000007FFFFFFFFFFFFFF0000003FFF8
FFFE000000FFFFFFFFFFFFFFF8000003FFF8
FFFE000000FFFFFFFFFFFFFFF8000003FFF8
FFFE000001FFFFFFFFFFFFFFF8000003FFF8
FFFE000001FFFFFFFFFFFFFFFC000003FFF8
FFFE000001FFFFE000003FFFFC000003FFF8
FFFE000003FFFF8000000FFFFC000003FFF8
FFFE000003FFFF0000000FFFFE000003FFF8
FFFE000003FFFF00000007FFFE000003FFF8
FFFE000003FFFE00000003FFFE000003FFF8
FFFE000003FFFE00000003FFFE000003FFF8
FFFE000007FFFE00000003FFFE000003FFF8
FFFE000007FFFC00000003FFFF000003FFF8
FFFE000007FFFC00000001FFFF000003FFF8
FFFE000007FFFC00000001FFFF000003FFF8
FFFE00000FFFFC00000001FFFF000003FFF8
FFFE00000FFFF800000001FFFF800003FFF8
FFFE00000FFFF800000000FFFF800003FFF8
FFFE00000FFFF800000000FFFF800003FFF8
FFFE00000FFFF800000000FFFF800003FFF8
FFFE00001FFFF800000000FFFF800003FFF8
FFFE00001FFFF000000000FFFFC00003FFF8
FFFE00001FFFF0000000007FFFC00003FFF8
FFFE00001FFFF0000000007FFFC00003FFF8
FFFE00001FFFF0000000007FFFC00003FFF8
FFFE00003FFFFFFFFFFFFFFFFFE00003FFF8
FFFE00003FFFFFFFFFFFFFFFFFE00003FFF8
FFFE00003FFFFFFFFFFFFFFFFFE00003FFF8
FFFE00003FFFFFFFFFFFFFFFFFE00003FFF8
FFFE00007FFFFFFFFFFFFFFFFFE00003FFF8
FFFE00007FFFFFFFFFFFFFFFFFF00003FFF8
FFFE00007FFFFFFFFFFFFFFFFFF00003FFF8
FFFE00007FFFFFFFFFFFFFFFFFF00003FFF8
FFFE00007FFFFFFFFFFFFFFFFFF00003FFF8
FFFE0000FFFFFFFFFFFFFFFFFFF00003FFF8
FFFE0000FFFFFFFFFFFFFFFFFFF80003FFF8
FFFE0000FFFFFFFFFFFFFFFFFFF80003FFF8
FFFE0000FFFFFFFFFFFFFFFFFFF80003FFF8
FFFE0001FFFFFFFFFFFFFFFFFFF80003FFF8
FFFE0001FFFFFFFFFFFFFFFFFFFC0003FFF8
FFFE0001FFFFFFFFFFFFFFFFFFFC0003FFF8
FFFE0001FFFFFFFFFFFFFFFFFFFC0003FFF8
FFFE0001FFFF000000000007FFFC0003FFF8
FFFE0003FFFE000000000007FFFC0003FFF8
FFFE0003FFFE000000000003FFFE0003FFF8
FFFE0003FFFE000000000003FFFE0003FFF8
FFFE0003FFFE000000000003FFFE0003FFF8
FFFE0007FFFC000000000003FFFE0003FFF8
FFFE0007FFFC000000000003FFFF0003FFF8
FFFE0007FFFC000000000001FFFF0003FFF8
FFFE0007FFFC000000000001FFFF0003FFF8
FFFE0007FFFC000000000001FFFF0003FFF8
FFFE000FFFF8000000000001FFFF0003FFF8
FFFE000FFFF8000000000000FFFF8003FFF8
FFFE000FFFF8000000000000FFFF8003FFF8
FFFE000FFFF8000000000000FFFF8003FFF8
FFFF000FFFF8000000000000FFFF8007FFF8
FFFF000FFFF0000000000000FFFF8007FFF8
7FFF000FFFF00000000000007FFF8007FFF0
7FFF0007FFF00000000000007FFF0007FFF0
7FFF8007FFE00000000000003FFF000FFFF0
7FFF8003FFC00000000000001FFE000FFFF0
7FFFC001FF800000000000000FFC001FFFE0
3FFFC0007E0000000000000003E0001FFFE0
3FFFE00000000000000000000000003FFFE0
3FFFE00000000000000000000000003FFFE0
1FFFF00000000000000000000000007FFFC0
1FFFF8000000000000000000000000FFFFC0
0FFFFC000000000000000000000001FFFF80
0FFFFC000000000000000000000003FFFF80
07FFFE000000000000000000000007FFFF00
07FFFF80000000000000000000000FFFFF00
03FFFFC0000000000000000000001FFFFE00
03FFFFE0000000000000000000003FFFFE00
01FFFFF800000000000000000000FFFFFC00
00FFFFFE00000000000000000003FFFFF800
007FFFFF8000000000000000000FFFFFF000
007FFFFFF80000000000000000FFFFFFF000
003FFFFFFFFFFFFFFFFFFFFFFFFFFFFFE000
001FFFFFFFFFFFFFFFFFFFFFFFFFFFFFC000
000FFFFFFFFFFFFFFFFFFFFFFFFFFFFF8000
0007FFFFFFFFFFFFFFFFFFFFFFFFFFFF0000
0003FFFFFFFFFFFFFFFFFFFFFFFFFFFE0000
0001FFFFFFFFFFFFFFFFFFFFFFFFFFFC0000
00007FFFFFFFFFFFFFFFFFFFFFFFFFF00000
00003FFFFFFFFFFFFFFFFFFFFFFFFFE00000
00001FFFFFFFFFFFFFFFFFFFFFFFFFC00000
000007FFFFFFFFFFFFFFFFFFFFFFFF000000
000001FFFFFFFFFFFFFFFFFFFFFFFC000000
0000007FFFFFFFFFFFFFFFFFFFFFF0000000
0000001FFFFFFFFFFFFFFFFFFFFFC0000000
00000003FFFFFFFFFFFFFFFFFFFE00000000
000000001FFFFFFFFFFFFFFFFFC000000000
ENDCHAR
STARTCHAR 0041
ENCODING 65
SWIDTH 888 0
DWIDTH 160 0
BBX 153 136 0 -2
BITMAP
00000000000003FFFFFFFFFFE000000000000000
0000000000003FFFFFFFFFFFFF00000000000000
000000000003FFFFFFFFFFFFFFE0000000000000
00000000000FFFFFFFFFFFFFFFF8000000000000
00000000003FFFFFFFFFFFFFFFFE000000000000
0000000000FFFFFFFFFFFFFFFFFF800000000000
0000000003FFFFFFFFFFFFFFFFFFE00000000000
0000000007FFFFFFFFFFFFFFFFFFF00000000000
000000000FFFFFFFFFFFFFFFFFFFFC0000000000
000000003FFFFFFFFFFFFFFFFFFFFE0000000000
000000007FFFFFFFFFFFFFFFFFFFFF0000000000
00000000FFFFFFFFFFFFFFFFFFFFFF8000000000
00000001FFFFFFFFFFFFFFFFFFFFFFC000000000
00000003FFFFFFFFFFFFFFFFFFFFFFE000000000
00000007FFFFFFFFFFFFFFFFFFFFFFF000000000
0000000FFFFFFFFFFFFFFFFFFFFFFFF800000000
0000001FFFFFFFFFFFFFFFFFFFFFFFFC00000000
0000001FFFFFFFFFFFFFFFFFFFFFFFFE00000000
0000003FFFFFFFFFFFFFFFFFFFFFFFFE00000000
0000007FFFFFFFFFFFFFFFFFFFFFFFFF00000000
0000007FFFFFFFFFFFFFFFFFFFFFFFFF80000000
000000FFFFFFFFFFFFFFFFFFFFFFFFFF80000000
000001FFFFFFFFFFFFFFFFFFFFFFFFFFC0000000
000001FFFFFFFFFFFFFFFFFFFFFFFFFFC0000000
000003FFFFFFFFFFFFFFFFFFFFFFFFFFE0000000
000003FFFFFFFFFFFFFFFFFFFFFFFFFFE0000000
000003FFFFFFFFFFFFFFFFFFFFFFFFFFF0000000
000007FFFFFFFF8000000000FFFFFFFFF0000000
000007FFFFFFFC00000000001FFFFFFFF0000000
00000FFFFFFFF8000000000007FFFFFFF8000000
00000FFFFFFFE0000000000003FFFFFFF8000000
00000FFFFFFFC0000000000001FFFFFFF8000000
00000FFFFFFF80000000000000FFFFFFFC000000
00001FFFFFFF000000000000007FFFFFFC000000
00001FFFFFFE000000000000003FFFFFFC000000
00001FFFFFFE000000000000003FFFFFFC000000
00001FFFFFFC000000000000001FFFFFFC000000
00001FFFFFFC000000000000001FFFFFFE000000
00003FFFFFFC000000000000001FFFFFFE000000
00003FFFFFF8000000000000000FFFFFFE000000
00003FFFFFF8000000000000000FFFFFFE000000
00003FFFFFF8000000000000000FFFFFFF000000
00007FFFFFF8000000000000000FFFFFFF000000
00007FFFFFF80000000000000007FFFFFF000000
00007FFFFFF00000000000000007FFFFFF000000
00007FFFFFF00000000000000007FFFFFF000000
00007FFFFFF00000000000000007FFFFFF800000
0000FFFFFFF00000000000000007FFFFFF800000
0000FFFFFFE00000000000000003FFFFFF800000
0000FFFFFFE00000000000000003FFFFFF800000
0000FFFFFFE00000000000000003FFFFFFC00000
0001FFFFFFE00000000000000003FFFFFFC00000
0001FFFFFFE00000000000000001FFFFFFC00000
0001FFFFFFC00000000000000001FFFFFFC00000
0001FFFFFFC00000000000000001FFFFFFC00000
0001FFFFFFC00000000000000001FFFFFFE00000
0003FFFFFFC00000000000000001FFFFFFE00000
0003FFFFFF800000000000000000FFFFFFE00000
0003FFFFFF800000000000000000FFFFFFE00000
0003FFFFFF800000000000000000FFFFFFF00000
0007FFFFFF800000000000000000FFFFFFF00000
0007FFFFFF8000000000000000007FFFFFF00000
0007FFFFFF0000000000000000007FFFFFF00000
0007FFFFFF0000000000000000007FFFFFF00000
0007FFFFFF0000000000000000007FFFFFF80000
000FFFFFFF0000000000000000003FFFFFF80000
000FFFFFFE0000000000000000003FFFFFF80000
000FFFFFFE0000000000000000003FFFFFF80000
000FFFFFFFFFFFFFFFFFFFFFFFFFFFFFFFFC0000
001FFFFFFFFFFFFFFFFFFFFFFFFFFFFFFFFC0000
001FFFFFFFFFFFFFFFFFFFFFFFFFFFFFFFFC0000
001FFFFFFFFFFFFFFFFFFFFFFFFFFFFFFFFC0000
001FFFFFFFFFFFFFFFFFFFFFFFFFFFFFFFFE0000
001FFFFFFFFFFFFFFFFFFFFFFFFFFFFFFFFE0000
003FFFFFFFFFFFFFFFFFFFFFFFFFFFFFFFFE0000
003FFFFFFFFFFFFFFFFFFFFFFFFFFFFFFFFE0000
003FFFFFFFFFFFFFFFFFFFFFFFFFFFFFFFFE0000
003FFFFFFFFFFFFFFFFFFFFFFFFFFFFFFFFF0000
007FFFFFFFFFFFFFFFFFFFFFFFFFFFFFFFFF0000
007FFFFFFFFFFFFFFFFFFFFFFFFFFFFFFFFF0000
007FFFFFFFFFFFFFFFFFFFFFFFFFFFFFFFFF0000
007FFFFFFFFFFFFFFFFFFFFFFFFFFFFFFFFF8000
00FFFFFFFFFFFFFFFFFFFFFFFFFFFFFFFFFF8000
00FFFFFFFFFFFFFFFFFFFFFFFFFFFFFFFFFF8000
00FFFFFFFFFFFFFFFFFFFFFFFFFFFFFFFFFF8000
00FFFFFFFFFFFFFFFFFFFFFFFFFFFFFFFFFF8000
00FFFFFFFFFFFFFFFFFFFFFFFFFFFFFFFFFFC000
01FFFFFFFFFFFFFFFFFFFFFFFFFFFFFFFFFFC000
01FFFFFFFFFFFFFFFFFFFFFFFFFFFFFFFFFFC000
01FFFFFFFFFFFFFFFFFFFFFFFFFFFFFFFFFFC000
01FFFFFFFFFFFFFFFFFFFFFFFFFFFFFFFFFFE000
03FFFFFFFFFFFFFFFFFFFFFFFFFFFFFFFFFFE000
03FFFFFFFFFFFFFFFFFFFFFFFFFFFFFFFFFFE000
03FFFFFFFFFFFFFFFFFFFFFFFFFFFFFFFFFFE000
03FFFFFFFFFFFFFFFFFFFFFFFFFFFFFFFFFFE000
03FFFFFF8000000000000000000000FFFFFFF000
07FFFFFF8000000000000000000000FFFFFFF000
07FFFFFF00000000000000000000007FFFFFF000
07FFFFFF00000000000000000000007FFFFFF000
07FFFFFF00000000000000000000007FFFFFF800
0FFFFFFF00000000000000000000007FFFFFF800
0FFFFFFF00000000000000000000003FFFFFF800
0FFFFFFE00000000000000000000003FFFFFF800
0FFFFFFE00000000000000000000003FFFFFF800
0FFFFFFE00000000000000000000003FFFFFFC00
1FFFFFFE00000000000000000000003FFFFFFC00
1FFFFFFC00000000000000000000001FFFFFFC00
1FFFFFFC00000000000000000000001FFFFFFC00
1FFFFFFC00000000000000000000001FFFFFFE00
3FFFFFFC00000000000000000000001FFFFFFE00
3FFFFFFC00000000000000000000000FFFFFFE00
3FFFFFF800000000000000000000000FFFFFFE00
3FFFFFF800000000000000000000000FFFFFFE00
3FFFFFF800000000000000000000000FFFFFFF00
7FFFFFF800000000000000000000000FFFFFFF00
7FFFFFF0000000000000000000000007FFFFFF00
7FFFFFF0000000000000000000000007FFFFFF00
7FFFFFF0000000000000000000000007FFFFFF80
FFFFFFF0000000000000000000000007FFFFFF80
FFFFFFF0000000000000000000000003FFFFFF80
FFFFFFE0000000000000000000000003FFFFFF80
FFFFFFE0000000000000000000000003FFFFFF80
FFFFFFE0000000000000000000000003FFFFFF80
FFFFFFE0000000000000000000000003FFFFFF80
FFFFFFC0000000000000000000000001FFFFFF80
FFFFFFC0000000000000000000000001FFFFFF80
FFFFFFC0000000000000000000000001FFFFFF80
7FFFFFC0000000000000000000000001FFFFFF00
7FFFFF80000000000000000000000000FFFFFF00
3FFFFF80000000000000000000000000FFFFFE00
3FFFFF000000000000000000000000007FFFFE00
1FFFFE000000000000000000000000003FFFFC00
0FFFFC000000000000000000000000001FFFF800
07FFF8000000000000000000000000000FFFF000
01FFE00000000000000000000000000003FFC000
007F800000000000000000000000000000FF0000
ENDCHAR
STARTCHAR 0042
ENCODING 66
SWIDTH 888 0
DWIDTH 160 0
BBX 141 134 0 0
BITMAP
0000003FFFFFFFFFFFFFFFFFFF8000000000
000003FFFFFFFFFFFFFFFFFFFFFC00000000
00001FFFFFFFFFFFFFFFFFFFFFFF80000000
00007FFFFFFFFFFFFFFFFFFFFFFFE0000000
0001FFFFFFFFFFFFFFFFFFFFFFFFF8000000
0003FFFFFFFFFFFFFFFFFFFFFFFFFE000000
000FFFFFFFFFFFFFFFFFFFFFFFFFFF000000
001FFFFFFFFFFFFFFFFFFFFFFFFFFFC00000
003FFFFFFFFFFFFFFFFFFFFFFFFFFFE00000
007FFFFFFFFFFFFFFFFFFFFFFFFFFFF00000
00FFFFFFFFFFFFFFFFFFFFFFFFFFFFF80000
01FFFFFFFFFFFFFFFFFFFFFFFFFFFFFC0000
03FFFFFFFFFFFFFFFFFFFFFFFFFFFFFE0000
03FFFFFFFFFFFFFFFFFFFFFFFFFFFFFF0000
07FFFFFFFFFFFFFFFFFFFFFFFFFFFFFF8000
0FFFFFFFFFFFFFFFFFFFFFFFFFFFFFFFC000
0FFFFFFFFFFFFFFFFFFFFFFFFFFFFFFFC000
1FFFFFFFFFFFFFFFFFFFFFFFFFFFFFFFE000
1FFFFFFFFFFFFFFFFFFFFFFFFFFFFFFFF000
3FFFFFFFFFFFFFFFFFFFFFFFFFFFFFFFF000
3FFFFFFFFFFFFFFFFFFFFFFFFFFFFFFFF800
3FFFFFFFFFFFFFFFFFFFFFFFFFFFFFFFF800
7FFFFFFFFFFFFFFFFFFFFFFFFFFFFFFFFC00
7FFFFFFFFFFFFFFFFFFFFFFFFFFFFFFFFC00
7FFFFFFFFFFFFFFFFFFFFFFFFFFFFFFFFE00
7FFFFFFFFFFFFFFFFFFFFFFFFFFFFFFFFE00
FFFFFFFFFFFFFFFFFFFFFFFFFFFFFFFFFE00
FFFFFFF8000000000000000001FFFFFFFF00
FFFFFFE00000000000000000007FFFFFFF00
FFFFFFC00000000000000000001FFFFFFF00
FFFFFFC00000000000000000000FFFFFFF00
FFFFFFC000000000000000000007FFFFFF00
FFFFFFC000000000000000000007FFFFFF80
FFFFFFC000000000000000000003FFFFFF80
FFFFFFC000000000000000000003FFFFFF80
FFFFFFC000000000000000000001FFFFFF80
FFFFFFC000000000000000000001FFFFFF80
FFFFFFC000000000000000000001FFFFFF80
FFFFFFC000000000000000000001FFFFFF80
FFFFFFC000000000000000000001FFFFFF80
FFFFFFC000000000000000000001FFFFFF80
FFFFFFC000000000000000000001FFFFFF80
FFFFFFC000000000000000000003FFFFFF80
FFFFFFC000000000000000000003FFFFFF80
FFFFFFC000000000000000000007FFFFFF80
FFFFFFC000000000000000000007FFFFFF00
FFFFFFC00000000000000000000FFFFFFF00
FFFFFFC00000000000000000001FFFFFFF00
FFFFFFC00000000000000000007FFFFFFF00
FFFFFFC0000000000000000001FFFFFFFE00
FFFFFFFFFFFFFFFFFFFFFFFFFFFFFFFFFE00
FFFFFFFFFFFFFFFFFFFFFFFFFFFFFFFFFE00
FFFFFFFFFFFFFFFFFFFFFFFFFFFFFFFFFC00
FFFFFFFFFFFFFFFFFFFFFFFFFFFFFFFFFC00
FFFFFFFFFFFFFFFFFFFFFFFFFFFFFFFFF800
FFFFFFFFFFFFFFFFFFFFFFFFFFFFFFFFF800
FFFFFFFFFFFFFFFFFFFFFFFFFFFFFFFFF000
FFFFFFFFFFFFFFFFFFFFFFFFFFFFFFFFF000
FFFFFFFFFFFFFFFFFFFFFFFFFFFFFFFFE000
FFFFFFFFFFFFFFFFFFFFFFFFFFFFFFFFE000
FFFFFFFFFFFFFFFFFFFFFFFFFFFFFFFFC000
FFFFFFFFFFFFFFFFFFFFFFFFFFFFFFFF8000
FFFFFFFFFFFFFFFFFFFFFFFFFFFFFFFF8000
FFFFFFFFFFFFFFFFFFFFFFFFFFFFFFFFC000
FFFFFFFFFFFFFFFFFFFFFFFFFFFFFFFFE000
FFFFFFFFFFFFFFFFFFFFFFFFFFFFFFFFE000
FFFFFFFFFFFFFFFFFFFFFFFFFFFFFFFFF000
FFFFFFFFFFFFFFFFFFFFFFFFFFFFFFFFF800
FFFFFFFFFFFFFFFFFFFFFFFFFFFFFFFFFC00
FFFFFFFFFFFFFFFFFFFFFFFFFFFFFFFFFC00
FFFFFFFFFFFFFFFFFFFFFFFFFFFFFFFFFE00
FFFFFFFFFFFFFFFFFFFFFFFFFFFFFFFFFF00
FFFFFFFFFFFFFFFFFFFFFFFFFFFFFFFFFF00
FFFFFFFFFFFFFFFFFFFFFFFFFFFFFFFFFF80
FFFFFFFFFFFFFFFFFFFFFFFFFFFFFFFFFF80
FFFFFFFFFFFFFFFFFFFFFFFFFFFFFFFFFFC0
FFFFFFC0000000000000000001FFFFFFFFC0
FFFFFFC00000000000000000003FFFFFFFE0
FFFFFFC00000000000000000000FFFFFFFE0
FFFFFFC000000000000000000007FFFFFFE0
FFFFFFC000000000000000000003FFFFFFE0
FFFFFFC000000000000000000001FFFFFFF0
FFFFFFC000000000000000000000FFFFFFF0
FFFFFFC0000000000000000000007FFFFFF0
FFFFFFC0000000000000000000007FFFFFF0
FFFFFFC0000000000000000000003FFFFFF8
FFFFFFC0000000000000000000003FFFFFF8
FFFFFFC0000000000000000000003FFFFFF8
FFFFFFC0000000000000000000001FFFFFF8
FFFFFFC0000000000000000000001FFFFFF8
FFFFFFC0000000000000000000001FFFFFF8
FFFFFFC0000000000000000000001FFFFFF8
FFFFFFC0000000000000000000001FFFFFF8
FFFFFFC0000000000000000000001FFFFFF8
FFFFFFC0000000000000000000001FFFFFF8
FFFFFFC0000000000000000000003FFFFFF8
FFFFFFC0000000000000000000003FFFFFF8
FFFFFFC0000000000000000000003FFFFFF8
FFFFFFC0000000000000000000007FFFFFF8
FFFFFFC0000000000000000000007FFFFFF0
FFFFFFC000000000000000000000FFFFFFF0
FFFFFFC000000000000000000001FFFFFFF0
FFFFFFC000000000000000000003FFFFFFF0
FFFFFFC000000000000000000007FFFFFFE0
FFFFFFC00000000000000000000FFFFFFFE0
FFFFFFE00000000000000000003FFFFFFFE0
FFFFFFF8000000000000000001FFFFFFFFE0
FFFFFFFFFFFFFFFFFFFFFFFFFFFFFFFFFFC0
7FFFFFFFFFFFFFFFFFFFFFFFFFFFFFFFFFC0
7FFFFFFFFFFFFFFFFFFFFFFFFFFFFFFFFF80
7FFFFFFFFFFFFFFFFFFFFFFFFFFFFFFFFF80
7FFFFFFFFFFFFFFFFFFFFFFFFFFFFFFFFF00
3FFFFFFFFFFFFFFFFFFFFFFFFFFFFFFFFF00
3FFFFFFFFFFFFFFFFFFFFFFFFFFFFFFFFE00
3FFFFFFFFFFFFFFFFFFFFFFFFFFFFFFFFE00
1FFFFFFFFFFFFFFFFFFFFFFFFFFFFFFFFC00
1FFFFFFFFFFFFFFFFFFFFFFFFFFFFFFFF800
0FFFFFFFFFFFFFFFFFFFFFFFFFFFFFFFF000
0FFFFFFFFFFFFFFFFFFFFFFFFFFFFFFFF000
07FFFFFFFFFFFFFFFFFFFFFFFFFFFFFFE000
03FFFFFFFFFFFFFFFFFFFFFFFFFFFFFFC000
03FFFFFFFFFFFFFFFFFFFFFFFFFFFFFF8000
01FFFFFFFFFFFFFFFFFFFFFFFFFFFFFF0000
00FFFFFFFFFFFFFFFFFFFFFFFFFFFFFE0000
007FFFFFFFFFFFFFFFFFFFFFFFFFFFFC0000
003FFFFFFFFFFFFFFFFFFFFFFFFFFFF00000
001FFFFFFFFFFFFFFFFFFFFFFFFFFFE00000
000FFFFFFFFFFFFFFFFFFFFFFFFFFFC00000
0003FFFFFFFFFFFFFFFFFFFFFFFFFF000000
0001FFFFFFFFFFFFFFFFFFFFFFFFFC000000
00007FFFFFFFFFFFFFFFFFFFFFFFF0000000
00001FFFFFFFFFFFFFFFFFFFFFFFC0000000
000003FFFFFFFFFFFFFFFFFFFFFE00000000
0000003FFFFFFFFFFFFFFFFFFFC000000000
ENDCHAR
STARTCHAR 0043
ENCODING 67
SWIDTH 888 0
DWIDTH 160 0
BBX 141 134 0 0
BITMAP
000000001FFFFFFFFFFFFFFFFFFFE0000000
00000003FFFFFFFFFFFFFFFFFFFFFE000000
0000001FFFFFFFFFFFFFFFFFFFFFFFC00000
0000007FFFFFFFFFFFFFFFFFFFFFFFF00000
000001FFFFFFFFFFFFFFFFFFFFFFFFFC0000
000007FFFFFFFFFFFFFFFFFFFFFFFFFE0000
00001FFFFFFFFFFFFFFFFFFFFFFFFFFF8000
00003FFFFFFFFFFFFFFFFFFFFFFFFFFFC000
00007FFFFFFFFFFFFFFFFFFFFFFFFFFFE000
0001FFFFFFFFFFFFFFFFFFFFFFFFFFFFF000
0003FFFFFFFFFFFFFFFFFFFFFFFFFFFFF800
0007FFFFFFFFFFFFFFFFFFFFFFFFFFFFFC00
000FFFFFFFFFFFFFFFFFFFFFFFFFFFFFFE00
001FFFFFFFFFFFFFFFFFFFFFFFFFFFFFFF00
003FFFFFFFFFFFFFFFFFFFFFFFFFFFFFFF00
007FFFFFFFFFFFFFFFFFFFFFFFFFFFFFFF80
007FFFFFFFFFFFFFFFFFFFFFFFFFFFFFFF80
00FFFFFFFFFFFFFFFFFFFFFFFFFFFFFFFFC0
01FFFFFFFFFFFFFFFFFFFFFFFFFFFFFFFFC0
03FFFFFFFFFFFFFFFFFFFFFFFFFFFFFFFFE0
03FFFFFFFFFFFFFFFFFFFFFFFFFFFFFFFFE0
07FFFFFFFFFFFFFFFFFFFFFFFFFFFFFFFFF0
07FFFFFFFFFFFFFFFFFFFFFFFFFFFFFFFFF0
0FFFFFFFFFFFFFFFFFFFFFFFFFFFFFFFFFF0
0FFFFFFFFFFFFFFFFFFFFFFFFFFFFFFFFFF0
1FFFFFFFFFFFFFFFFFFFFFFFFFFFFFFFFFF8
1FFFFFFFFC000000000000000000FFFFFFF8
3FFFFFFFE00000000000000000003FFFFFF8
3FFFFFFF800000000000000000003FFFFFF8
3FFFFFFF000000000000000000001FFFFFF8
7FFFFFFE000000000000000000001FFFFFF8
7FFFFFFC000000000000000000001FFFFFF8
7FFFFFF8000000000000000000001FFFFFF8
7FFFFFF0000000000000000000001FFFFFF8
7FFFFFF0000000000000000000001FFFFFF8
FFFFFFE0000000000000000000000FFFFFF0
FFFFFFE0000000000000000000000FFFFFF0
FFFFFFE00000000000000000000007FFFFE0
FFFFFFC00000000000000000000007FFFFE0
FFFFFFC00000000000000000000003FFFFC0
FFFFFFC00000000000000000000001FFFF80
FFFFFFC00000000000000000000000FFFF00
FFFFFFC000000000000000000000007FFC00
FFFFFFC000000000000000000000000FF000
FFFFFFC00000000000000000000000000000
FFFFFFC00000000000000000000000000000
FFFFFFC00000000000000000000000000000
FFFFFFC00000000000000000000000000000
FFFFFFC00000000000000000000000000000
FFFFFFC00000000000000000000000000000
FFFFFFC00000000000000000000000000000
FFFFFFC00000000000000000000000000000
FFFFFFC00000000000000000000000000000
FFFFFFC00000000000000000000000000000
FFFFFFC00000000000000000000000000000
FFFFFFC00000000000000000000000000000
FFFFFFC00000000000000000000000000000
FFFFFFC00000000000000000000000000000
FFFFFFC00000000000000000000000000000
FFFFFFC00000000000000000000000000000
FFFFFFC00000000000000000000000000000
FFFFFFC00000000000000000000000000000
FFFFFFC00000000000000000000000000000
FFFFFFC00000000000000000000000000000
FFFFFFC00000000000000000000000000000
FFFFFFC00000000000000000000000000000
FFFFFFC00000000000000000000000000000
FFFFFFC00000000000000000000000000000
FFFFFFC00000000000000000000000000000
FFFFFFC00000000000000000000000000000
FFFFFFC00000000000000000000000000000
FFFFFFC00000000000000000000000000000
FFFFFFC00000000000000000000000000000
FFFFFFC00000000000000000000000000000
FFFFFFC00000000000000000000000000000
FFFFFFC00000000000000000000000000000
FFFFFFC00000000000000000000000000000
FFFFFFC00000000000000000000000000000
FFFFFFC00000000000000000000000000000
FFFFFFC00000000000000000000000000000
FFFFFFC00000000000000000000000000000
FFFFFFC00000000000000000000000000000
FFFFFFC00000000000000000000000000000
FFFFFFC00000000000000000000000000000
FFFFFFC00000000000000000000000000000
FFFFFFC00000000000000000000000000000
FFFFFFC00000000000000000000000000000
FFFFFFC00000000000000000000000000000
FFFFFFC00000000000000000000000000000
FFFFFFC00000000000000000000000000000
FFFFFFC000000000000000000000001FF800
FFFFFFC000000000000000000000007FFE00
FFFFFFC00000000000000000000000FFFF00
FFFFFFC00000000000000000000001FFFF80
FFFFFFC00000000000000000000003FFFFC0
FFFFFFC00000000000000000000007FFFFE0
FFFFFFE0000000000000000000000FFFFFE0
FFFFFFE0000000000000000000000FFFFFF0
FFFFFFE0000000000000000000000FFFFFF0
7FFFFFF0000000000000000000001FFFFFF8
7FFFFFF0000000000000000000001FFFFFF8
7FFFFFF8000000000000000000001FFFFFF8
7FFFFFFC000000000000000000001FFFFFF8
7FFFFFFE000000000000000000001FFFFFF8
3FFFFFFF000000000000000000001FFFFFF8
3FFFFFFF800000000000000000003FFFFFF8
3FFFFFFFE00000000000000000003FFFFFF8
1FFFFFFFFC000000000000000000FFFFFFF8
1FFFFFFFFFFFFFFFFFFFFFFFFFFFFFFFFFF0
0FFFFFFFFFFFFFFFFFFFFFFFFFFFFFFFFFF0
0FFFFFFFFFFFFFFFFFFFFFFFFFFFFFFFFFF0
07FFFFFFFFFFFFFFFFFFFFFFFFFFFFFFFFF0
07FFFFFFFFFFFFFFFFFFFFFFFFFFFFFFFFE0
03FFFFFFFFFFFFFFFFFFFFFFFFFFFFFFFFE0
03FFFFFFFFFFFFFFFFFFFFFFFFFFFFFFFFE0
01FFFFFFFFFFFFFFFFFFFFFFFFFFFFFFFFC0
00FFFFFFFFFFFFFFFFFFFFFFFFFFFFFFFFC0
007FFFFFFFFFFFFFFFFFFFFFFFFFFFFFFF80
007FFFFFFFFFFFFFFFFFFFFFFFFFFFFFFF80
003FFFFFFFFFFFFFFFFFFFFFFFFFFFFFFF00
001FFFFFFFFFFFFFFFFFFFFFFFFFFFFFFE00
000FFFFFFFFFFFFFFFFFFFFFFFFFFFFFFE00
0007FFFFFFFFFFFFFFFFFFFFFFFFFFFFFC00
0003FFFFFFFFFFFFFFFFFFFFFFFFFFFFF800
0001FFFFFFFFFFFFFFFFFFFFFFFFFFFFF000
00007FFFFFFFFFFFFFFFFFFFFFFFFFFFE000
00003FFFFFFFFFFFFFFFFFFFFFFFFFFFC000
00001FFFFFFFFFFFFFFFFFFFFFFFFFFF8000
000007FFFFFFFFFFFFFFFFFFFFFFFFFE0000
000001FFFFFFFFFFFFFFFFFFFFFFFFFC0000
0000007FFFFFFFFFFFFFFFFFFFFFFFF00000
0000001FFFFFFFFFFFFFFFFFFFFFFFC00000
00000003FFFFFFFFFFFFFFFFFFFFFE000000
000000001FFFFFFFFFFFFFFFFFFFE0000000
ENDCHAR
STARTCHAR 0044
ENCODING 68
SWIDTH 888 0
DWIDTH 160 0
BBX 140 134 0 0
BITMAP
0000003FFFFFFFFFFFFFFFFC000000000000
000007FFFFFFFFFFFFFFFFFFE00000000000
00001FFFFFFFFFFFFFFFFFFFFC0000000000
00007FFFFFFFFFFFFFFFFFFFFF0000000000
0001FFFFFFFFFFFFFFFFFFFFFFC000000000
0003FFFFFFFFFFFFFFFFFFFFFFF000000000
000FFFFFFFFFFFFFFFFFFFFFFFFC00000000
001FFFFFFFFFFFFFFFFFFFFFFFFE00000000
003FFFFFFFFFFFFFFFFFFFFFFFFF00000000
007FFFFFFFFFFFFFFFFFFFFFFFFFC0000000
00FFFFFFFFFFFFFFFFFFFFFFFFFFE0000000
01FFFFFFFFFFFFFFFFFFFFFFFFFFF0000000
03FFFFFFFFFFFFFFFFFFFFFFFFFFF8000000
03FFFFFFFFFFFFFFFFFFFFFFFFFFFC000000
07FFFFFFFFFFFFFFFFFFFFFFFFFFFE000000
0FFFFFFFFFFFFFFFFFFFFFFFFFFFFF000000
0FFFFFFFFFFFFFFFFFFFFFFFFFFFFF000000
1FFFFFFFFFFFFFFFFFFFFFFFFFFFFF800000
1FFFFFFFFFFFFFFFFFFFFFFFFFFFFFC00000
3FFFFFFFFFFFFFFFFFFFFFFFFFFFFFC00000
3FFFFFFFFFFFFFFFFFFFFFFFFFFFFFE00000
3FFFFFFFFFFFFFFFFFFFFFFFFFFFFFF00000
7FFFFFFFFFFFFFFFFFFFFFFFFFFFFFF00000
7FFFFFFFFFFFFFFFFFFFFFFFFFFFFFF80000
7FFFFFFFFFFFFFFFFFFFFFFFFFFFFFF80000
7FFFFFFFFFFFFFFFFFFFFFFFFFFFFFFC0000
FFFFFFF8000000000000000FFFFFFFFC0000
FFFFFFE00000000000000003FFFFFFFC0000
FFFFFFC00000000000000000FFFFFFFE0000
FFFFFFC000000000000000003FFFFFFE0000
FFFFFFC000000000000000001FFFFFFE0000
FFFFFFC000000000000000000FFFFFFF0000
FFFFFFC000000000000000000FFFFFFF0000
FFFFFFC0000000000000000007FFFFFF0000
FFFFFFC0000000000000000007FFFFFF0000
FFFFFFC0000000000000000003FFFFFF8000
FFFFFFC0000000000000000003FFFFFF8000
FFFFFFC0000000000000000001FFFFFF8000
FFFFFFC0000000000000000001FFFFFF8000
FFFFFFC0000000000000000001FFFFFF8000
FFFFFFC0000000000000000001FFFFFFC000
FFFFFFC0000000000000000001FFFFFFC000
FFFFFFC0000000000000000000FFFFFFC000
FFFFFFC0000000000000000000FFFFFFC000
FFFFFFC0000000000000000000FFFFFFE000
FFFFFFC0000000000000000000FFFFFFE000
FFFFFFC00000000000000000007FFFFFE000
FFFFFFC00000000000000000007FFFFFE000
FFFFFFC00000000000000000007FFFFFE000
FFFFFFC00000000000000000007FFFFFF000
FFFFFFC00000000000000000007FFFFFF000
FFFFFFC00000000000000000003FFFFFF000
FFFFFFC00000000000000000003FFFFFF000
FFFFFFC00000000000000000003FFFFFF800
FFFFFFC00000000000000000003FFFFFF800
FFFFFFC00000000000000000001FFFFFF800
FFFFFFC00000000000000000001FFFFFF800
FFFFFFC00000000000000000001FFFFFF800
FFFFFFC00000000000000000001FFFFFFC00
FFFFFFC00000000000000000001FFFFFFC00
FFFFFFC00000000000000000000FFFFFFC00
FFFFFFC00000000000000000000FFFFFFC00
FFFFFFC00000000000000000000FFFFFFE00
FFFFFFC00000000000000000000FFFFFFE00
FFFFFFC000000000000000000007FFFFFE00
FFFFFFC000000000000000000007FFFFFE00
FFFFFFC000000000000000000007FFFFFE00
FFFFFFC000000000000000000007FFFFFF00
FFFFFFC000000000000000000007FFFFFF00
FFFFFFC000000000000000000003FFFFFF00
FFFFFFC000000000000000000003FFFFFF00
FFFFFFC000000000000000000003FFFFFF80
FFFFFFC000000000000000000003FFFFFF80
FFFFFFC000000000000000000001FFFFFF80
FFFFFFC000000000000000000001FFFFFF80
FFFFFFC000000000000000000001FFFFFF80
FFFFFFC000000000000000000001FFFFFFC0
FFFFFFC000000000000000000001FFFFFFC0
FFFFFFC000000000000000000000FFFFFFC0
FFFFFFC000000000000000000000FFFFFFC0
FFFFFFC000000000000000000000FFFFFFE0
FFFFFFC000000000000000000000FFFFFFE0
FFFFFFC0000000000000000000007FFFFFE0
FFFFFFC0000000000000000000007FFFFFE0
FFFFFFC0000000000000000000007FFFFFE0
FFFFFFC0000000000000000000007FFFFFF0
FFFFFFC0000000000000000000007FFFFFF0
FFFFFFC0000000000000000000003FFFFFF0
FFFFFFC0000000000000000000003FFFFFF0
FFFFFFC0000000000000000000003FFFFFF0
FFFFFFC0000000000000000000003FFFFFF0
FFFFFFC0000000000000000000003FFFFFF0
FFFFFFC0000000000000000000003FFFFFF0
FFFFFFC0000000000000000000003FFFFFF0
FFFFFFC0000000000000000000003FFFFFF0
FFFFFFC0000000000000000000003FFFFFF0
FFFFFFC0000000000000000000007FFFFFF0
FFFFFFC0000000000000000000007FFFFFF0
FFFFFFC0000000000000000000007FFFFFF0
FFFFFFC000000000000000000000FFFFFFE0
FFFFFFC000000000000000000000FFFFFFE0
FFFFFFC000000000000000000001FFFFFFE0
FFFFFFC000000000000000000003FFFFFFE0
FFFFFFC000000000000000000007FFFFFFC0
FFFFFFC00000000000000000000FFFFFFFC0
FFFFFFC00000000000000000001FFFFFFFC0
FFFFFFE00000000000000000007FFFFFFFC0
FFFFFFF8000000000000000001FFFFFFFF80
7FFFFFFFFFFFFFFFFFFFFFFFFFFFFFFFFF80
7FFFFFFFFFFFFFFFFFFFFFFFFFFFFFFFFF00
7FFFFFFFFFFFFFFFFFFFFFFFFFFFFFFFFF00
7FFFFFFFFFFFFFFFFFFFFFFFFFFFFFFFFE00
3FFFFFFFFFFFFFFFFFFFFFFFFFFFFFFFFE00
3FFFFFFFFFFFFFFFFFFFFFFFFFFFFFFFFC00
3FFFFFFFFFFFFFFFFFFFFFFFFFFFFFFFFC00
1FFFFFFFFFFFFFFFFFFFFFFFFFFFFFFFF800
1FFFFFFFFFFFFFFFFFFFFFFFFFFFFFFFF000
0FFFFFFFFFFFFFFFFFFFFFFFFFFFFFFFE000
0FFFFFFFFFFFFFFFFFFFFFFFFFFFFFFFE000
07FFFFFFFFFFFFFFFFFFFFFFFFFFFFFFC000
03FFFFFFFFFFFFFFFFFFFFFFFFFFFFFF8000
03FFFFFFFFFFFFFFFFFFFFFFFFFFFFFF0000
01FFFFFFFFFFFFFFFFFFFFFFFFFFFFFE0000
00FFFFFFFFFFFFFFFFFFFFFFFFFFFFFC0000
007FFFFFFFFFFFFFFFFFFFFFFFFFFFF80000
003FFFFFFFFFFFFFFFFFFFFFFFFFFFF00000
001FFFFFFFFFFFFFFFFFFFFFFFFFFFC00000
000FFFFFFFFFFFFFFFFFFFFFFFFFFF800000
0003FFFFFFFFFFFFFFFFFFFFFFFFFE000000
0001FFFFFFFFFFFFFFFFFFFFFFFFF8000000
00007FFFFFFFFFFFFFFFFFFFFFFFE0000000
00001FFFFFFFFFFFFFFFFFFFFFFF80000000
000003FFFFFFFFFFFFFFFFFFFFFC00000000
0000003FFFFFFFFFFFFFFFFFFF8000000000
ENDCHAR
STARTCHAR 0045
ENCODING 69
SWIDTH 888 0
DWIDTH 160 0
BBX 140 134 0 0
BITMAP
000000001FFFFFFFFFFFFFFFFFFFC0000000
00000003FFFFFFFFFFFFFFFFFFFFFC000000
0000001FFFFFFFFFFFFFFFFFFFFFFF800000
0000007FFFFFFFFFFFFFFFFFFFFFFFE00000
000001FFFFFFFFFFFFFFFFFFFFFFFFF80000
000007FFFFFFFFFFFFFFFFFFFFFFFFFC0000
00001FFFFFFFFFFFFFFFFFFFFFFFFFFE0000
00003FFFFFFFFFFFFFFFFFFFFFFFFFFF8000
0000FFFFFFFFFFFFFFFFFFFFFFFFFFFFC000
0001FFFFFFFFFFFFFFFFFFFFFFFFFFFFE000
0003FFFFFFFFFFFFFFFFFFFFFFFFFFFFF000
0007FFFFFFFFFFFFFFFFFFFFFFFFFFFFF000
000FFFFFFFFFFFFFFFFFFFFFFFFFFFFFF800
001FFFFFFFFFFFFFFFFFFFFFFFFFFFFFFC00
003FFFFFFFFFFFFFFFFFFFFFFFFFFFFFFE00
007FFFFFFFFFFFFFFFFFFFFFFFFFFFFFFE00
00FFFFFFFFFFFFFFFFFFFFFFFFFFFFFFFF00
00FFFFFFFFFFFFFFFFFFFFFFFFFFFFFFFF00
01FFFFFFFFFFFFFFFFFFFFFFFFFFFFFFFF80
03FFFFFFFFFFFFFFFFFFFFFFFFFFFFFFFF80
03FFFFFFFFFFFFFFFFFFFFFFFFFFFFFFFFC0
07FFFFFFFFFFFFFFFFFFFFFFFFFFFFFFFFC0
0FFFFFFFFFFFFFFFFFFFFFFFFFFFFFFFFFC0
0FFFFFFFFFFFFFFFFFFFFFFFFFFFFFFFFFE0
1FFFFFFFFFFFFFFFFFFFFFFFFFFFFFFFFFE0
1FFFFFFFFFFFFFFFFFFFFFFFFFFFFFFFFFE0
1FFFFFFFFFFFFFFFFFFFFFFFFFFFFFFFFFE0
3FFFFFFFF8000000000000000001FFFFFFE0
3FFFFFFFC00000000000000000007FFFFFF0
3FFFFFFF800000000000000000007FFFFFF0
7FFFFFFE000000000000000000003FFFFFF0
7FFFFFFC000000000000000000003FFFFFF0
7FFFFFF8000000000000000000003FFFFFF0
7FFFFFF8000000000000000000003FFFFFF0
FFFFFFF0000000000000000000003FFFFFF0
FFFFFFE0000000000000000000003FFFFFE0
FFFFFFE0000000000000000000003FFFFFE0
FFFFFFC0000000000000000000001FFFFFE0
FFFFFFC0000000000000000000001FFFFFC0
FFFFFFC0000000000000000000000FFFFFC0
FFFFFFC00000000000000000000007FFFF80
FFFFFFC00000000000000000000003FFFF00
FFFFFFC00000000000000000000001FFFE00
FFFFFFC00000000000000000000000FFFC00
FFFFFFC000000000000000000000003FF000
FFFFFFC00000000000000000000000000000
FFFFFFC00000000000000000000000000000
FFFFFFC00000000000000000000000000000
FFFFFFC00000000000000000000000000000
FFFFFFC00000000000000000000000000000
FFFFFFFFFFFFFFFC00000000000000000000
FFFFFFFFFFFFFFFF80000000000000000000
FFFFFFFFFFFFFFFFE0000000000000000000
FFFFFFFFFFFFFFFFF0000000000000000000
FFFFFFFFFFFFFFFFF8000000000000000000
FFFFFFFFFFFFFFFFF8000000000000000000
FFFFFFFFFFFFFFFFFC000000000000000000
FFFFFFFFFFFFFFFFFE000000000000000000
FFFFFFFFFFFFFFFFFE000000000000000000
FFFFFFFFFFFFFFFFFE000000000000000000
FFFFFFFFFFFFFFFFFF000000000000000000
FFFFFFFFFFFFFFFFFF000000000000000000
FFFFFFFFFFFFFFFFFF000000000000000000
FFFFFFFFFFFFFFFFFF000000000000000000
FFFFFFFFFFFFFFFFFF000000000000000000
FFFFFFFFFFFFFFFFFF000000000000000000
FFFFFFFFFFFFFFFFFE000000000000000000
FFFFFFFFFFFFFFFFFE000000000000000000
FFFFFFFFFFFFFFFFFE000000000000000000
FFFFFFFFFFFFFFFFFC000000000000000000
FFFFFFFFFFFFFFFFF8000000000000000000
FFFFFFFFFFFFFFFFF8000000000000000000
FFFFFFFFFFFFFFFFF0000000000000000000
FFFFFFFFFFFFFFFFC0000000000000000000
FFFFFFFFFFFFFFFF80000000000000000000
FFFFFFFFFFFFFFFC00000000000000000000
FFFFFFC00000000000000000000000000000
FFFFFFC00000000000000000000000000000
FFFFFFC00000000000000000000000000000
FFFFFFC00000000000000000000000000000
FFFFFFC00000000000000000000000000000
FFFFFFC00000000000000000000000000000
FFFFFFC00000000000000000000000000000
FFFFFFC00000000000000000000000000000
FFFFFFC00000000000000000000000000000
FFFFFFC00000000000000000000000000000
FFFFFFC00000000000000000000000000000
FFFFFFC00000000000000000000000000000
FFFFFFC00000000000000000000000000000
FFFFFFC000000000000000000000000FC000
FFFFFFC000000000000000000000007FF800
FFFFFFC00000000000000000000001FFFC00
FFFFFFC00000000000000000000003FFFE00
FFFFFFC00000000000000000000007FFFF00
FFFFFFC0000000000000000000000FFFFF80
FFFFFFC0000000000000000000000FFFFFC0
FFFFFFE0000000000000000000001FFFFFC0
FFFFFFE0000000000000000000001FFFFFE0
FFFFFFE0000000000000000000003FFFFFE0
FFFFFFF0000000000000000000003FFFFFE0
7FFFFFF8000000000000000000003FFFFFF0
7FFFFFF8000000000000000000003FFFFFF0
7FFFFFFC000000000000000000003FFFFFF0
7FFFFFFE000000000000000000003FFFFFF0
3FFFFFFF800000000000000000007FFFFFF0
3FFFFFFFC00000000000000000007FFFFFF0
3FFFFFFFF8000000000000000001FFFFFFF0
1FFFFFFFFFFFFFFFFFFFFFFFFFFFFFFFFFE0
1FFFFFFFFFFFFFFFFFFFFFFFFFFFFFFFFFE0
1FFFFFFFFFFFFFFFFFFFFFFFFFFFFFFFFFE0
0FFFFFFFFFFFFFFFFFFFFFFFFFFFFFFFFFE0
0FFFFFFFFFFFFFFFFFFFFFFFFFFFFFFFFFE0
07FFFFFFFFFFFFFFFFFFFFFFFFFFFFFFFFC0
03FFFFFFFFFFFFFFFFFFFFFFFFFFFFFFFFC0
03FFFFFFFFFFFFFFFFFFFFFFFFFFFFFFFFC0
01FFFFFFFFFFFFFFFFFFFFFFFFFFFFFFFF80
00FFFFFFFFFFFFFFFFFFFFFFFFFFFFFFFF80
00FFFFFFFFFFFFFFFFFFFFFFFFFFFFFFFF00
007FFFFFFFFFFFFFFFFFFFFFFFFFFFFFFF00
003FFFFFFFFFFFFFFFFFFFFFFFFFFFFFFE00
001FFFFFFFFFFFFFFFFFFFFFFFFFFFFFFC00
000FFFFFFFFFFFFFFFFFFFFFFFFFFFFFF800
0007FFFFFFFFFFFFFFFFFFFFFFFFFFFFF800
0003FFFFFFFFFFFFFFFFFFFFFFFFFFFFF000
0001FFFFFFFFFFFFFFFFFFFFFFFFFFFFE000
0000FFFFFFFFFFFFFFFFFFFFFFFFFFFFC000
00003FFFFFFFFFFFFFFFFFFFFFFFFFFF8000
00001FFFFFFFFFFFFFFFFFFFFFFFFFFF0000
000007FFFFFFFFFFFFFFFFFFFFFFFFFC0000
000003FFFFFFFFFFFFFFFFFFFFFFFFF80000
000000FFFFFFFFFFFFFFFFFFFFFFFFE00000
0000001FFFFFFFFFFFFFFFFFFFFFFF800000
00000003FFFFFFFFFFFFFFFFFFFFFC000000
000000001FFFFFFFFFFFFFFFFFFFC0000000
ENDCHAR
STARTCHAR 0046
ENCODING 70
SWIDTH 888 0
DWIDTH 160 0
BBX 143 136 0 -2
BITMAP
000000000FFFFFFFFFFFFFFFFFFFF8000000
00000001FFFFFFFFFFFFFFFFFFFFFF800000
0000000FFFFFFFFFFFFFFFFFFFFFFFF00000
0000007FFFFFFFFFFFFFFFFFFFFFFFFC0000
000001FFFFFFFFFFFFFFFFFFFFFFFFFE0000
000003FFFFFFFFFFFFFFFFFFFFFFFFFF8000
00000FFFFFFFFFFFFFFFFFFFFFFFFFFFC000
00003FFFFFFFFFFFFFFFFFFFFFFFFFFFE000
00007FFFFFFFFFFFFFFFFFFFFFFFFFFFF800
0000FFFFFFFFFFFFFFFFFFFFFFFFFFFFFC00
0001FFFFFFFFFFFFFFFFFFFFFFFFFFFFFC00
0003FFFFFFFFFFFFFFFFFFFFFFFFFFFFFE00
0007FFFFFFFFFFFFFFFFFFFFFFFFFFFFFF00
000FFFFFFFFFFFFFFFFFFFFFFFFFFFFFFF80
001FFFFFFFFFFFFFFFFFFFFFFFFFFFFFFFC0
003FFFFFFFFFFFFFFFFFFFFFFFFFFFFFFFC0
007FFFFFFFFFFFFFFFFFFFFFFFFFFFFFFFE0
00FFFFFFFFFFFFFFFFFFFFFFFFFFFFFFFFE0
00FFFFFFFFFFFFFFFFFFFFFFFFFFFFFFFFF0
01FFFFFFFFFFFFFFFFFFFFFFFFFFFFFFFFF0
03FFFFFFFFFFFFFFFFFFFFFFFFFFFFFFFFF8
03FFFFFFFFFFFFFFFFFFFFFFFFFFFFFFFFF8
07FFFFFFFFFFFFFFFFFFFFFFFFFFFFFFFFFC
07FFFFFFFFFFFFFFFFFFFFFFFFFFFFFFFFFC
0FFFFFFFFFFFFFFFFFFFFFFFFFFFFFFFFFFC
0FFFFFFFFFFFFFFFFFFFFFFFFFFFFFFFFFFC
1FFFFFFFFFFFFFFFFFFFFFFFFFFFFFFFFFFE
1FFFFFFFFFFFFFFFFFFFFFFFFFFFFFFFFFFE
3FFFFFFFFE0000000000000000007FFFFFFE
3FFFFFFFF00000000000000000001FFFFFFE
3FFFFFFFC00000000000000000000FFFFFFE
3FFFFFFF800000000000000000000FFFFFFE
7FFFFFFF000000000000000000000FFFFFFE
7FFFFFFE000000000000000000000FFFFFFE
7FFFFFFC000000000000000000000FFFFFFE
7FFFFFF8000000000000000000000FFFFFFE
7FFFFFF80000000000000000000007FFFFFE
FFFFFFF00000000000000000000007FFFFFE
FFFFFFF00000000000000000000007FFFFFC
FFFFFFF00000000000000000000003FFFFFC
FFFFFFE00000000000000000000003FFFFF8
FFFFFFE00000000000000000000001FFFFF0
FFFFFFE00000000000000000000000FFFFE0
FFFFFFE000000000000000000000007FFFC0
FFFFFFE000000000000000000000003FFF80
FFFFFFE000000000000000000000000FFE00
FFFFFFE00000000000000000000000004000
FFFFFFE00000000000000000000000000000
FFFFFFE00000000000000000000000000000
FFFFFFE00000000000000000000000000000
FFFFFFE00000000000000000000000000000
FFFFFFE00000000000000000000000000000
FFFFFFE00000000000000000000000000000
FFFFFFE00000000000000000000000000000
FFFFFFE00000000000000000000000000000
FFFFFFE00000000000000000000000000000
FFFFFFE00000000000000000000000000000
FFFFFFE00000000000000000000000000000
FFFFFFE00000000000000000000000000000
FFFFFFFFFFFFFFFFFFFFF800000000000000
FFFFFFFFFFFFFFFFFFFFFF00000000000000
FFFFFFFFFFFFFFFFFFFFFF80000000000000
FFFFFFFFFFFFFFFFFFFFFFE0000000000000
FFFFFFFFFFFFFFFFFFFFFFF0000000000000
FFFFFFFFFFFFFFFFFFFFFFF0000000000000
FFFFFFFFFFFFFFFFFFFFFFF8000000000000
FFFFFFFFFFFFFFFFFFFFFFFC000000000000
FFFFFFFFFFFFFFFFFFFFFFFC000000000000
FFFFFFFFFFFFFFFFFFFFFFFE000000000000
FFFFFFFFFFFFFFFFFFFFFFFE000000000000
FFFFFFFFFFFFFFFFFFFFFFFE000000000000
FFFFFFFFFFFFFFFFFFFFFFFE000000000000
FFFFFFFFFFFFFFFFFFFFFFFE000000000000
FFFFFFFFFFFFFFFFFFFFFFFE000000000000
FFFFFFFFFFFFFFFFFFFFFFFE000000000000
FFFFFFFFFFFFFFFFFFFFFFFE000000000000
FFFFFFFFFFFFFFFFFFFFFFFC000000000000
FFFFFFFFFFFFFFFFFFFFFFFC000000000000
FFFFFFFFFFFFFFFFFFFFFFFC000000000000
FFFFFFFFFFFFFFFFFFFFFFF8000000000000
FFFFFFFFFFFFFFFFFFFFFFF0000000000000
FFFFFFFFFFFFFFFFFFFFFFE0000000000000
FFFFFFFFFFFFFFFFFFFFFFC0000000000000
FFFFFFFFFFFFFFFFFFFFFF80000000000000
FFFFFFFFFFFFFFFFFFFFFE00000000000000
FFFFFFFFFFFFFFFFFFFFE000000000000000
FFFFFFE00000000000000000000000000000
FFFFFFE00000000000000000000000000000
FFFFFFE00000000000000000000000000000
FFFFFFE00000000000000000000000000000
FFFFFFE00000000000000000000000000000
FFFFFFE00000000000000000000000000000
FFFFFFE00000000000000000000000000000
FFFFFFE00000000000000000000000000000
FFFFFFE00000000000000000000000000000
FFFFFFE00000000000000000000000000000
FFFFFFE00000000000000000000000000000
FFFFFFE00000000000000000000000000000
FFFFFFE00000000000000000000000000000
FFFFFFE00000000000000000000000000000
FFFFFFE00000000000000000000000000000
FFFFFFE00000000000000000000000000000
FFFFFFE00000000000000000000000000000
FFFFFFE00000000000000000000000000000
FFFFFFE00000000000000000000000000000
FFFFFFE00000000000000000000000000000
FFFFFFE00000000000000000000000000000
FFFFFFE00000000000000000000000000000
FFFFFFE00000000000000000000000000000
FFFFFFE00000000000000000000000000000
FFFFFFE00000000000000000000000000000
FFFFFFE00000000000000000000000000000
FFFFFFE00000000000000000000000000000
FFFFFFE00000000000000000000000000000
FFFFFFE00000000000000000000000000000
FFFFFFE00000000000000000000000000000
FFFFFFE00000000000000000000000000000
FFFFFFE00000000000000000000000000000
FFFFFFE00000000000000000000000000000
FFFFFFE00000000000000000000000000000
FFFFFFE00000000000000000000000000000
FFFFFFE00000000000000000000000000000
FFFFFFE00000000000000000000000000000
FFFFFFE00000000000000000000000000000
FFFFFFE00000000000000000000000000000
FFFFFFE00000000000000000000000000000
7FFFFFE00000000000000000000000000000
7FFFFFC00000000000000000000000000000
7FFFFFC00000000000000000000000000000
3FFFFF800000000000000000000000000000
1FFFFF800000000000000000000000000000
1FFFFF000000000000000000000000000000
0FFFFE000000000000000000000000000000
03FFFC000000000000000000000000000000
01FFF0000000000000000000000000000000
003F80000000000000000000000000000000
ENDCHAR
STARTCHAR 0047
ENCODING 71
SWIDTH 888 0
DWIDTH 160 0
BBX 140 134 0 0
BITMAP
000000001FFFFFFFFFFFFFFFFFFFC0000000
00000003FFFFFFFFFFFFFFFFFFFFFC000000
0000001FFFFFFFFFFFFFFFFFFFFFFF800000
0000007FFFFFFFFFFFFFFFFFFFFFFFE00000
000001FFFFFFFFFFFFFFFFFFFFFFFFF80000
000007FFFFFFFFFFFFFFFFFFFFFFFFFC0000
00001FFFFFFFFFFFFFFFFFFFFFFFFFFF0000
00003FFFFFFFFFFFFFFFFFFFFFFFFFFF8000
0000FFFFFFFFFFFFFFFFFFFFFFFFFFFFC000
0001FFFFFFFFFFFFFFFFFFFFFFFFFFFFE000
0003FFFFFFFFFFFFFFFFFFFFFFFFFFFFF000
0007FFFFFFFFFFFFFFFFFFFFFFFFFFFFF800
000FFFFFFFFFFFFFFFFFFFFFFFFFFFFFFC00
001FFFFFFFFFFFFFFFFFFFFFFFFFFFFFFC00
003FFFFFFFFFFFFFFFFFFFFFFFFFFFFFFE00
007FFFFFFFFFFFFFFFFFFFFFFFFFFFFFFF00
00FFFFFFFFFFFFFFFFFFFFFFFFFFFFFFFF00
00FFFFFFFFFFFFFFFFFFFFFFFFFFFFFFFF80
01FFFFFFFFFFFFFFFFFFFFFFFFFFFFFFFF80
03FFFFFFFFFFFFFFFFFFFFFFFFFFFFFFFFC0
03FFFFFFFFFFFFFFFFFFFFFFFFFFFFFFFFC0
07FFFFFFFFFFFFFFFFFFFFFFFFFFFFFFFFC0
0FFFFFFFFFFFFFFFFFFFFFFFFFFFFFFFFFE0
0FFFFFFFFFFFFFFFFFFFFFFFFFFFFFFFFFE0
1FFFFFFFFFFFFFFFFFFFFFFFFFFFFFFFFFE0
1FFFFFFFFFFFFFFFFFFFFFFFFFFFFFFFFFE0
1FFFFFFFF8000000000000000001FFFFFFE0
3FFFFFFFE00000000000000000007FFFFFF0
3FFFFFFF800000000000000000007FFFFFF0
3FFFFFFE000000000000000000003FFFFFF0
7FFFFFFC000000000000000000003FFFFFF0
7FFFFFFC000000000000000000003FFFFFF0
7FFFFFF8000000000000000000003FFFFFF0
7FFFFFF0000000000000000000003FFFFFF0
FFFFFFE0000000000000000000003FFFFFE0
FFFFFFE0000000000000000000003FFFFFE0
FFFFFFE0000000000000000000001FFFFFE0
FFFFFFC0000000000000000000001FFFFFC0
FFFFFFC0000000000000000000000FFFFFC0
FFFFFFC00000000000000000000007FFFF80
FFFFFFC00000000000000000000003FFFF00
FFFFFFC00000000000000000000001FFFE00
FFFFFFC00000000000000000000000FFFC00
FFFFFFC000000000000000000000003FF000
FFFFFFC00000000000000000000000000000
FFFFFFC00000000000000000000000000000
FFFFFFC00000000000000000000000000000
FFFFFFC00000000000000000000000000000
FFFFFFC00000000000000000000000000000
FFFFFFC00000000000000000000000000000
FFFFFFC00000000000000000000000000000
FFFFFFC00000000000000000000000000000
FFFFFFC00000000000000000000000000000
FFFFFFC00000000000000000000000000000
FFFFFFC00000000000000000000000000000
FFFFFFC00000000000000000000000000000
FFFFFFC00000000000000000000000000000
FFFFFFC00000000000000000000000000000
FFFFFFC00000000000000000000000000000
FFFFFFC00000000000000000000000000000
FFFFFFC00000000000000000000000000000
FFFFFFC00000000000000000000000000000
FFFFFFC00000000000000000000000000000
FFFFFFC00000000000000000000000000000
FFFFFFC00000000000000000000000000000
FFFFFFC00000000000000000000000000000
FFFFFFC00000000000000000000600000000
FFFFFFC00000000000000000007FF8000000
FFFFFFC0000000000000000001FFFF000000
FFFFFFC0000000000000000007FFFFC00000
FFFFFFC000000000000000000FFFFFE00000
FFFFFFC000000000000000000FFFFFF80000
FFFFFFC000000000000000001FFFFFFC0000
FFFFFFC000000000000000003FFFFFFE0000
FFFFFFC000000000000000003FFFFFFF0000
FFFFFFC000000000000000007FFFFFFF8000
FFFFFFC000000000000000007FFFFFFFC000
FFFFFFC000000000000000007FFFFFFFE000
FFFFFFC000000000000000007FFFFFFFF000
FFFFFFC000000000000000007FFFFFFFF800
FFFFFFC000000000000000007FFFFFFFF800
FFFFFFC000000000000000007FFFFFFFFC00
FFFFFFC000000000000000007FFFFFFFFE00
FFFFFFC000000000000000007FFFFFFFFE00
FFFFFFC000000000000000003FFFFFFFFF00
FFFFFFC000000000000000003FFFFFFFFF00
FFFFFFC000000000000000001FFFFFFFFF80
FFFFFFC000000000000000001FFFFFFFFF80
FFFFFFC000000000000000000FFFFFFFFFC0
FFFFFFC0000000000000000007FFFFFFFFC0
FFFFFFC0000000000000000001FFFFFFFFC0
FFFFFFC00000000000000000007FFFFFFFE0
FFFFFFC00000000000000000000FFFFFFFE0
FFFFFFC000000000000000000001FFFFFFE0
FFFFFFC000000000000000000000FFFFFFE0
FFFFFFC0000000000000000000007FFFFFE0
FFFFFFC0000000000000000000007FFFFFF0
FFFFFFE0000000000000000000007FFFFFF0
FFFFFFE0000000000000000000003FFFFFF0
FFFFFFE0000000000000000000003FFFFFF0
7FFFFFF0000000000000000000003FFFFFF0
7FFFFFF8000000000000000000003FFFFFF0
7FFFFFF8000000000000000000007FFFFFF0
7FFFFFFC000000000000000000007FFFFFF0
3FFFFFFF000000000000000000007FFFFFF0
3FFFFFFF80000000000000000000FFFFFFE0
3FFFFFFFE0000000000000000001FFFFFFE0
1FFFFFFFF8000000000000000007FFFFFFE0
1FFFFFFFFFFFFFFFFFFFFFFFFFFFFFFFFFE0
1FFFFFFFFFFFFFFFFFFFFFFFFFFFFFFFFFE0
0FFFFFFFFFFFFFFFFFFFFFFFFFFFFFFFFFC0
0FFFFFFFFFFFFFFFFFFFFFFFFFFFFFFFFFC0
07FFFFFFFFFFFFFFFFFFFFFFFFFFFFFFFFC0
03FFFFFFFFFFFFFFFFFFFFFFFFFFFFFFFF80
03FFFFFFFFFFFFFFFFFFFFFFFFFFFFFFFF80
01FFFFFFFFFFFFFFFFFFFFFFFFFFFFFFFF00
00FFFFFFFFFFFFFFFFFFFFFFFFFFFFFFFF00
00FFFFFFFFFFFFFFFFFFFFFFFFFFFFFFFE00
007FFFFFFFFFFFFFFFFFFFFFFFFFFFFFFC00
003FFFFFFFFFFFFFFFFFFFFFFFFFFFFFFC00
001FFFFFFFFFFFFFFFFFFFFFFFFFFFFFF800
000FFFFFFFFFFFFFFFFFFFFFFFFFFFFFF000
0007FFFFFFFFFFFFFFFFFFFFFFFFFFFFE000
0003FFFFFFFFFFFFFFFFFFFFFFFFFFFFC000
0001FFFFFFFFFFFFFFFFFFFFFFFFFFFF8000
0000FFFFFFFFFFFFFFFFFFFFFFFFFFFF0000
00003FFFFFFFFFFFFFFFFFFFFFFFFFFE0000
00001FFFFFFFFFFFFFFFFFFFFFFFFFFC0000
000007FFFFFFFFFFFFFFFFFFFFFFFFF00000
000001FFFFFFFFFFFFFFFFFFFFFFFFE00000
0000007FFFFFFFFFFFFFFFFFFFFFFF800000
0000001FFFFFFFFFFFFFFFFFFFFFFE000000
00000003FFFFFFFFFFFFFFFFFFFFF0000000
000000001FFFFFFFFFFFFFFFFFFF00000000
ENDCHAR
STARTCHAR 0048
ENCODING 72
SWIDTH 888 0
DWIDTH 160 0
BBX 144 138 0 -2
BITMAP
003F8000000000000000000000000001FC00
01FFF00000000000000000000000000FFF80
03FFF80000000000000000000000001FFFC0
07FFFC0000000000000000000000007FFFF0
1FFFFF000000000000000000000000FFFFF8
1FFFFF000000000000000000000000FFFFF8
3FFFFF800000000000000000000001FFFFFC
7FFFFFC00000000000000000000003FFFFFE
7FFFFFC00000000000000000000003FFFFFE
7FFFFFC00000000000000000000003FFFFFE
FFFFFFE00000000000000000000007FFFFFF
FFFFFFE00000000000000000000007FFFFFF
FFFFFFE00000000000000000000007FFFFFF
FFFFFFE00000000000000000000007FFFFFF
FFFFFFE00000000000000000000007FFFFFF
FFFFFFE00000000000000000000007FFFFFF
FFFFFFE00000000000000000000007FFFFFF
FFFFFFE00000000000000000000007FFFFFF
FFFFFFE00000000000000000000007FFFFFF
FFFFFFE00000000000000000000007FFFFFF
FFFFFFE00000000000000000000007FFFFFF
FFFFFFE00000000000000000000007FFFFFF
FFFFFFE00000000000000000000007FFFFFF
FFFFFFE00000000000000000000007FFFFFF
FFFFFFE00000000000000000000007FFFFFF
FFFFFFE00000000000000000000007FFFFFF
FFFFFFE00000000000000000000007FFFFFF
FFFFFFE00000000000000000000007FFFFFF
FFFFFFE00000000000000000000007FFFFFF
FFFFFFE00000000000000000000007FFFFFF
FFFFFFE00000000000000000000007FFFFFF
FFFFFFE00000000000000000000007FFFFFF
FFFFFFE00000000000000000000007FFFFFF
FFFFFFE00000000000000000000007FFFFFF
FFFFFFE00000000000000000000007FFFFFF
FFFFFFE00000000000000000000007FFFFFF
FFFFFFE00000000000000000000007FFFFFF
FFFFFFE00000000000000000000007FFFFFF
FFFFFFE00000000000000000000007FFFFFF
FFFFFFE00000000000000000000007FFFFFF
FFFFFFE00000000000000000000007FFFFFF
FFFFFFE00000000000000000000007FFFFFF
FFFFFFE00000000000000000000007FFFFFF
FFFFFFE00000000000000000000007FFFFFF
FFFFFFE00000000000000000000007FFFFFF
FFFFFFE00000000000000000000007FFFFFF
FFFFFFE00000000000000000000007FFFFFF
FFFFFFE00000000000000000000007FFFFFF
FFFFFFE00000000000000000000007FFFFFF
FFFFFFE00000000000000000000007FFFFFF
FFFFFFE00000000000000000000007FFFFFF
FFFFFFE00000000000000000000007FFFFFF
FFFFFFE00000000000000000000007FFFFFF
FFFFFFE00000000000000000000007FFFFFF
FFFFFFE00000000000000000000007FFFFFF
FFFFFFE00000000000000000000007FFFFFF
FFFFFFE00000000000000000000007FFFFFF
FFFFFFE00000000000000000000007FFFFFF
FFFFFFE00000000000000000000007FFFFFF
FFFFFFE00000000000000000000007FFFFFF
FFFFFFFFFFFFFFFFFFFFFFFFFFFFFFFFFFFF
FFFFFFFFFFFFFFFFFFFFFFFFFFFFFFFFFFFF
FFFFFFFFFFFFFFFFFFFFFFFFFFFFFFFFFFFF
FFFFFFFFFFFFFFFFFFFFFFFFFFFFFFFFFFFF
FFFFFFFFFFFFFFFFFFFFFFFFFFFFFFFFFFFF
FFFFFFFFFFFFFFFFFFFFFFFFFFFFFFFFFFFF
FFFFFFFFFFFFFFFFFFFFFFFFFFFFFFFFFFFF
FFFFFFFFFFFFFFFFFFFFFFFFFFFFFFFFFFFF
FFFFFFFFFFFFFFFFFFFFFFFFFFFFFFFFFFFF
FFFFFFFFFFFFFFFFFFFFFFFFFFFFFFFFFFFF
FFFFFFFFFFFFFFFFFFFFFFFFFFFFFFFFFFFF
FFFFFFFFFFFFFFFFFFFFFFFFFFFFFFFFFFFF
FFFFFFFFFFFFFFFFFFFFFFFFFFFFFFFFFFFF
FFFFFFFFFFFFFFFFFFFFFFFFFFFFFFFFFFFF
FFFFFFFFFFFFFFFFFFFFFFFFFFFFFFFFFFFF
FFFFFFFFFFFFFFFFFFFFFFFFFFFFFFFFFFFF
FFFFFFFFFFFFFFFFFFFFFFFFFFFFFFFFFFFF
FFFFFFFFFFFFFFFFFFFFFFFFFFFFFFFFFFFF
FFFFFFFFFFFFFFFFFFFFFFFFFFFFFFFFFFFF
FFFFFFFFFFFFFFFFFFFFFFFFFFFFFFFFFFFF
FFFFFFFFFFFFFFFFFFFFFFFFFFFFFFFFFFFF
FFFFFFFFFFFFFFFFFFFFFFFFFFFFFFFFFFFF
FFFFFFFFFFFFFFFFFFFFFFFFFFFFFFFFFFFF
FFFFFFFFFFFFFFFFFFFFFFFFFFFFFFFFFFFF
FFFFFFFFFFFFFFFFFFFFFFFFFFFFFFFFFFFF
FFFFFFFFFFFFFFFFFFFFFFFFFFFFFFFFFFFF
FFFFFFFFFFFFFFFFFFFFFFFFFFFFFFFFFFFF
FFFFFFE00000000000000000000007FFFFFF
FFFFFFE00000000000000000000007FFFFFF
FFFFFFE00000000000000000000007FFFFFF
FFFFFFE00000000000000000000007FFFFFF
FFFFFFE00000000000000000000007FFFFFF
FFFFFFE00000000000000000000007FFFFFF
FFFFFFE00000000000000000000007FFFFFF
FFFFFFE00000000000000000000007FFFFFF
FFFFFFE00000000000000000000007FFFFFF
FFFFFFE00000000000000000000007FFFFFF
FFFFFFE00000000000000000000007FFFFFF
FFFFFFE00000000000000000000007FFFFFF
FFFFFFE00000000000000000000007FFFFFF
FFFFFFE00000000000000000000007FFFFFF
FFFFFFE00000000000000000000007FFFFFF
FFFFFFE00000000000000000000007FFFFFF
FFFFFFE00000000000000000000007FFFFFF
FFFFFFE00000000000000000000007FFFFFF
FFFFFFE00000000000000000000007FFFFFF
FFFFFFE00000000000000000000007FFFFFF
FFFFFFE00000000000000000000007FFFFFF
FFFFFFE00000000000000000000007FFFFFF
FFFFFFE00000000000000000000007FFFFFF
FFFFFFE00000000000000000000007FFFFFF
FFFFFFE00000000000000000000007FFFFFF
FFFFFFE00000000000000000000007FFFFFF
FFFFFFE00000000000000000000007FFFFFF
FFFFFFE00000000000000000000007FFFFFF
FFFFFFE00000000000000000000007FFFFFF
FFFFFFE00000000000000000000007FFFFFF
FFFFFFE00000000000000000000007FFFFFF
FFFFFFE00000000000000000000007FFFFFF
FFFFFFE00000000000000000000007FFFFFF
FFFFFFE00000000000000000000007FFFFFF
FFFFFFE00000000000000000000007FFFFFF
FFFFFFE00000000000000000000007FFFFFF
FFFFFFE00000000000000000000007FFFFFF
FFFFFFE00000000000000000000007FFFFFF
FFFFFFE00000000000000000000007FFFFFF
FFFFFFE00000000000000000000007FFFFFF
FFFFFFE00000000000000000000007FFFFFF
7FFFFFC00000000000000000000003FFFFFE
7FFFFFC00000000000000000000003FFFFFE
7FFFFFC00000000000000000000003FFFFFE
3FFFFF800000000000000000000001FFFFFC
1FFFFF000000000000000000000000FFFFF8
1FFFFF000000000000000000000000FFFFF8
0FFFFE0000000000000000000000007FFFF0
03FFF80000000000000000000000001FFFC0
01FFF00000000000000000000000000FFF80
003F8000000000000000000000000001FC00
ENDCHAR
STARTCHAR 0049
ENCODING 73
SWIDTH 250 0
DWIDTH 45 0
BBX 27 138 0 -2
BITMAP
003F8000
01FFF000
03FFF800
0FFFFC00
1FFFFF00
1FFFFF00
3FFFFF80
7FFFFFC0
7FFFFFC0
7FFFFFC0
FFFFFFE0
FFFFFFE0
FFFFFFE0
FFFFFFE0
FFFFFFE0
FFFFFFE0
FFFFFFE0
FFFFFFE0
FFFFFFE0
FFFFFFE0
FFFFFFE0
FFFFFFE0
FFFFFFE0
FFFFFFE0
FFFFFFE0
FFFFFFE0
FFFFFFE0
FFFFFFE0
FFFFFFE0
FFFFFFE0
FFFFFFE0
FFFFFFE0
FFFFFFE0
FFFFFFE0
FFFFFFE0
FFFFFFE0
FFFFFFE0
FFFFFFE0
FFFFFFE0
FFFFFFE0
FFFFFFE0
FFFFFFE0
FFFFFFE0
FFFFFFE0
FFFFFFE0
FFFFFFE0
FFFFFFE0
FFFFFFE0
FFFFFFE0
FFFFFFE0
FFFFFFE0
FFFFFFE0
FFFFFFE0
FFFFFFE0
FFFFFFE0
FFFFFFE0
FFFFFFE0
FFFFFFE0
FFFFFFE0
FFFFFFE0
FFFFFFE0
FFFFFFE0
FFFFFFE0
FFFFFFE0
FFFFFFE0
FFFFFFE0
FFFFFFE0
FFFFFFE0
FFFFFFE0
FFFFFFE0
FFFFFFE0
FFFFFFE0
FFFFFFE0
FFFFFFE0
FFFFFFE0
FFFFFFE0
FFFFFFE0
FFFFFFE0
FFFFFFE0
FFFFFFE0
FFFFFFE0
FFFFFFE0
FFFFFFE0
FFFFFFE0
FFFFFFE0
FFFFFFE0
FFFFFFE0
FFFFFFE0
FFFFFFE0
FFFFFFE0
FFFFFFE0
FFFFFFE0
FFFFFFE0
FFFFFFE0
FFFFFFE0
FFFFFFE0
FFFFFFE0
FFFFFFE0
FFFFFFE0
FFFFFFE0
FFFFFFE0
FFFFFFE0
FFFFFFE0
FFFFFFE0
FFFFFFE0
FFFFFFE0
FFFFFFE0
FFFFFFE0
FFFFFFE0
FFFFFFE0
FFFFFFE0
FFFFFFE0
FFFFFFE0
FFFFFFE0
FFFFFFE0
FFFFFFE0
FFFFFFE0
FFFFFFE0
FFFFFFE0
FFFFFFE0
FFFFFFE0
FFFFFFE0
FFFFFFE0
FFFFFFE0
FFFFFFE0
FFFFFFE0
FFFFFFE0
FFFFFFE0
7FFFFFC0
7FFFFFC0
7FFFFFC0
3FFFFF80
1FFFFF00
1FFFFF00
0FFFFE00
03FFF800
01FFF000
003F8000
ENDCHAR
STARTCHAR 004A
ENCODING 74
SWIDTH 888 0
DWIDTH 160 0
BBX 143 136 0 0
BITMAP
00000000000000000000000000000007F800
0000000000000000000000000000001FFF00
0000000000000000000000000000007FFF80
000000000000000000000000000000FFFFC0
000000000000000000000000000001FFFFE0
000000000000000000000000000003FFFFF0
000000000000000000000000000003FFFFF8
000000000000000000000000000007FFFFF8
000000000000000000000000000007FFFFFC
00000000000000000000000000000FFFFFFC
00000000000000000000000000000FFFFFFE
00000000000000000000000000000FFFFFFE
00000000000000000000000000000FFFFFFE
00000000000000000000000000000FFFFFFE
00000000000000000000000000000FFFFFFE
00000000000000000000000000000FFFFFFE
00000000000000000000000000000FFFFFFE
00000000000000000000000000000FFFFFFE
00000000000000000000000000000FFFFFFE
00000000000000000000000000000FFFFFFE
00000000000000000000000000000FFFFFFE
00000000000000000000000000000FFFFFFE
00000000000000000000000000000FFFFFFE
00000000000000000000000000000FFFFFFE
00000000000000000000000000000FFFFFFE
00000000000000000000000000000FFFFFFE
00000000000000000000000000000FFFFFFE
00000000000000000000000000000FFFFFFE
00000000000000000000000000000FFFFFFE
00000000000000000000000000000FFFFFFE
00000000000000000000000000000FFFFFFE
00000000000000000000000000000FFFFFFE
00000000000000000000000000000FFFFFFE
00000000000000000000000000000FFFFFFE
00000000000000000000000000000FFFFFFE
00000000000000000000000000000FFFFFFE
00000000000000000000000000000FFFFFFE
00000000000000000000000000000FFFFFFE
00000000000000000000000000000FFFFFFE
00000000000000000000000000000FFFFFFE
00000000000000000000000000000FFFFFFE
00000000000000000000000000000FFFFFFE
00000000000000000000000000000FFFFFFE
00000000000000000000000000000FFFFFFE
00000000000000000000000000000FFFFFFE
00000000000000000000000000000FFFFFFE
00000000000000000000000000000FFFFFFE
00000000000000000000000000000FFFFFFE
00000000000000000000000000000FFFFFFE
00000000000000000000000000000FFFFFFE
00000000000000000000000000000FFFFFFE
00000000000000000000000000000FFFFFFE
00000000000000000000000000000FFFFFFE
00000000000000000000000000000FFFFFFE
00000000000000000000000000000FFFFFFE
00000000000000000000000000000FFFFFFE
00000000000000000000000000000FFFFFFE
00000000000000000000000000000FFFFFFE
00000000000000000000000000000FFFFFFE
00000000000000000000000000000FFFFFFE
00000000000000000000000000000FFFFFFE
00000000000000000000000000000FFFFFFE
00000000000000000000000000000FFFFFFE
00000000000000000000000000000FFFFFFE
00000000000000000000000000000FFFFFFE
00000000000000000000000000000FFFFFFE
00000000000000000000000000000FFFFFFE
00000000000000000000000000000FFFFFFE
00000000000000000000000000000FFFFFFE
00000000000000000000000000000FFFFFFE
00000000000000000000000000000FFFFFFE
00000000000000000000000000000FFFFFFE
00000000000000000000000000000FFFFFFE
00000000000000000000000000000FFFFFFE
00000000000000000000000000000FFFFFFE
00000000000000000000000000000FFFFFFE
00000000000000000000000000000FFFFFFE
00000000000000000000000000000FFFFFFE
00000000000000000000000000000FFFFFFE
00000000000000000000000000000FFFFFFE
00000000000000000000000000000FFFFFFE
00000000000000000000000000000FFFFFFE
00000000000000000000000000000FFFFFFE
00000000000000000000000000000FFFFFFE
00000000000000000000000000000FFFFFFE
00000000000000000000000000000FFFFFFE
00000000000000000000000000000FFFFFFE
00000000000000000000000000000FFFFFFE
00000000000000000000000000000FFFFFFE
00000000000000000000000000000FFFFFFE
00000000000000000000000000000FFFFFFE
00FFC000000000000000000000000FFFFFFE
03FFF000000000000000000000000FFFFFFE
07FFFC00000000000000000000000FFFFFFE
0FFFFE00000000000000000000000FFFFFFE
1FFFFF00000000000000000000000FFFFFFE
3FFFFF80000000000000000000001FFFFFFE
7FFFFF80000000000000000000001FFFFFFE
7FFFFFC0000000000000000000001FFFFFFE
7FFFFFC0000000000000000000003FFFFFFC
FFFFFFC0000000000000000000003FFFFFFC
FFFFFFE0000000000000000000007FFFFFFC
FFFFFFE0000000000000000000007FFFFFFC
FFFFFFE000000000000000000000FFFFFFFC
FFFFFFE000000000000000000001FFFFFFF8
FFFFFFE000000000000000000003FFFFFFF8
FFFFFFE000000000000000000007FFFFFFF8
FFFFFFF00000000000000000001FFFFFFFF8
FFFFFFF8000000000000000000FFFFFFFFF0
FFFFFFFFFFFFFFFFFFFFFFFFFFFFFFFFFFF0
FFFFFFFFFFFFFFFFFFFFFFFFFFFFFFFFFFE0
7FFFFFFFFFFFFFFFFFFFFFFFFFFFFFFFFFE0
7FFFFFFFFFFFFFFFFFFFFFFFFFFFFFFFFFC0
7FFFFFFFFFFFFFFFFFFFFFFFFFFFFFFFFFC0
7FFFFFFFFFFFFFFFFFFFFFFFFFFFFFFFFF80
3FFFFFFFFFFFFFFFFFFFFFFFFFFFFFFFFF80
3FFFFFFFFFFFFFFFFFFFFFFFFFFFFFFFFF00
1FFFFFFFFFFFFFFFFFFFFFFFFFFFFFFFFE00
1FFFFFFFFFFFFFFFFFFFFFFFFFFFFFFFFE00
0FFFFFFFFFFFFFFFFFFFFFFFFFFFFFFFFC00
0FFFFFFFFFFFFFFFFFFFFFFFFFFFFFFFF800
07FFFFFFFFFFFFFFFFFFFFFFFFFFFFFFF000
03FFFFFFFFFFFFFFFFFFFFFFFFFFFFFFE000
03FFFFFFFFFFFFFFFFFFFFFFFFFFFFFFC000
01FFFFFFFFFFFFFFFFFFFFFFFFFFFFFF8000
00FFFFFFFFFFFFFFFFFFFFFFFFFFFFFF0000
007FFFFFFFFFFFFFFFFFFFFFFFFFFFFE0000
003FFFFFFFFFFFFFFFFFFFFFFFFFFFFC0000
001FFFFFFFFFFFFFFFFFFFFFFFFFFFF80000
000FFFFFFFFFFFFFFFFFFFFFFFFFFFE00000
0003FFFFFFFFFFFFFFFFFFFFFFFFFFC00000
0001FFFFFFFFFFFFFFFFFFFFFFFFFF000000
00007FFFFFFFFFFFFFFFFFFFFFFFFC000000
00001FFFFFFFFFFFFFFFFFFFFFFFE0000000
000003FFFFFFFFFFFFFFFFFFFFFF00000000
0000003FFFFFFFFFFFFFFFFFFFE000000000
ENDCHAR
STARTCHAR 004B
ENCODING 75
SWIDTH 888 0
DWIDTH 160 0
BBX 149 138 0 -2
BITMAP
003F80000000000000000000000000FE000000
01FFF0000000000000000000000007FF800000
03FFF800000000000000000000001FFFE00000
0FFFFE00000000000000000000003FFFF00000
1FFFFF00000000000000000000007FFFF80000
1FFFFF0000000000000000000000FFFFFC0000
3FFFFF8000000000000000000000FFFFFE0000
7FFFFFC000000000000000000001FFFFFE0000
7FFFFFC000000000000000000001FFFFFF0000
7FFFFFC000000000000000000003FFFFFF0000
FFFFFFE000000000000000000003FFFFFF0000
FFFFFFE000000000000000000003FFFFFF8000
FFFFFFE000000000000000000003FFFFFF8000
FFFFFFE000000000000000000007FFFFFF8000
FFFFFFE000000000000000000007FFFFFF8000
FFFFFFE000000000000000000007FFFFFF0000
FFFFFFE000000000000000000007FFFFFF0000
FFFFFFE000000000000000000007FFFFFF0000
FFFFFFE00000000000000000000FFFFFFF0000
FFFFFFE00000000000000000000FFFFFFF0000
FFFFFFE00000000000000000000FFFFFFE0000
FFFFFFE00000000000000000000FFFFFFE0000
FFFFFFE00000000000000000001FFFFFFE0000
FFFFFFE00000000000000000001FFFFFFE0000
FFFFFFE00000000000000000001FFFFFFC0000
FFFFFFE00000000000000000001FFFFFFC0000
FFFFFFE00000000000000000003FFFFFFC0000
FFFFFFE00000000000000000003FFFFFFC0000
FFFFFFE00000000000000000003FFFFFFC0000
FFFFFFE00000000000000000003FFFFFF80000
FFFFFFE00000000000000000003FFFFFF80000
FFFFFFE00000000000000000007FFFFFF80000
FFFFFFE00000000000000000007FFFFFF80000
FFFFFFE00000000000000000007FFFFFF00000
FFFFFFE00000000000000000007FFFFFF00000
FFFFFFE0000000000000000000FFFFFFF00000
FFFFFFE0000000000000000000FFFFFFF00000
FFFFFFE0000000000000000000FFFFFFF00000
FFFFFFE0000000000000000000FFFFFFE00000
FFFFFFE0000000000000000001FFFFFFE00000
FFFFFFE0000000000000000001FFFFFFE00000
FFFFFFE0000000000000000003FFFFFFE00000
FFFFFFE0000000000000000007FFFFFFC00000
FFFFFFE000000000000000000FFFFFFFC00000
FFFFFFE000000000000000001FFFFFFFC00000
FFFFFFE000000000000000003FFFFFFFC00000
FFFFFFE000000000000000007FFFFFFF800000
FFFFFFE00000000000000003FFFFFFFF800000
FFFFFFE0000000000000003FFFFFFFFF000000
FFFFFFFFFFFFFFFFFFFFFFFFFFFFFFFF000000
FFFFFFFFFFFFFFFFFFFFFFFFFFFFFFFF000000
FFFFFFFFFFFFFFFFFFFFFFFFFFFFFFFE000000
FFFFFFFFFFFFFFFFFFFFFFFFFFFFFFFE000000
FFFFFFFFFFFFFFFFFFFFFFFFFFFFFFFC000000
FFFFFFFFFFFFFFFFFFFFFFFFFFFFFFF8000000
FFFFFFFFFFFFFFFFFFFFFFFFFFFFFFF8000000
FFFFFFFFFFFFFFFFFFFFFFFFFFFFFFF0000000
FFFFFFFFFFFFFFFFFFFFFFFFFFFFFFE0000000
FFFFFFFFFFFFFFFFFFFFFFFFFFFFFFF8000000
FFFFFFFFFFFFFFFFFFFFFFFFFFFFFFFC000000
FFFFFFFFFFFFFFFFFFFFFFFFFFFFFFFE000000
FFFFFFFFFFFFFFFFFFFFFFFFFFFFFFFF000000
FFFFFFFFFFFFFFFFFFFFFFFFFFFFFFFF800000
FFFFFFFFFFFFFFFFFFFFFFFFFFFFFFFFC00000
FFFFFFFFFFFFFFFFFFFFFFFFFFFFFFFFE00000
FFFFFFFFFFFFFFFFFFFFFFFFFFFFFFFFE00000
FFFFFFFFFFFFFFFFFFFFFFFFFFFFFFFFF00000
FFFFFFFFFFFFFFFFFFFFFFFFFFFFFFFFF80000
FFFFFFFFFFFFFFFFFFFFFFFFFFFFFFFFFC0000
FFFFFFFFFFFFFFFFFFFFFFFFFFFFFFFFFC0000
FFFFFFFFFFFFFFFFFFFFFFFFFFFFFFFFFE0000
FFFFFFFFFFFFFFFFFFFFFFFFFFFFFFFFFE0000
FFFFFFFFFFFFFFFFFFFFFFFFFFFFFFFFFF0000
FFFFFFFFFFFFFFFFFFFFFFFFFFFFFFFFFF0000
FFFFFFFFFFFFFFFFFFFFFFFFFFFFFFFFFF8000
FFFFFFE000000000000000001FFFFFFFFF8000
FFFFFFE0000000000000000001FFFFFFFF8000
FFFFFFE00000000000000000007FFFFFFFC000
FFFFFFE00000000000000000001FFFFFFFC000
FFFFFFE00000000000000000000FFFFFFFC000
FFFFFFE000000000000000000007FFFFFFE000
FFFFFFE000000000000000000003FFFFFFE000
FFFFFFE000000000000000000001FFFFFFE000
FFFFFFE000000000000000000001FFFFFFE000
FFFFFFE000000000000000000000FFFFFFF000
FFFFFFE000000000000000000000FFFFFFF000
FFFFFFE0000000000000000000007FFFFFF000
FFFFFFE0000000000000000000007FFFFFF000
FFFFFFE0000000000000000000007FFFFFF800
FFFFFFE0000000000000000000007FFFFFF800
FFFFFFE0000000000000000000003FFFFFF800
FFFFFFE0000000000000000000003FFFFFF800
FFFFFFE0000000000000000000003FFFFFFC00
FFFFFFE0000000000000000000003FFFFFFC00
FFFFFFE0000000000000000000003FFFFFFC00
FFFFFFE0000000000000000000001FFFFFFC00
FFFFFFE0000000000000000000001FFFFFFC00
FFFFFFE0000000000000000000001FFFFFFE00
FFFFFFE0000000000000000000001FFFFFFE00
FFFFFFE0000000000000000000000FFFFFFE00
FFFFFFE0000000000000000000000FFFFFFE00
FFFFFFE0000000000000000000000FFFFFFF00
FFFFFFE0000000000000000000000FFFFFFF00
FFFFFFE00000000000000000000007FFFFFF00
FFFFFFE00000000000000000000007FFFFFF00
FFFFFFE00000000000000000000007FFFFFF80
FFFFFFE00000000000000000000007FFFFFF80
FFFFFFE00000000000000000000007FFFFFF80
FFFFFFE00000000000000000000003FFFFFF80
FFFFFFE00000000000000000000003FFFFFFC0
FFFFFFE00000000000000000000003FFFFFFC0
FFFFFFE00000000000000000000003FFFFFFC0
FFFFFFE00000000000000000000001FFFFFFC0
FFFFFFE00000000000000000000001FFFFFFC0
FFFFFFE00000000000000000000001FFFFFFE0
FFFFFFE00000000000000000000001FFFFFFE0
FFFFFFE00000000000000000000001FFFFFFE0
FFFFFFE00000000000000000000000FFFFFFE0
FFFFFFE00000000000000000000000FFFFFFF0
FFFFFFE00000000000000000000000FFFFFFF0
FFFFFFE00000000000000000000000FFFFFFF0
FFFFFFE000000000000000000000007FFFFFF0
FFFFFFE000000000000000000000007FFFFFF0
FFFFFFE000000000000000000000007FFFFFF8
FFFFFFE000000000000000000000007FFFFFF8
FFFFFFE000000000000000000000003FFFFFF8
FFFFFFE000000000000000000000003FFFFFF8
FFFFFFE000000000000000000000003FFFFFF0
7FFFFFC000000000000000000000003FFFFFF0
7FFFFFC000000000000000000000001FFFFFF0
7FFFFFC000000000000000000000001FFFFFE0
3FFFFF8000000000000000000000000FFFFFE0
1FFFFF8000000000000000000000000FFFFFC0
1FFFFF00000000000000000000000007FFFF80
0FFFFE00000000000000000000000003FFFF00
03FFFC00000000000000000000000001FFFE00
01FFF0000000000000000000000000007FF800
003F80000000000000000000000000001FE000
ENDCHAR
STARTCHAR 004C
ENCODING 76
SWIDTH 888 0
DWIDTH 160 0
BBX 143 136 0 0
BITMAP
003F80000000000000000000000000000000
01FFF0000000000000000000000000000000
03FFFC000000000000000000000000000000
07FFFE000000000000000000000000000000
0FFFFF000000000000000000000000000000
1FFFFF800000000000000000000000000000
3FFFFF800000000000000000000000000000
7FFFFFC00000000000000000000000000000
7FFFFFC00000000000000000000000000000
7FFFFFE00000000000000000000000000000
FFFFFFE00000000000000000000000000000
FFFFFFE00000000000000000000000000000
FFFFFFE00000000000000000000000000000
FFFFFFE00000000000000000000000000000
FFFFFFE00000000000000000000000000000
FFFFFFE00000000000000000000000000000
FFFFFFE00000000000000000000000000000
FFFFFFE00000000000000000000000000000
FFFFFFE00000000000000000000000000000
FFFFFFE00000000000000000000000000000
FFFFFFE00000000000000000000000000000
FFFFFFE00000000000000000000000000000
FFFFFFE00000000000000000000000000000
FFFFFFE00000000000000000000000000000
FFFFFFE00000000000000000000000000000
FFFFFFE00000000000000000000000000000
FFFFFFE00000000000000000000000000000
FFFFFFE00000000000000000000000000000
FFFFFFE00000000000000000000000000000
FFFFFFE00000000000000000000000000000
FFFFFFE00000000000000000000000000000
FFFFFFE00000000000000000000000000000
FFFFFFE00000000000000000000000000000
FFFFFFE00000000000000000000000000000
FFFFFFE00000000000000000000000000000
FFFFFFE00000000000000000000000000000
FFFFFFE00000000000000000000000000000
FFFFFFE00000000000000000000000000000
FFFFFFE00000000000000000000000000000
FFFFFFE00000000000000000000000000000
FFFFFFE00000000000000000000000000000
FFFFFFE00000000000000000000000000000
FFFFFFE00000000000000000000000000000
FFFFFFE00000000000000000000000000000
FFFFFFE00000000000000000000000000000
FFFFFFE00000000000000000000000000000
FFFFFFE00000000000000000000000000000
FFFFFFE00000000000000000000000000000
FFFFFFE00000000000000000000000000000
FFFFFFE00000000000000000000000000000
FFFFFFE00000000000000000000000000000
FFFFFFE00000000000000000000000000000
FFFFFFE00000000000000000000000000000
FFFFFFE00000000000000000000000000000
FFFFFFE00000000000000000000000000000
FFFFFFE00000000000000000000000000000
FFFFFFE00000000000000000000000000000
FFFFFFE00000000000000000000000000000
FFFFFFE00000000000000000000000000000
FFFFFFE00000000000000000000000000000
FFFFFFE00000000000000000000000000000
FFFFFFE00000000000000000000000000000
FFFFFFE00000000000000000000000000000
FFFFFFE00000000000000000000000000000
FFFFFFE00000000000000000000000000000
FFFFFFE00000000000000000000000000000
FFFFFFE00000000000000000000000000000
FFFFFFE00000000000000000000000000000
FFFFFFE00000000000000000000000000000
FFFFFFE00000000000000000000000000000
FFFFFFE00000000000000000000000000000
FFFFFFE00000000000000000000000000000
FFFFFFE00000000000000000000000000000
FFFFFFE00000000000000000000000000000
FFFFFFE00000000000000000000000000000
FFFFFFE00000000000000000000000000000
FFFFFFE00000000000000000000000000000
FFFFFFE00000000000000000000000000000
FFFFFFE00000000000000000000000000000
FFFFFFE00000000000000000000000000000
FFFFFFE00000000000000000000000000000
FFFFFFE00000000000000000000000000000
FFFFFFE00000000000000000000000000000
FFFFFFE00000000000000000000000000000
FFFFFFE00000000000000000000000000000
FFFFFFE00000000000000000000000000000
FFFFFFE00000000000000000000000000000
FFFFFFE00000000000000000000000000000
FFFFFFE00000000000000000000000000000
FFFFFFE00000000000000000000000000000
FFFFFFE00000000000000000000000000000
FFFFFFE0000000000000000000000007FE00
FFFFFFE000000000000000000000001FFF80
FFFFFFE000000000000000000000007FFFC0
FFFFFFE00000000000000000000000FFFFE0
FFFFFFE00000000000000000000001FFFFF0
FFFFFFE00000000000000000000003FFFFF8
FFFFFFF00000000000000000000003FFFFFC
FFFFFFF00000000000000000000007FFFFFC
7FFFFFF00000000000000000000007FFFFFC
7FFFFFF80000000000000000000007FFFFFE
7FFFFFF8000000000000000000000FFFFFFE
7FFFFFFC000000000000000000000FFFFFFE
7FFFFFFE000000000000000000000FFFFFFE
3FFFFFFF000000000000000000000FFFFFFE
3FFFFFFF800000000000000000000FFFFFFE
3FFFFFFFC00000000000000000000FFFFFFE
3FFFFFFFF00000000000000000001FFFFFFE
1FFFFFFFFE0000000000000000003FFFFFFE
1FFFFFFFFFFFFFFFFFFFFFFFFFFFFFFFFFFE
0FFFFFFFFFFFFFFFFFFFFFFFFFFFFFFFFFFE
0FFFFFFFFFFFFFFFFFFFFFFFFFFFFFFFFFFC
0FFFFFFFFFFFFFFFFFFFFFFFFFFFFFFFFFFC
07FFFFFFFFFFFFFFFFFFFFFFFFFFFFFFFFFC
03FFFFFFFFFFFFFFFFFFFFFFFFFFFFFFFFFC
03FFFFFFFFFFFFFFFFFFFFFFFFFFFFFFFFF8
01FFFFFFFFFFFFFFFFFFFFFFFFFFFFFFFFF8
01FFFFFFFFFFFFFFFFFFFFFFFFFFFFFFFFF0
00FFFFFFFFFFFFFFFFFFFFFFFFFFFFFFFFF0
007FFFFFFFFFFFFFFFFFFFFFFFFFFFFFFFE0
003FFFFFFFFFFFFFFFFFFFFFFFFFFFFFFFE0
001FFFFFFFFFFFFFFFFFFFFFFFFFFFFFFFC0
000FFFFFFFFFFFFFFFFFFFFFFFFFFFFFFF80
0007FFFFFFFFFFFFFFFFFFFFFFFFFFFFFF80
0003FFFFFFFFFFFFFFFFFFFFFFFFFFFFFF00
0001FFFFFFFFFFFFFFFFFFFFFFFFFFFFFE00
0000FFFFFFFFFFFFFFFFFFFFFFFFFFFFFC00
00007FFFFFFFFFFFFFFFFFFFFFFFFFFFF800
00003FFFFFFFFFFFFFFFFFFFFFFFFFFFF000
00000FFFFFFFFFFFFFFFFFFFFFFFFFFFE000
000007FFFFFFFFFFFFFFFFFFFFFFFFFF8000
000001FFFFFFFFFFFFFFFFFFFFFFFFFF0000
0000007FFFFFFFFFFFFFFFFFFFFFFFFC0000
0000000FFFFFFFFFFFFFFFFFFFFFFFF00000
00000001FFFFFFFFFFFFFFFFFFFFFF800000
000000000FFFFFFFFFFFFFFFFFFFF8000000
ENDCHAR
STARTCHAR 004D
ENCODING 77
SWIDTH 1144 0
DWIDTH 206 0
BBX 196 136 0 -2
BITMAP
000000000FFFFFFFFFFFFFFFFFFFFFFFFFF800000000000000
00000001FFFFFFFFFFFFFFFFFFFFFFFFFFFFC0000000000000
0000000FFFFFFFFFFFFFFFFFFFFFFFFFFFFFF8000000000000
0000007FFFFFFFFFFFFFFFFFFFFFFFFFFFFFFF000000000000
000001FFFFFFFFFFFFFFFFFFFFFFFFFFFFFFFFC00000000000
000007FFFFFFFFFFFFFFFFFFFFFFFFFFFFFFFFF00000000000
00000FFFFFFFFFFFFFFFFFFFFFFFFFFFFFFFFFF80000000000
00003FFFFFFFFFFFFFFFFFFFFFFFFFFFFFFFFFFE0000000000
00007FFFFFFFFFFFFFFFFFFFFFFFFFFFFFFFFFFF0000000000
0000FFFFFFFFFFFFFFFFFFFFFFFFFFFFFFFFFFFF8000000000
0003FFFFFFFFFFFFFFFFFFFFFFFFFFFFFFFFFFFFE000000000
0007FFFFFFFFFFFFFFFFFFFFFFFFFFFFFFFFFFFFF000000000
000FFFFFFFFFFFFFFFFFFFFFFFFFFFFFFFFFFFFFF800000000
001FFFFFFFFFFFFFFFFFFFFFFFFFFFFFFFFFFFFFFC00000000
003FFFFFFFFFFFFFFFFFFFFFFFFFFFFFFFFFFFFFFE00000000
007FFFFFFFFFFFFFFFFFFFFFFFFFFFFFFFFFFFFFFE00000000
007FFFFFFFFFFFFFFFFFFFFFFFFFFFFFFFFFFFFFFF00000000
00FFFFFFFFFFFFFFFFFFFFFFFFFFFFFFFFFFFFFFFF80000000
01FFFFFFFFFFFFFFFFFFFFFFFFFFFFFFFFFFFFFFFFC0000000
03FFFFFFFFFFFFFFFFFFFFFFFFFFFFFFFFFFFFFFFFC0000000
03FFFFFFFFFFFFFFFFFFFFFFFFFFFFFFFFFFFFFFFFE0000000
07FFFFFFFFFFFFFFFFFFFFFFFFFFFFFFFFFFFFFFFFF0000000
07FFFFFFFFFFFFFFFFFFFFFFFFFFFFFFFFFFFFFFFFF0000000
0FFFFFFFFFFFFFFFFFFFFFFFFFFFFFFFFFFFFFFFFFF8000000
0FFFFFFFFFFFFFFFFFFFFFFFFFFFFFFFFFFFFFFFFFF8000000
1FFFFFFFFFFFFFFFFFFFFFFFFFFFFFFFFFFFFFFFFFFC000000
1FFFFFFFFFFFFFFFFFFFFFFFFFFFFFFFFFFFFFFFFFFC000000
3FFFFFFFFE0000000001FFFFFFC00000001FFFFFFFFC000000
3FFFFFFFF00000000001FFFFFFC000000007FFFFFFFE000000
3FFFFFFFC00000000001FFFFFFC000000001FFFFFFFE000000
7FFFFFFF800000000001FFFFFFC0000000007FFFFFFE000000
7FFFFFFE000000000001FFFFFFC0000000003FFFFFFF000000
7FFFFFFE000000000001FFFFFFC0000000001FFFFFFF000000
7FFFFFFC000000000001FFFFFFC0000000000FFFFFFF000000
FFFFFFF8000000000001FFFFFFC0000000000FFFFFFF800000
FFFFFFF8000000000001FFFFFFC00000000007FFFFFF800000
FFFFFFF0000000000001FFFFFFC00000000007FFFFFF800000
FFFFFFF0000000000001FFFFFFC00000000003FFFFFF800000
FFFFFFE0000000000001FFFFFFC00000000003FFFFFF800000
FFFFFFE0000000000001FFFFFFC00000000003FFFFFFC00000
FFFFFFE0000000000001FFFFFFC00000000001FFFFFFC00000
FFFFFFE0000000000001FFFFFFC00000000001FFFFFFC00000
FFFFFFE0000000000001FFFFFFC00000000001FFFFFFC00000
FFFFFFE0000000000001FFFFFFC00000000001FFFFFFE00000
FFFFFFE0000000000001FFFFFFC00000000001FFFFFFE00000
FFFFFFE0000000000001FFFFFFC00000000000FFFFFFE00000
FFFFFFE0000000000001FFFFFFC00000000000FFFFFFE00000
FFFFFFE0000000000001FFFFFFC00000000000FFFFFFE00000
FFFFFFE0000000000001FFFFFFC00000000000FFFFFFF00000
FFFFFFE0000000000001FFFFFFC000000000007FFFFFF00000
FFFFFFE0000000000001FFFFFFC000000000007FFFFFF00000
FFFFFFE0000000000001FFFFFFC000000000007FFFFFF00000
FFFFFFE0000000000001FFFFFFC000000000007FFFFFF80000
FFFFFFE0000000000001FFFFFFC000000000007FFFFFF80000
FFFFFFE0000000000001FFFFFFC000000000003FFFFFF80000
FFFFFFE0000000000001FFFFFFC000000000003FFFFFF80000
FFFFFFE0000000000001FFFFFFC000000000003FFFFFF80000
FFFFFFE0000000000001FFFFFFC000000000003FFFFFFC0000
FFFFFFE0000000000001FFFFFFC000000000001FFFFFFC0000
FFFFFFE0000000000001FFFFFFC000000000001FFFFFFC0000
FFFFFFE0000000000001FFFFFFC000000000001FFFFFFC0000
FFFFFFE0000000000001FFFFFFC000000000001FFFFFFE0000
FFFFFFE0000000000001FFFFFFC000000000001FFFFFFE0000
FFFFFFE0000000000001FFFFFFC000000000000FFFFFFE0000
FFFFFFE0000000000001FFFFFFC000000000000FFFFFFE0000
FFFFFFE0000000000001FFFFFFC000000000000FFFFFFE0000
FFFFFFE0000000000001FFFFFFC000000000000FFFFFFF0000
FFFFFFE0000000000001FFFFFFC0000000000007FFFFFF0000
FFFFFFE0000000000001FFFFFFC0000000000007FFFFFF0000
FFFFFFE0000000000001FFFFFFC0000000000007FFFFFF0000
FFFFFFE0000000000001FFFFFFC0000000000007FFFFFF8000
FFFFFFE0000000000001FFFFFFC0000000000007FFFFFF8000
FFFFFFE0000000000001FFFFFFC0000000000003FFFFFF8000
FFFFFFE0000000000001FFFFFFC0000000000003FFFFFF8000
FFFFFFE0000000000001FFFFFFC0000000000003FFFFFF8000
FFFFFFE0000000000001FFFFFFC0000000000003FFFFFFC000
FFFFFFE0000000000001FFFFFFC0000000000001FFFFFFC000
FFFFFFE0000000000001FFFFFFC0000000000001FFFFFFC000
FFFFFFE0000000000001FFFFFFC0000000000001FFFFFFC000
FFFFFFE0000000000001FFFFFFC0000000000001FFFFFFE000
FFFFFFE0000000000001FFFFFFC0000000000001FFFFFFE000
FFFFFFE0000000000001FFFFFFC0000000000000FFFFFFE000
FFFFFFE0000000000001FFFFFFC0000000000000FFFFFFE000
FFFFFFE0000000000001FFFFFFC0000000000000FFFFFFE000
FFFFFFE0000000000001FFFFFFC0000000000000FFFFFFF000
FFFFFFE0000000000001FFFFFFC00000000000007FFFFFF000
FFFFFFE0000000000001FFFFFFC00000000000007FFFFFF000
FFFFFFE0000000000001FFFFFFC00000000000007FFFFFF000
FFFFFFE0000000000001FFFFFFC00000000000007FFFFFF800
FFFFFFE0000000000001FFFFFFC00000000000007FFFFFF800
FFFFFFE0000000000001FFFFFFC00000000000003FFFFFF800
FFFFFFE0000000000001FFFFFFC00000000000003FFFFFF800
FFFFFFE0000000000001FFFFFFC00000000000003FFFFFF800
FFFFFFE0000000000001FFFFFFC00000000000003FFFFFFC00
FFFFFFE0000000000001FFFFFFC00000000000001FFFFFFC00
FFFFFFE0000000000001FFFFFFC00000000000001FFFFFFC00
FFFFFFE0000000000001FFFFFFC00000000000001FFFFFFC00
FFFFFFE0000000000001FFFFFFC00000000000001FFFFFFE00
FFFFFFE0000000000001FFFFFFC00000000000001FFFFFFE00
FFFFFFE0000000000001FFFFFFC00000000000000FFFFFFE00
FFFFFFE0000000000001FFFFFFC00000000000000FFFFFFE00
FFFFFFE0000000000001FFFFFFC00000000000000FFFFFFE00
FFFFFFE0000000000001FFFFFFC00000000000000FFFFFFF00
FFFFFFE0000000000001FFFFFFC000000000000007FFFFFF00
FFFFFFE0000000000001FFFFFFC000000000000007FFFFFF00
FFFFFFE0000000000001FFFFFFC000000000000007FFFFFF00
FFFFFFE0000000000001FFFFFFC000000000000007FFFFFF80
FFFFFFE0000000000001FFFFFFC000000000000007FFFFFF80
FFFFFFE0000000000001FFFFFFC000000000000003FFFFFF80
FFFFFFE0000000000001FFFFFFC000000000000003FFFFFF80
FFFFFFE0000000000001FFFFFFC000000000000003FFFFFF80
FFFFFFE0000000000001FFFFFFC000000000000003FFFFFFC0
FFFFFFE0000000000001FFFFFFC000000000000001FFFFFFC0
FFFFFFE0000000000001FFFFFFC000000000000001FFFFFFC0
FFFFFFE0000000000001FFFFFFC000000000000001FFFFFFC0
FFFFFFE0000000000001FFFFFFC000000000000001FFFFFFE0
FFFFFFE0000000000001FFFFFFC000000000000001FFFFFFE0
FFFFFFE0000000000001FFFFFFC000000000000000FFFFFFE0
FFFFFFE0000000000001FFFFFFC000000000000000FFFFFFE0
FFFFFFE0000000000001FFFFFFC000000000000000FFFFFFE0
FFFFFFE0000000000001FFFFFFC000000000000000FFFFFFF0
FFFFFFE0000000000001FFFFFFC0000000000000007FFFFFF0
FFFFFFE0000000000001FFFFFFC0000000000000007FFFFFF0
FFFFFFE0000000000001FFFFFFC0000000000000007FFFFFF0
FFFFFFE0000000000001FFFFFFC0000000000000007FFFFFF0
FFFFFFE0000000000001FFFFFFC0000000000000007FFFFFF0
FFFFFFC0000000000001FFFFFF80000000000000003FFFFFE0
7FFFFFC0000000000000FFFFFF80000000000000003FFFFFE0
7FFFFFC0000000000000FFFFFF00000000000000003FFFFFC0
3FFFFF800000000000007FFFFF00000000000000001FFFFFC0
3FFFFF000000000000007FFFFE00000000000000000FFFFF80
1FFFFE000000000000003FFFFC00000000000000000FFFFF00
0FFFFE000000000000001FFFF8000000000000000007FFFE00
07FFF8000000000000000FFFF0000000000000000001FFFC00
01FFF00000000000000003FFC0000000000000000000FFF800
003F8000000000000000007F000000000000000000001FC000
ENDCHAR
STARTCHAR 004E
ENCODING 78
SWIDTH 888 0
DWIDTH 160 0
BBX 152 136 0 -2
BITMAP
000000000FFFFFFFFFFFFFFF80000000000000
00000001FFFFFFFFFFFFFFFFFC000000000000
0000000FFFFFFFFFFFFFFFFFFF800000000000
0000007FFFFFFFFFFFFFFFFFFFF00000000000
000001FFFFFFFFFFFFFFFFFFFFFC0000000000
000007FFFFFFFFFFFFFFFFFFFFFF0000000000
00000FFFFFFFFFFFFFFFFFFFFFFF8000000000
00003FFFFFFFFFFFFFFFFFFFFFFFE000000000
00007FFFFFFFFFFFFFFFFFFFFFFFF000000000
0000FFFFFFFFFFFFFFFFFFFFFFFFFC00000000
0001FFFFFFFFFFFFFFFFFFFFFFFFFE00000000
0007FFFFFFFFFFFFFFFFFFFFFFFFFF00000000
000FFFFFFFFFFFFFFFFFFFFFFFFFFF80000000
001FFFFFFFFFFFFFFFFFFFFFFFFFFFC0000000
001FFFFFFFFFFFFFFFFFFFFFFFFFFFE0000000
003FFFFFFFFFFFFFFFFFFFFFFFFFFFF0000000
007FFFFFFFFFFFFFFFFFFFFFFFFFFFF8000000
00FFFFFFFFFFFFFFFFFFFFFFFFFFFFF8000000
01FFFFFFFFFFFFFFFFFFFFFFFFFFFFFC000000
01FFFFFFFFFFFFFFFFFFFFFFFFFFFFFE000000
03FFFFFFFFFFFFFFFFFFFFFFFFFFFFFE000000
07FFFFFFFFFFFFFFFFFFFFFFFFFFFFFF000000
07FFFFFFFFFFFFFFFFFFFFFFFFFFFFFF000000
0FFFFFFFFFFFFFFFFFFFFFFFFFFFFFFF800000
0FFFFFFFFFFFFFFFFFFFFFFFFFFFFFFF800000
1FFFFFFFFFFFFFFFFFFFFFFFFFFFFFFFC00000
1FFFFFFFFFFFFFFFFFFFFFFFFFFFFFFFC00000
1FFFFFFFFE00000000000001FFFFFFFFE00000
3FFFFFFFF0000000000000003FFFFFFFE00000
3FFFFFFFC0000000000000001FFFFFFFE00000
3FFFFFFF800000000000000007FFFFFFF00000
7FFFFFFF000000000000000003FFFFFFF00000
7FFFFFFE000000000000000001FFFFFFF00000
7FFFFFFC000000000000000000FFFFFFF80000
7FFFFFF80000000000000000007FFFFFF80000
7FFFFFF80000000000000000007FFFFFF80000
FFFFFFF00000000000000000003FFFFFF80000
FFFFFFF00000000000000000003FFFFFF80000
FFFFFFF00000000000000000003FFFFFFC0000
FFFFFFE00000000000000000003FFFFFFC0000
FFFFFFE00000000000000000001FFFFFFC0000
FFFFFFE00000000000000000001FFFFFFC0000
FFFFFFE00000000000000000001FFFFFFE0000
FFFFFFE00000000000000000001FFFFFFE0000
FFFFFFE00000000000000000000FFFFFFE0000
FFFFFFE00000000000000000000FFFFFFE0000
FFFFFFE00000000000000000000FFFFFFE0000
FFFFFFE00000000000000000000FFFFFFF0000
FFFFFFE00000000000000000000FFFFFFF0000
FFFFFFE000000000000000000007FFFFFF0000
FFFFFFE000000000000000000007FFFFFF0000
FFFFFFE000000000000000000007FFFFFF8000
FFFFFFE000000000000000000007FFFFFF8000
FFFFFFE000000000000000000003FFFFFF8000
FFFFFFE000000000000000000003FFFFFF8000
FFFFFFE000000000000000000003FFFFFF8000
FFFFFFE000000000000000000003FFFFFFC000
FFFFFFE000000000000000000003FFFFFFC000
FFFFFFE000000000000000000001FFFFFFC000
FFFFFFE000000000000000000001FFFFFFC000
FFFFFFE000000000000000000001FFFFFFE000
FFFFFFE000000000000000000001FFFFFFE000
FFFFFFE000000000000000000000FFFFFFE000
FFFFFFE000000000000000000000FFFFFFE000
FFFFFFE000000000000000000000FFFFFFE000
FFFFFFE000000000000000000000FFFFFFF000
FFFFFFE000000000000000000000FFFFFFF000
FFFFFFE0000000000000000000007FFFFFF000
FFFFFFE0000000000000000000007FFFFFF000
FFFFFFE0000000000000000000007FFFFFF800
FFFFFFE0000000000000000000007FFFFFF800
FFFFFFE0000000000000000000003FFFFFF800
FFFFFFE0000000000000000000003FFFFFF800
FFFFFFE0000000000000000000003FFFFFF800
FFFFFFE0000000000000000000003FFFFFFC00
FFFFFFE0000000000000000000003FFFFFFC00
FFFFFFE0000000000000000000001FFFFFFC00
FFFFFFE0000000000000000000001FFFFFFC00
FFFFFFE0000000000000000000001FFFFFFE00
FFFFFFE0000000000000000000001FFFFFFE00
FFFFFFE0000000000000000000000FFFFFFE00
FFFFFFE0000000000000000000000FFFFFFE00
FFFFFFE0000000000000000000000FFFFFFE00
FFFFFFE0000000000000000000000FFFFFFF00
FFFFFFE0000000000000000000000FFFFFFF00
FFFFFFE00000000000000000000007FFFFFF00
FFFFFFE00000000000000000000007FFFFFF00
FFFFFFE00000000000000000000007FFFFFF80
FFFFFFE00000000000000000000007FFFFFF80
FFFFFFE00000000000000000000003FFFFFF80
FFFFFFE00000000000000000000003FFFFFF80
FFFFFFE00000000000000000000003FFFFFF80
FFFFFFE00000000000000000000003FFFFFFC0
FFFFFFE00000000000000000000003FFFFFFC0
FFFFFFE00000000000000000000001FFFFFFC0
FFFFFFE00000000000000000000001FFFFFFC0
FFFFFFE00000000000000000000001FFFFFFE0
FFFFFFE00000000000000000000001FFFFFFE0
FFFFFFE00000000000000000000000FFFFFFE0
FFFFFFE00000000000000000000000FFFFFFE0
FFFFFFE00000000000000000000000FFFFFFE0
FFFFFFE00000000000000000000000FFFFFFF0
FFFFFFE000000000000000000000007FFFFFF0
FFFFFFE000000000000000000000007FFFFFF0
FFFFFFE000000000000000000000007FFFFFF0
FFFFFFE000000000000000000000007FFFFFF8
FFFFFFE000000000000000000000007FFFFFF8
FFFFFFE000000000000000000000003FFFFFF8
FFFFFFE000000000000000000000003FFFFFF8
FFFFFFE000000000000000000000003FFFFFF8
FFFFFFE000000000000000000000003FFFFFFC
FFFFFFE000000000000000000000001FFFFFFC
FFFFFFE000000000000000000000001FFFFFFC
FFFFFFE000000000000000000000001FFFFFFC
FFFFFFE000000000000000000000001FFFFFFE
FFFFFFE000000000000000000000001FFFFFFE
FFFFFFE000000000000000000000000FFFFFFE
FFFFFFE000000000000000000000000FFFFFFE
FFFFFFE000000000000000000000000FFFFFFE
FFFFFFE000000000000000000000000FFFFFFF
FFFFFFE0000000000000000000000007FFFFFF
FFFFFFE0000000000000000000000007FFFFFF
FFFFFFE0000000000000000000000007FFFFFF
FFFFFFE0000000000000000000000007FFFFFF
FFFFFFE0000000000000000000000007FFFFFF
FFFFFFE0000000000000000000000003FFFFFF
7FFFFFC0000000000000000000000003FFFFFF
7FFFFFC0000000000000000000000003FFFFFE
7FFFFFC0000000000000000000000001FFFFFE
3FFFFF80000000000000000000000001FFFFFC
3FFFFF00000000000000000000000000FFFFF8
1FFFFF000000000000000000000000007FFFF8
0FFFFE000000000000000000000000003FFFF0
07FFF8000000000000000000000000001FFFC0
01FFF0000000000000000000000000000FFF80
003F800000000000000000000000000001FC00
ENDCHAR
STARTCHAR 004F
ENCODING 79
SWIDTH 888 0
DWIDTH 160 0
BBX 140 134 0 0
BITMAP
000000001FFFFFFFFFFFFFFFFF8000000000
00000003FFFFFFFFFFFFFFFFFFFC00000000
0000001FFFFFFFFFFFFFFFFFFFFF80000000
0000007FFFFFFFFFFFFFFFFFFFFFE0000000
000001FFFFFFFFFFFFFFFFFFFFFFF8000000
000007FFFFFFFFFFFFFFFFFFFFFFFE000000
00001FFFFFFFFFFFFFFFFFFFFFFFFF800000
00003FFFFFFFFFFFFFFFFFFFFFFFFFC00000
00007FFFFFFFFFFFFFFFFFFFFFFFFFE00000
0001FFFFFFFFFFFFFFFFFFFFFFFFFFF80000
0003FFFFFFFFFFFFFFFFFFFFFFFFFFFC0000
0007FFFFFFFFFFFFFFFFFFFFFFFFFFFE0000
000FFFFFFFFFFFFFFFFFFFFFFFFFFFFF0000
001FFFFFFFFFFFFFFFFFFFFFFFFFFFFF8000
003FFFFFFFFFFFFFFFFFFFFFFFFFFFFFC000
007FFFFFFFFFFFFFFFFFFFFFFFFFFFFFE000
007FFFFFFFFFFFFFFFFFFFFFFFFFFFFFE000
00FFFFFFFFFFFFFFFFFFFFFFFFFFFFFFF000
01FFFFFFFFFFFFFFFFFFFFFFFFFFFFFFF800
03FFFFFFFFFFFFFFFFFFFFFFFFFFFFFFFC00
03FFFFFFFFFFFFFFFFFFFFFFFFFFFFFFFC00
07FFFFFFFFFFFFFFFFFFFFFFFFFFFFFFFE00
07FFFFFFFFFFFFFFFFFFFFFFFFFFFFFFFE00
0FFFFFFFFFFFFFFFFFFFFFFFFFFFFFFFFF00
0FFFFFFFFFFFFFFFFFFFFFFFFFFFFFFFFF00
1FFFFFFFFFFFFFFFFFFFFFFFFFFFFFFFFF80
1FFFFFFFFC0000000000000003FFFFFFFF80
3FFFFFFFE000000000000000007FFFFFFFC0
3FFFFFFF8000000000000000001FFFFFFFC0
3FFFFFFF0000000000000000000FFFFFFFC0
7FFFFFFE00000000000000000007FFFFFFC0
7FFFFFFC00000000000000000003FFFFFFE0
7FFFFFF800000000000000000001FFFFFFE0
7FFFFFF000000000000000000000FFFFFFE0
7FFFFFF000000000000000000000FFFFFFE0
FFFFFFE0000000000000000000007FFFFFF0
FFFFFFE0000000000000000000007FFFFFF0
FFFFFFC0000000000000000000007FFFFFF0
FFFFFFC0000000000000000000003FFFFFF0
FFFFFFC0000000000000000000003FFFFFF0
FFFFFFC0000000000000000000003FFFFFF0
FFFFFFC0000000000000000000003FFFFFF0
FFFFFFC0000000000000000000003FFFFFF0
FFFFFFC0000000000000000000003FFFFFF0
FFFFFFC0000000000000000000003FFFFFF0
FFFFFFC0000000000000000000003FFFFFF0
FFFFFFC0000000000000000000003FFFFFF0
FFFFFFC0000000000000000000003FFFFFF0
FFFFFFC0000000000000000000003FFFFFF0
FFFFFFC0000000000000000000003FFFFFF0
FFFFFFC0000000000000000000003FFFFFF0
FFFFFFC0000000000000000000003FFFFFF0
FFFFFFC0000000000000000000003FFFFFF0
FFFFFFC0000000000000000000003FFFFFF0
FFFFFFC0000000000000000000003FFFFFF0
FFFFFFC0000000000000000000003FFFFFF0
FFFFFFC0000000000000000000003FFFFFF0
FFFFFFC0000000000000000000003FFFFFF0
FFFFFFC0000000000000000000003FFFFFF0
FFFFFFC0000000000000000000003FFFFFF0
FFFFFFC0000000000000000000003FFFFFF0
FFFFFFC0000000000000000000003FFFFFF0
FFFFFFC0000000000000000000003FFFFFF0
FFFFFFC0000000000000000000003FFFFFF0
FFFFFFC0000000000000000000003FFFFFF0
FFFFFFC0000000000000000000003FFFFFF0
FFFFFFC0000000000000000000003FFFFFF0
FFFFFFC0000000000000000000003FFFFFF0
FFFFFFC0000000000000000000003FFFFFF0
FFFFFFC0000000000000000000003FFFFFF0
FFFFFFC0000000000000000000003FFFFFF0
FFFFFFC0000000000000000000003FFFFFF0
FFFFFFC0000000000000000000003FFFFFF0
FFFFFFC0000000000000000000003FFFFFF0
FFFFFFC0000000000000000000003FFFFFF0
FFFFFFC0000000000000000000003FFFFFF0
FFFFFFC0000000000000000000003FFFFFF0
FFFFFFC0000000000000000000003FFFFFF0
FFFFFFC0000000000000000000003FFFFFF0
FFFFFFC0000000000000000000003FFFFFF0
FFFFFFC0000000000000000000003FFFFFF0
FFFFFFC0000000000000000000003FFFFFF0
FFFFFFC0000000000000000000003FFFFFF0
FFFFFFC0000000000000000000003FFFFFF0
FFFFFFC0000000000000000000003FFFFFF0
FFFFFFC0000000000000000000003FFFFFF0
FFFFFFC0000000000000000000003FFFFFF0
FFFFFFC0000000000000000000003FFFFFF0
FFFFFFC0000000000000000000003FFFFFF0
FFFFFFC0000000000000000000003FFFFFF0
FFFFFFC0000000000000000000003FFFFFF0
FFFFFFC0000000000000000000003FFFFFF0
FFFFFFC0000000000000000000003FFFFFF0
FFFFFFC0000000000000000000003FFFFFF0
FFFFFFC0000000000000000000003FFFFFF0
FFFFFFC0000000000000000000003FFFFFF0
FFFFFFC0000000000000000000007FFFFFF0
FFFFFFE0000000000000000000007FFFFFF0
FFFFFFE0000000000000000000007FFFFFF0
7FFFFFF000000000000000000000FFFFFFE0
7FFFFFF000000000000000000000FFFFFFE0
7FFFFFF800000000000000000001FFFFFFE0
7FFFFFFC00000000000000000003FFFFFFE0
7FFFFFFE00000000000000000007FFFFFFE0
3FFFFFFF0000000000000000000FFFFFFFC0
3FFFFFFF8000000000000000001FFFFFFFC0
3FFFFFFFE000000000000000007FFFFFFFC0
1FFFFFFFF80000000000000001FFFFFFFF80
1FFFFFFFFFFFFFFFFFFFFFFFFFFFFFFFFF80
0FFFFFFFFFFFFFFFFFFFFFFFFFFFFFFFFF00
0FFFFFFFFFFFFFFFFFFFFFFFFFFFFFFFFF00
07FFFFFFFFFFFFFFFFFFFFFFFFFFFFFFFE00
07FFFFFFFFFFFFFFFFFFFFFFFFFFFFFFFE00
03FFFFFFFFFFFFFFFFFFFFFFFFFFFFFFFC00
03FFFFFFFFFFFFFFFFFFFFFFFFFFFFFFFC00
01FFFFFFFFFFFFFFFFFFFFFFFFFFFFFFF800
00FFFFFFFFFFFFFFFFFFFFFFFFFFFFFFF000
00FFFFFFFFFFFFFFFFFFFFFFFFFFFFFFE000
007FFFFFFFFFFFFFFFFFFFFFFFFFFFFFE000
003FFFFFFFFFFFFFFFFFFFFFFFFFFFFFC000
001FFFFFFFFFFFFFFFFFFFFFFFFFFFFF8000
000FFFFFFFFFFFFFFFFFFFFFFFFFFFFF0000
0007FFFFFFFFFFFFFFFFFFFFFFFFFFFE0000
0003FFFFFFFFFFFFFFFFFFFFFFFFFFFC0000
0001FFFFFFFFFFFFFFFFFFFFFFFFFFF80000
0000FFFFFFFFFFFFFFFFFFFFFFFFFFF00000
00003FFFFFFFFFFFFFFFFFFFFFFFFFC00000
00001FFFFFFFFFFFFFFFFFFFFFFFFF800000
000007FFFFFFFFFFFFFFFFFFFFFFFE000000
000001FFFFFFFFFFFFFFFFFFFFFFF8000000
0000007FFFFFFFFFFFFFFFFFFFFFE0000000
0000001FFFFFFFFFFFFFFFFFFFFF80000000
00000003FFFFFFFFFFFFFFFFFFFC00000000
000000001FFFFFFFFFFFFFFFFF8000000000
ENDCHAR
STARTCHAR 0050
ENCODING 80
SWIDTH 877 0
DWIDTH 158 0
BBX 143 136 0 -2
BITMAP
0000003FFFFFFFFFFFFFFFFFFFE000000000
000003FFFFFFFFFFFFFFFFFFFFFF00000000
00000FFFFFFFFFFFFFFFFFFFFFFFE0000000
00003FFFFFFFFFFFFFFFFFFFFFFFFC000000
0000FFFFFFFFFFFFFFFFFFFFFFFFFF000000
0003FFFFFFFFFFFFFFFFFFFFFFFFFFC00000
0007FFFFFFFFFFFFFFFFFFFFFFFFFFE00000
000FFFFFFFFFFFFFFFFFFFFFFFFFFFF80000
001FFFFFFFFFFFFFFFFFFFFFFFFFFFFC0000
003FFFFFFFFFFFFFFFFFFFFFFFFFFFFE0000
007FFFFFFFFFFFFFFFFFFFFFFFFFFFFF8000
00FFFFFFFFFFFFFFFFFFFFFFFFFFFFFFC000
01FFFFFFFFFFFFFFFFFFFFFFFFFFFFFFE000
03FFFFFFFFFFFFFFFFFFFFFFFFFFFFFFF000
07FFFFFFFFFFFFFFFFFFFFFFFFFFFFFFF800
07FFFFFFFFFFFFFFFFFFFFFFFFFFFFFFF800
0FFFFFFFFFFFFFFFFFFFFFFFFFFFFFFFFC00
0FFFFFFFFFFFFFFFFFFFFFFFFFFFFFFFFE00
1FFFFFFFFFFFFFFFFFFFFFFFFFFFFFFFFF00
1FFFFFFFFFFFFFFFFFFFFFFFFFFFFFFFFF00
3FFFFFFFFFFFFFFFFFFFFFFFFFFFFFFFFF80
3FFFFFFFFFFFFFFFFFFFFFFFFFFFFFFFFFC0
7FFFFFFFFFFFFFFFFFFFFFFFFFFFFFFFFFC0
7FFFFFFFFFFFFFFFFFFFFFFFFFFFFFFFFFE0
7FFFFFFFFFFFFFFFFFFFFFFFFFFFFFFFFFE0
7FFFFFFFFFFFFFFFFFFFFFFFFFFFFFFFFFF0
FFFFFFFFFFFFFFFFFFFFFFFFFFFFFFFFFFF0
FFFFFFFC000000000000000000FFFFFFFFF0
FFFFFFF00000000000000000001FFFFFFFF8
FFFFFFE000000000000000000007FFFFFFF8
FFFFFFE000000000000000000003FFFFFFF8
FFFFFFE000000000000000000001FFFFFFFC
FFFFFFE000000000000000000000FFFFFFFC
FFFFFFE0000000000000000000007FFFFFFC
FFFFFFE0000000000000000000003FFFFFFC
FFFFFFE0000000000000000000003FFFFFFC
FFFFFFE0000000000000000000001FFFFFFE
FFFFFFE0000000000000000000001FFFFFFE
FFFFFFE0000000000000000000001FFFFFFE
FFFFFFE0000000000000000000000FFFFFFE
FFFFFFE0000000000000000000000FFFFFFE
FFFFFFE0000000000000000000000FFFFFFE
FFFFFFE0000000000000000000000FFFFFFE
FFFFFFE0000000000000000000000FFFFFFE
FFFFFFE0000000000000000000000FFFFFFE
FFFFFFE0000000000000000000000FFFFFFE
FFFFFFE0000000000000000000000FFFFFFE
FFFFFFE0000000000000000000001FFFFFFE
FFFFFFE0000000000000000000001FFFFFFE
FFFFFFE0000000000000000000003FFFFFFC
FFFFFFE0000000000000000000003FFFFFFC
FFFFFFE0000000000000000000007FFFFFFC
FFFFFFE0000000000000000000007FFFFFFC
FFFFFFE000000000000000000000FFFFFFFC
FFFFFFE000000000000000000001FFFFFFF8
FFFFFFE000000000000000000003FFFFFFF8
FFFFFFE00000000000000000000FFFFFFFF8
FFFFFFE00000000000000000003FFFFFFFF0
FFFFFFE0000000000000000003FFFFFFFFF0
FFFFFFE000000000000000003FFFFFFFFFE0
FFFFFFE00000000000000007FFFFFFFFFFE0
FFFFFFE0000000000000007FFFFFFFFFFFC0
FFFFFFE00000000000000FFFFFFFFFFFFFC0
FFFFFFE0000000000000FFFFFFFFFFFFFF80
FFFFFFE000000000001FFFFFFFFFFFFFFF80
FFFFFFE00000000001FFFFFFFFFFFFFFFF00
FFFFFFE0000000003FFFFFFFFFFFFFFFFE00
FFFFFFE000000003FFFFFFFFFFFFFFFFFE00
FFFFFFE00000007FFFFFFFFFFFFFFFFFFC00
FFFFFFE0000007FFFFFFFFFFFFFFFFFFF800
FFFFFFE00000FFFFFFFFFFFFFFFFFFFFF000
FFFFFFE0000FFFFFFFFFFFFFFFFFFFFFE000
FFFFFFE001FFFFFFFFFFFFFFFFFFFFFFE000
FFFFFFE01FFFFFFFFFFFFFFFFFFFFFFFC000
FFFFFFE3FFFFFFFFFFFFFFFFFFFFFFFF0000
FFFFFFFFFFFFFFFFFFFFFFFFFFFFFFFE0000
FFFFFFFFFFFFFFFFFFFFFFFFFFFFFFFC0000
FFFFFFFFFFFFFFFFFFFFFFFFFFFFFFF80000
FFFFFFFFFFFFFFFFFFFFFFFFFFFFFFE00000
FFFFFFFFFFFFFFFFFFFFFFFFFFFFFFC00000
FFFFFFFFFFFFFFFFFFFFFFFFFFFFFF000000
FFFFFFFFFFFFFFFFFFFFFFFFFFFFFC000000
FFFFFFFFFFFFFFFFFFFFFFFFFFFFF0000000
FFFFFFFFFFFFFFFFFFFFFFFFFFFF80000000
FFFFFFFFFFFFFFFFFFFFFFFFFFF800000000
FFFFFFFFFFFFFFFFFFFFFFFFFF0000000000
FFFFFFFFFFFFFFFFFFFFFFFFF00000000000
FFFFFFFFFFFFFFFFFFFFFFFE000000000000
FFFFFFFFFFFFFFFFFFFFFFE0000000000000
FFFFFFFFFFFFFFFFFFFFFC00000000000000
FFFFFFFFFFFFFFFFFFFFC000000000000000
FFFFFFFFFFFFFFFFFFF80000000000000000
FFFFFFFFFFFFFFFFFF800000000000000000
FFFFFFFFFFFFFFFFF0000000000000000000
FFFFFFFFFFFFFFFF00000000000000000000
FFFFFFFFFFFFFFE000000000000000000000
FFFFFFFFFFFFFE0000000000000000000000
FFFFFFFFFFFFC00000000000000000000000
FFFFFFFFFFFC000000000000000000000000
FFFFFFFFFF80000000000000000000000000
FFFFFFFFF800000000000000000000000000
FFFFFFFF0000000000000000000000000000
FFFFFFF00000000000000000000000000000
FFFFFFE00000000000000000000000000000
FFFFFFE00000000000000000000000000000
FFFFFFE00000000000000000000000000000
FFFFFFE00000000000000000000000000000
FFFFFFE00000000000000000000000000000
FFFFFFE00000000000000000000000000000
FFFFFFE00000000000000000000000000000
FFFFFFE00000000000000000000000000000
FFFFFFE00000000000000000000000000000
FFFFFFE00000000000000000000000000000
FFFFFFE00000000000000000000000000000
FFFFFFE00000000000000000000000000000
FFFFFFE00000000000000000000000000000
FFFFFFE00000000000000000000000000000
FFFFFFE00000000000000000000000000000
FFFFFFE00000000000000000000000000000
FFFFFFE00000000000000000000000000000
FFFFFFE00000000000000000000000000000
FFFFFFE00000000000000000000000000000
FFFFFFE00000000000000000000000000000
FFFFFFE00000000000000000000000000000
FFFFFFE00000000000000000000000000000
FFFFFFE00000000000000000000000000000
7FFFFFC00000000000000000000000000000
7FFFFFC00000000000000000000000000000
7FFFFFC00000000000000000000000000000
3FFFFF800000000000000000000000000000
1FFFFF000000000000000000000000000000
1FFFFF000000000000000000000000000000
0FFFFE000000000000000000000000000000
03FFF8000000000000000000000000000000
01FFF0000000000000000000000000000000
003F80000000000000000000000000000000
ENDCHAR
STARTCHAR 0051
ENCODING 81
SWIDTH 888 0
DWIDTH 160 0
BBX 141 163 0 -29
BITMAP
000000001FFFFFFFFFFFFFFFFFC000000000
00000001FFFFFFFFFFFFFFFFFFFC00000000
0000001FFFFFFFFFFFFFFFFFFFFF80000000
0000007FFFFFFFFFFFFFFFFFFFFFF0000000
000001FFFFFFFFFFFFFFFFFFFFFFFC000000
000007FFFFFFFFFFFFFFFFFFFFFFFF000000
00001FFFFFFFFFFFFFFFFFFFFFFFFF800000
00003FFFFFFFFFFFFFFFFFFFFFFFFFE00000
00007FFFFFFFFFFFFFFFFFFFFFFFFFF00000
0001FFFFFFFFFFFFFFFFFFFFFFFFFFF80000
0003FFFFFFFFFFFFFFFFFFFFFFFFFFFE0000
0007FFFFFFFFFFFFFFFFFFFFFFFFFFFF0000
000FFFFFFFFFFFFFFFFFFFFFFFFFFFFF8000
001FFFFFFFFFFFFFFFFFFFFFFFFFFFFFC000
003FFFFFFFFFFFFFFFFFFFFFFFFFFFFFE000
007FFFFFFFFFFFFFFFFFFFFFFFFFFFFFF000
007FFFFFFFFFFFFFFFFFFFFFFFFFFFFFF000
00FFFFFFFFFFFFFFFFFFFFFFFFFFFFFFF800
01FFFFFFFFFFFFFFFFFFFFFFFFFFFFFFFC00
03FFFFFFFFFFFFFFFFFFFFFFFFFFFFFFFC00
03FFFFFFFFFFFFFFFFFFFFFFFFFFFFFFFE00
07FFFFFFFFFFFFFFFFFFFFFFFFFFFFFFFF00
07FFFFFFFFFFFFFFFFFFFFFFFFFFFFFFFF00
0FFFFFFFFFFFFFFFFFFFFFFFFFFFFFFFFF80
0FFFFFFFFFFFFFFFFFFFFFFFFFFFFFFFFF80
1FFFFFFFFFFFFFFFFFFFFFFFFFFFFFFFFFC0
1FFFFFFFFC0000000000000001FFFFFFFFC0
3FFFFFFFE000000000000000003FFFFFFFE0
3FFFFFFF8000000000000000000FFFFFFFE0
3FFFFFFF00000000000000000007FFFFFFE0
7FFFFFFE00000000000000000003FFFFFFE0
7FFFFFFC00000000000000000001FFFFFFF0
7FFFFFF800000000000000000000FFFFFFF0
7FFFFFF0000000000000000000007FFFFFF0
7FFFFFF0000000000000000000007FFFFFF0
FFFFFFE0000000000000000000003FFFFFF8
FFFFFFE0000000000000000000003FFFFFF8
FFFFFFE0000000000000000000003FFFFFF8
FFFFFFC0000000000000000000001FFFFFF8
FFFFFFC0000000000000000000001FFFFFF8
FFFFFFC0000000000000000000001FFFFFF8
FFFFFFC0000000000000000000001FFFFFF8
FFFFFFC0000000000000000000001FFFFFF8
FFFFFFC0000000000000000000001FFFFFF8
FFFFFFC0000000000000000000001FFFFFF8
FFFFFFC0000000000000000000001FFFFFF8
FFFFFFC0000000000000000000001FFFFFF8
FFFFFFC0000000000000000000001FFFFFF8
FFFFFFC0000000000000000000001FFFFFF8
FFFFFFC0000000000000000000001FFFFFF8
FFFFFFC0000000000000000000001FFFFFF8
FFFFFFC0000000000000000000001FFFFFF8
FFFFFFC0000000000000000000001FFFFFF8
FFFFFFC0000000000000000000001FFFFFF8
FFFFFFC0000000000000000000001FFFFFF8
FFFFFFC0000000000000000000001FFFFFF8
FFFFFFC0000000000000000000001FFFFFF8
FFFFFFC0000000000000000000001FFFFFF8
FFFFFFC0000000000000000000001FFFFFF8
FFFFFFC0000000000000000000001FFFFFF8
FFFFFFC0000000000000000000001FFFFFF8
FFFFFFC0000000000000000000001FFFFFF8
FFFFFFC0000000000000000000001FFFFFF8
FFFFFFC0000000000000000000001FFFFFF8
FFFFFFC0000000000000000000001FFFFFF8
FFFFFFC0000000000000000000001FFFFFF8
FFFFFFC0000000000000000000001FFFFFF8
FFFFFFC0000000000000000000001FFFFFF8
FFFFFFC0000000000000000000001FFFFFF8
FFFFFFC0000000000000000000001FFFFFF8
FFFFFFC0000000000000000000001FFFFFF8
FFFFFFC0000000000000000000001FFFFFF8
FFFFFFC0000000000000000000001FFFFFF8
FFFFFFC0000000000000000000001FFFFFF8
FFFFFFC0000000000000000000001FFFFFF8
FFFFFFC0000000000000000000001FFFFFF8
FFFFFFC0000000000000000000001FFFFFF8
FFFFFFC0000000000000000000001FFFFFF8
FFFFFFC0000000000000000000001FFFFFF8
FFFFFFC0000000000000000000001FFFFFF8
FFFFFFC0000000000000000000001FFFFFF8
FFFFFFC0000000000000000000001FFFFFF8
FFFFFFC0000000000000000000001FFFFFF8
FFFFFFC0000000000000000000001FFFFFF8
FFFFFFC0000000000000000000001FFFFFF8
FFFFFFC0000000000000000000001FFFFFF8
FFFFFFC0000000000000000000001FFFFFF8
FFFFFFC0000000000000000000001FFFFFF8
FFFFFFC0000000000000000000001FFFFFF8
FFFFFFC0000000000000000000001FFFFFF8
FFFFFFC0000000000000000000001FFFFFF8
FFFFFFC0000000000000000000001FFFFFF8
FFFFFFC0000000000000000000001FFFFFF8
FFFFFFC0000000000000000000001FFFFFF8
FFFFFFC0000000000000000000001FFFFFF8
FFFFFFC0000000000000000000001FFFFFF8
FFFFFFE0000000000000000000003FFFFFF8
FFFFFFE0000000000000000000003FFFFFF8
FFFFFFE0000000000000000000003FFFFFF8
7FFFFFF0000000000000000000007FFFFFF0
7FFFFFF0000000000000000000007FFFFFF0
7FFFFFF800000000000000000000FFFFFFF0
7FFFFFFC00000000000000000001FFFFFFF0
7FFFFFFE00000000000000000003FFFFFFE0
3FFFFFFF00000000000000000007FFFFFFE0
3FFFFFFF8000000000000000000FFFFFFFE0
3FFFFFFFE000000000000000003FFFFFFFE0
1FFFFFFFFC0000000000000001FFFFFFFFC0
1FFFFFFFFFF8000000007FFFFFFFFFFFFFC0
0FFFFFFFFFFF00000007FFFFFFFFFFFFFF80
0FFFFFFFFFFFC000003FFFFFFFFFFFFFFF80
07FFFFFFFFFFE00000FFFFFFFFFFFFFFFF00
07FFFFFFFFFFF00003FFFFFFFFFFFFFFFF00
03FFFFFFFFFFF80007FFFFFFFFFFFFFFFE00
03FFFFFFFFFFF8001FFFFFFFFFFFFFFFFC00
01FFFFFFFFFFFC003FFFFFFFFFFFFFFFFC00
00FFFFFFFFFFFC007FFFFFFFFFFFFFFFF800
007FFFFFFFFFFE00FFFFFFFFFFFFFFFFF000
007FFFFFFFFFFE01FFFFFFFFFFFFFFFFE000
003FFFFFFFFFFE03FFFFFFFFFFFFFFFFE000
001FFFFFFFFFFE07FFFFFFFFFFFFFFFFC000
000FFFFFFFFFFE07FFFFFFFFFFFFFFFF8000
0007FFFFFFFFFE0FFFFFFFFFFFFFFFFF0000
0003FFFFFFFFFE1FFFFFFFFFFFFFFFFE0000
0001FFFFFFFFFE1FFFFFFFFFFFFFFFF80000
00007FFFFFFFFC3FFFFFFFFFFFFFFFF00000
00003FFFFFFFFC3FFFFFFFFFFFFFFFE00000
00001FFFFFFFF87FFFFFFFFFFFFFFF800000
000007FFFFFFF87FFFFFFFFFFFFFFF000000
000001FFFFFFF0FFFFFFFFFFFFFFFC000000
0000007FFFFFE0FFFFFFFFFFFFFFF0000000
0000001FFFFFC0FFFFFFFFFFFFFF80000000
00000003FFFF00FFFFFFFFFFFFFC00000000
000000001FFC01FFFFFFFFFFFF8000000000
00000000000001FFFFFFF000000000000000
00000000000001FFFFFFC000000000000000
00000000000001FFFFFF8000000000000000
00000000000001FFFFFF8000000000000000
00000000000001FFFFFF8000000000000000
00000000000001FFFFFF8000000000000000
00000000000001FFFFFF8000000000000000
00000000000001FFFFFF8000000000000000
00000000000001FFFFFF8000000000000000
00000000000001FFFFFF8000000000000000
00000000000001FFFFFF8000000000000000
00000000000001FFFFFF8000000000000000
00000000000001FFFFFF8000000000000000
00000000000001FFFFFF8000000000000000
00000000000001FFFFFF8000000000000000
00000000000001FFFFFF8000000000000000
00000000000001FFFFFF8000000000000000
00000000000001FFFFFF8000000000000000
00000000000001FFFFFF8000000000000000
00000000000001FFFFFF8000000000000000
00000000000000FFFFFF0000000000000000
00000000000000FFFFFF0000000000000000
000000000000007FFFFE0000000000000000
000000000000007FFFFE0000000000000000
000000000000003FFFFC0000000000000000
000000000000001FFFF80000000000000000
000000000000000FFFF00000000000000000
0000000000000003FFC00000000000000000
0000000000000000FF000000000000000000
ENDCHAR
STARTCHAR 0052
ENCODING 82
SWIDTH 888 0
DWIDTH 160 0
BBX 140 136 0 -2
BITMAP
0000003FFFFFFFFFFFFFFFFFFF8000000000
000003FFFFFFFFFFFFFFFFFFFFFC00000000
00001FFFFFFFFFFFFFFFFFFFFFFF80000000
00007FFFFFFFFFFFFFFFFFFFFFFFE0000000
0001FFFFFFFFFFFFFFFFFFFFFFFFF8000000
0003FFFFFFFFFFFFFFFFFFFFFFFFFE000000
000FFFFFFFFFFFFFFFFFFFFFFFFFFF800000
001FFFFFFFFFFFFFFFFFFFFFFFFFFFC00000
003FFFFFFFFFFFFFFFFFFFFFFFFFFFE00000
007FFFFFFFFFFFFFFFFFFFFFFFFFFFF80000
00FFFFFFFFFFFFFFFFFFFFFFFFFFFFFC0000
01FFFFFFFFFFFFFFFFFFFFFFFFFFFFFE0000
03FFFFFFFFFFFFFFFFFFFFFFFFFFFFFF0000
03FFFFFFFFFFFFFFFFFFFFFFFFFFFFFF8000
07FFFFFFFFFFFFFFFFFFFFFFFFFFFFFFC000
0FFFFFFFFFFFFFFFFFFFFFFFFFFFFFFFE000
0FFFFFFFFFFFFFFFFFFFFFFFFFFFFFFFE000
1FFFFFFFFFFFFFFFFFFFFFFFFFFFFFFFF000
1FFFFFFFFFFFFFFFFFFFFFFFFFFFFFFFF800
3FFFFFFFFFFFFFFFFFFFFFFFFFFFFFFFF800
3FFFFFFFFFFFFFFFFFFFFFFFFFFFFFFFFC00
3FFFFFFFFFFFFFFFFFFFFFFFFFFFFFFFFE00
7FFFFFFFFFFFFFFFFFFFFFFFFFFFFFFFFE00
7FFFFFFFFFFFFFFFFFFFFFFFFFFFFFFFFF00
7FFFFFFFFFFFFFFFFFFFFFFFFFFFFFFFFF00
7FFFFFFFFFFFFFFFFFFFFFFFFFFFFFFFFF80
FFFFFFF8000000000000000003FFFFFFFF80
FFFFFFE00000000000000000007FFFFFFF80
FFFFFFC00000000000000000001FFFFFFFC0
FFFFFFC00000000000000000000FFFFFFFC0
FFFFFFC000000000000000000007FFFFFFC0
FFFFFFC000000000000000000003FFFFFFE0
FFFFFFC000000000000000000001FFFFFFE0
FFFFFFC000000000000000000000FFFFFFE0
FFFFFFC000000000000000000000FFFFFFE0
FFFFFFC0000000000000000000007FFFFFF0
FFFFFFC0000000000000000000007FFFFFF0
FFFFFFC0000000000000000000007FFFFFF0
FFFFFFC0000000000000000000003FFFFFF0
FFFFFFC0000000000000000000003FFFFFF0
FFFFFFC0000000000000000000003FFFFFF0
FFFFFFC0000000000000000000003FFFFFF0
FFFFFFC0000000000000000000003FFFFFF0
FFFFFFC0000000000000000000003FFFFFF0
FFFFFFC0000000000000000000003FFFFFF0
FFFFFFC0000000000000000000003FFFFFF0
FFFFFFC0000000000000000000007FFFFFF0
FFFFFFC0000000000000000000007FFFFFF0
FFFFFFC000000000000000000000FFFFFFF0
FFFFFFC000000000000000000000FFFFFFE0
FFFFFFC000000000000000000001FFFFFFE0
FFFFFFC000000000000000000003FFFFFFE0
FFFFFFC000000000000000000003FFFFFFE0
FFFFFFC000000000000000000007FFFFFFC0
FFFFFFC00000000000000000001FFFFFFFC0
FFFFFFC00000000000000000003FFFFFFFC0
FFFFFFC0000000000000000001FFFFFFFFC0
FFFFFFC000000000000000001FFFFFFFFF80
FFFFFFC00000000000000003FFFFFFFFFF80
FFFFFFC0000000000000003FFFFFFFFFFF00
FFFFFFC000000000000003FFFFFFFFFFFF00
FFFFFFC00000000000007FFFFFFFFFFFFE00
FFFFFFC0000000000007FFFFFFFFFFFFFE00
FFFFFFC00000000000FFFFFFFFFFFFFFFC00
FFFFFFC0000000000FFFFFFFFFFFFFFFFC00
FFFFFFC000000000FFFFFFFFFFFFFFFFF800
FFFFFFC00000000FFFFFFFFFFFFFFFFFF000
FFFFFFC00000007FFFFFFFFFFFFFFFFFF000
FFFFFFC0000001FFFFFFFFFFFFFFFFFFE000
FFFFFFC0000007FFFFFFFFFFFFFFFFFFC000
FFFFFFC000001FFFFFFFFFFFFFFFFFFF8000
FFFFFFC000003FFFFFFFFFFFFFFFFFFF0000
FFFFFFC000007FFFFFFFFFFFFFFFFFFE0000
FFFFFFC00001FFFFFFFFFFFFFFFFFFFC0000
FFFFFFC00003FFFFFFFFFFFFFFFFFFF80000
FFFFFFC00007FFFFFFFFFFFFFFFFFFF00000
FFFFFFC00007FFFFFFFFFFFFFFFFFFE00000
FFFFFFC0000FFFFFFFFFFFFFFFFFFF800000
FFFFFFC0001FFFFFFFFFFFFFFFFFFE000000
FFFFFFC0003FFFFFFFFFFFFFFFFFFC000000
FFFFFFC0003FFFFFFFFFFFFFFFFFF0000000
FFFFFFC0007FFFFFFFFFFFFFFFFF80000000
FFFFFFC000FFFFFFFFFFFFFFFFFC00000000
FFFFFFC000FFFFFFFFFFFFFFFFC000000000
FFFFFFC001FFFFFFFFFFFFFFFC0000000000
FFFFFFC001FFFFFFFFFFFFFF800000000000
FFFFFFC003FFFFFFFFFFFFF8000000000000
FFFFFFC003FFFFFFFFFFFF80000000000000
FFFFFFC003FFFFFFFFFFF000000000000000
FFFFFFC007FFFFFFFFFF0000000000000000
FFFFFFC007FFFFFFFFE00000000000000000
FFFFFFC007FFFFFFFE000000000000000000
FFFFFFC007FFFFFFE0000000000000000000
FFFFFFC00FFFFFFF80000000000000000000
FFFFFFC00FFFFFFF00000000000000000000
FFFFFFC00FFFFFFE00000000000000000000
FFFFFFC00FFFFFFE00000000000000000000
FFFFFFC00FFFFFFC00000000000000000000
FFFFFFC00FFFFFFC00000000000000000000
FFFFFFC00FFFFFFC00000000000000000000
FFFFFFC00FFFFFFC00000000000000000000
FFFFFFC00FFFFFFC00000000000000000000
FFFFFFC00FFFFFFC00000000000000000000
FFFFFFC00FFFFFFE00000000000000000000
FFFFFFC00FFFFFFE00000000000000000000
FFFFFFC00FFFFFFF00000000000000000000
FFFFFFC007FFFFFF80000000000000000000
FFFFFFC007FFFFFFE0000000000000000000
FFFFFFC007FFFFFFFFFFFFFFFFFFFFFC0000
FFFFFFC007FFFFFFFFFFFFFFFFFFFFFF8000
FFFFFFC003FFFFFFFFFFFFFFFFFFFFFFC000
FFFFFFC003FFFFFFFFFFFFFFFFFFFFFFF000
FFFFFFC003FFFFFFFFFFFFFFFFFFFFFFF800
FFFFFFC001FFFFFFFFFFFFFFFFFFFFFFF800
FFFFFFC001FFFFFFFFFFFFFFFFFFFFFFFC00
FFFFFFC000FFFFFFFFFFFFFFFFFFFFFFFE00
FFFFFFC000FFFFFFFFFFFFFFFFFFFFFFFE00
FFFFFFC0007FFFFFFFFFFFFFFFFFFFFFFE00
FFFFFFC0003FFFFFFFFFFFFFFFFFFFFFFE00
FFFFFFC0003FFFFFFFFFFFFFFFFFFFFFFF00
FFFFFFC0001FFFFFFFFFFFFFFFFFFFFFFF00
FFFFFFC0000FFFFFFFFFFFFFFFFFFFFFFF00
FFFFFFC00007FFFFFFFFFFFFFFFFFFFFFF00
FFFFFFC00003FFFFFFFFFFFFFFFFFFFFFE00
FFFFFFC00001FFFFFFFFFFFFFFFFFFFFFE00
FFFFFFC00000FFFFFFFFFFFFFFFFFFFFFE00
FFFFFF8000007FFFFFFFFFFFFFFFFFFFFC00
7FFFFF8000003FFFFFFFFFFFFFFFFFFFFC00
7FFFFF8000001FFFFFFFFFFFFFFFFFFFF800
3FFFFF00000007FFFFFFFFFFFFFFFFFFF000
3FFFFF00000001FFFFFFFFFFFFFFFFFFF000
1FFFFE000000007FFFFFFFFFFFFFFFFFC000
0FFFFC000000000FFFFFFFFFFFFFFFFF8000
07FFF80000000000FFFFFFFFFFFFFFFC0000
01FFE0000000000000000000000000000000
007F80000000000000000000000000000000
ENDCHAR
STARTCHAR 0053
ENCODING 83
SWIDTH 888 0
DWIDTH 160 0
BBX 140 134 0 0
BITMAP
0000000FFFFFFFFFFFFFFFFFFFFFFFFFE000
000000FFFFFFFFFFFFFFFFFFFFFFFFFFFC00
000007FFFFFFFFFFFFFFFFFFFFFFFFFFFE00
00001FFFFFFFFFFFFFFFFFFFFFFFFFFFFF00
00007FFFFFFFFFFFFFFFFFFFFFFFFFFFFF80
0000FFFFFFFFFFFFFFFFFFFFFFFFFFFFFFC0
0003FFFFFFFFFFFFFFFFFFFFFFFFFFFFFFE0
0007FFFFFFFFFFFFFFFFFFFFFFFFFFFFFFE0
000FFFFFFFFFFFFFFFFFFFFFFFFFFFFFFFF0
001FFFFFFFFFFFFFFFFFFFFFFFFFFFFFFFF0
003FFFFFFFFFFFFFFFFFFFFFFFFFFFFFFFF0
007FFFFFFFFFFFFFFFFFFFFFFFFFFFFFFFF0
00FFFFFFFFFFFFFFFFFFFFFFFFFFFFFFFFF0
01FFFFFFFFFFFFFFFFFFFFFFFFFFFFFFFFF0
03FFFFFFFFFFFFFFFFFFFFFFFFFFFFFFFFF0
03FFFFFFFFFFFFFFFFFFFFFFFFFFFFFFFFF0
07FFFFFFFFFFFFFFFFFFFFFFFFFFFFFFFFF0
07FFFFFFFFFFFFFFFFFFFFFFFFFFFFFFFFE0
0FFFFFFFFFFFFFFFFFFFFFFFFFFFFFFFFFE0
1FFFFFFFFFFFFFFFFFFFFFFFFFFFFFFFFFC0
1FFFFFFFFFFFFFFFFFFFFFFFFFFFFFFFFF80
1FFFFFFFFFFFFFFFFFFFFFFFFFFFFFFFFF00
3FFFFFFFFFFFFFFFFFFFFFFFFFFFFFFFFE00
3FFFFFFFFFFFFFFFFFFFFFFFFFFFFFFFFC00
3FFFFFFFFFFFFFFFFFFFFFFFFFFFFFFFE000
7FFFFFFE0000000000000000000000000000
7FFFFFF80000000000000000000000000000
7FFFFFF00000000000000000000000000000
7FFFFFE00000000000000000000000000000
FFFFFFC00000000000000000000000000000
FFFFFFC00000000000000000000000000000
FFFFFF800000000000000000000000000000
FFFFFF800000000000000000000000000000
FFFFFF800000000000000000000000000000
FFFFFF800000000000000000000000000000
FFFFFF800000000000000000000000000000
FFFFFFC00000000000000000000000000000
FFFFFFC00000000000000000000000000000
FFFFFFE00000000000000000000000000000
7FFFFFE00000000000000000000000000000
7FFFFFF00000000000000000000000000000
7FFFFFFC0000000000000000000000000000
7FFFFFFF8000000000000000000000000000
7FFFFFFFF800000000000000000000000000
3FFFFFFFFF00000000000000000000000000
3FFFFFFFFFF0000000000000000000000000
3FFFFFFFFFFE000000000000000000000000
1FFFFFFFFFFFC00000000000000000000000
1FFFFFFFFFFFFC0000000000000000000000
0FFFFFFFFFFFFF8000000000000000000000
0FFFFFFFFFFFFFF800000000000000000000
07FFFFFFFFFFFFFF00000000000000000000
07FFFFFFFFFFFFFFF0000000000000000000
03FFFFFFFFFFFFFFFE000000000000000000
01FFFFFFFFFFFFFFFFC00000000000000000
01FFFFFFFFFFFFFFFFFC0000000000000000
00FFFFFFFFFFFFFFFFFF8000000000000000
007FFFFFFFFFFFFFFFFFF800000000000000
003FFFFFFFFFFFFFFFFFFF00000000000000
001FFFFFFFFFFFFFFFFFFFF0000000000000
000FFFFFFFFFFFFFFFFFFFFE000000000000
0007FFFFFFFFFFFFFFFFFFFFC00000000000
0001FFFFFFFFFFFFFFFFFFFFFC0000000000
0000FFFFFFFFFFFFFFFFFFFFFF8000000000
00003FFFFFFFFFFFFFFFFFFFFFF800000000
00000FFFFFFFFFFFFFFFFFFFFFFF00000000
000003FFFFFFFFFFFFFFFFFFFFFFE0000000
0000007FFFFFFFFFFFFFFFFFFFFFFC000000
0000000FFFFFFFFFFFFFFFFFFFFFFF000000
00000000FFFFFFFFFFFFFFFFFFFFFFC00000
000000001FFFFFFFFFFFFFFFFFFFFFF00000
0000000003FFFFFFFFFFFFFFFFFFFFF80000
00000000003FFFFFFFFFFFFFFFFFFFFE0000
000000000007FFFFFFFFFFFFFFFFFFFF0000
0000000000007FFFFFFFFFFFFFFFFFFF8000
0000000000000FFFFFFFFFFFFFFFFFFFC000
00000000000000FFFFFFFFFFFFFFFFFFE000
000000000000001FFFFFFFFFFFFFFFFFF000
0000000000000001FFFFFFFFFFFFFFFFF800
00000000000000003FFFFFFFFFFFFFFFF800
000000000000000007FFFFFFFFFFFFFFFC00
0000000000000000007FFFFFFFFFFFFFFE00
0000000000000000000FFFFFFFFFFFFFFE00
00000000000000000000FFFFFFFFFFFFFF00
000000000000000000001FFFFFFFFFFFFF80
0000000000000000000001FFFFFFFFFFFF80
00000000000000000000003FFFFFFFFFFFC0
000000000000000000000007FFFFFFFFFFC0
0000000000000000000000007FFFFFFFFFC0
0000000000000000000000000FFFFFFFFFE0
00000000000000000000000000FFFFFFFFE0
000000000000000000000000001FFFFFFFE0
0000000000000000000000000003FFFFFFE0
0000000000000000000000000000FFFFFFF0
00000000000000000000000000007FFFFFF0
00000000000000000000000000003FFFFFF0
00000000000000000000000000003FFFFFF0
00000000000000000000000000001FFFFFF0
00000000000000000000000000001FFFFFF0
00000000000000000000000000001FFFFFF0
00000000000000000000000000001FFFFFF0
00000000000000000000000000001FFFFFF0
00000000000000000000000000001FFFFFF0
00000000000000000000000000001FFFFFF0
00000000000000000000000000003FFFFFF0
00000000000000000000000000007FFFFFF0
00000000000000000000000000007FFFFFF0
0000000000000000000000000001FFFFFFE0
0000000000000000000000000007FFFFFFE0
003FFFFFFFFFFFFFFFFFFFFFFFFFFFFFFFE0
01FFFFFFFFFFFFFFFFFFFFFFFFFFFFFFFFE0
07FFFFFFFFFFFFFFFFFFFFFFFFFFFFFFFFC0
0FFFFFFFFFFFFFFFFFFFFFFFFFFFFFFFFFC0
1FFFFFFFFFFFFFFFFFFFFFFFFFFFFFFFFF80
3FFFFFFFFFFFFFFFFFFFFFFFFFFFFFFFFF80
3FFFFFFFFFFFFFFFFFFFFFFFFFFFFFFFFF80
7FFFFFFFFFFFFFFFFFFFFFFFFFFFFFFFFF00
7FFFFFFFFFFFFFFFFFFFFFFFFFFFFFFFFE00
7FFFFFFFFFFFFFFFFFFFFFFFFFFFFFFFFE00
FFFFFFFFFFFFFFFFFFFFFFFFFFFFFFFFFC00
FFFFFFFFFFFFFFFFFFFFFFFFFFFFFFFFF800
FFFFFFFFFFFFFFFFFFFFFFFFFFFFFFFFF800
FFFFFFFFFFFFFFFFFFFFFFFFFFFFFFFFF000
FFFFFFFFFFFFFFFFFFFFFFFFFFFFFFFFE000
7FFFFFFFFFFFFFFFFFFFFFFFFFFFFFFFC000
7FFFFFFFFFFFFFFFFFFFFFFFFFFFFFFF8000
7FFFFFFFFFFFFFFFFFFFFFFFFFFFFFFF0000
3FFFFFFFFFFFFFFFFFFFFFFFFFFFFFFC0000
3FFFFFFFFFFFFFFFFFFFFFFFFFFFFFF80000
1FFFFFFFFFFFFFFFFFFFFFFFFFFFFFE00000
0FFFFFFFFFFFFFFFFFFFFFFFFFFFFF800000
07FFFFFFFFFFFFFFFFFFFFFFFFFFFE000000
01FFFFFFFFFFFFFFFFFFFFFFFFFFF8000000
007FFFFFFFFFFFFFFFFFFFFFFFFF00000000
ENDCHAR
STARTCHAR 0054
ENCODING 84
SWIDTH 883 0
DWIDTH 159 0
BBX 145 136 0 -2
BITMAP
003FFFFFFFFFFFFFFFFFFFFFFFFFFFFFFE0000
01FFFFFFFFFFFFFFFFFFFFFFFFFFFFFFFFC000
03FFFFFFFFFFFFFFFFFFFFFFFFFFFFFFFFE000
0FFFFFFFFFFFFFFFFFFFFFFFFFFFFFFFFFF000
1FFFFFFFFFFFFFFFFFFFFFFFFFFFFFFFFFF800
1FFFFFFFFFFFFFFFFFFFFFFFFFFFFFFFFFFC00
3FFFFFFFFFFFFFFFFFFFFFFFFFFFFFFFFFFE00
7FFFFFFFFFFFFFFFFFFFFFFFFFFFFFFFFFFE00
7FFFFFFFFFFFFFFFFFFFFFFFFFFFFFFFFFFF00
7FFFFFFFFFFFFFFFFFFFFFFFFFFFFFFFFFFF00
FFFFFFFFFFFFFFFFFFFFFFFFFFFFFFFFFFFF00
FFFFFFFFFFFFFFFFFFFFFFFFFFFFFFFFFFFF80
FFFFFFFFFFFFFFFFFFFFFFFFFFFFFFFFFFFF80
FFFFFFFFFFFFFFFFFFFFFFFFFFFFFFFFFFFF80
FFFFFFFFFFFFFFFFFFFFFFFFFFFFFFFFFFFF80
FFFFFFFFFFFFFFFFFFFFFFFFFFFFFFFFFFFF80
FFFFFFFFFFFFFFFFFFFFFFFFFFFFFFFFFFFF00
7FFFFFFFFFFFFFFFFFFFFFFFFFFFFFFFFFFF00
7FFFFFFFFFFFFFFFFFFFFFFFFFFFFFFFFFFF00
7FFFFFFFFFFFFFFFFFFFFFFFFFFFFFFFFFFE00
3FFFFFFFFFFFFFFFFFFFFFFFFFFFFFFFFFFE00
3FFFFFFFFFFFFFFFFFFFFFFFFFFFFFFFFFFC00
1FFFFFFFFFFFFFFFFFFFFFFFFFFFFFFFFFF800
0FFFFFFFFFFFFFFFFFFFFFFFFFFFFFFFFFF000
07FFFFFFFFFFFFFFFFFFFFFFFFFFFFFFFFE000
01FFFFFFFFFFFFFFFFFFFFFFFFFFFFFFFFC000
007FFFFFFFFFFFFFFFFFFFFFFFFFFFFFFE0000
000000000000001FFFFFFC0000000000000000
000000000000001FFFFFFC0000000000000000
000000000000001FFFFFFC0000000000000000
000000000000001FFFFFFC0000000000000000
000000000000001FFFFFFC0000000000000000
000000000000001FFFFFFC0000000000000000
000000000000001FFFFFFC0000000000000000
000000000000001FFFFFFC0000000000000000
000000000000001FFFFFFC0000000000000000
000000000000001FFFFFFC0000000000000000
000000000000001FFFFFFC0000000000000000
000000000000001FFFFFFC0000000000000000
000000000000001FFFFFFC0000000000000000
000000000000001FFFFFFC0000000000000000
000000000000001FFFFFFC0000000000000000
000000000000001FFFFFFC0000000000000000
000000000000001FFFFFFC0000000000000000
000000000000001FFFFFFC0000000000000000
000000000000001FFFFFFC0000000000000000
000000000000001FFFFFFC0000000000000000
000000000000001FFFFFFC0000000000000000
000000000000001FFFFFFC0000000000000000
000000000000001FFFFFFC0000000000000000
000000000000001FFFFFFC0000000000000000
000000000000001FFFFFFC0000000000000000
000000000000001FFFFFFC0000000000000000
000000000000001FFFFFFC0000000000000000
000000000000001FFFFFFC0000000000000000
000000000000001FFFFFFC0000000000000000
000000000000001FFFFFFC0000000000000000
000000000000001FFFFFFC0000000000000000
000000000000001FFFFFFC0000000000000000
000000000000001FFFFFFC0000000000000000
000000000000001FFFFFFC0000000000000000
000000000000001FFFFFFC0000000000000000
000000000000001FFFFFFC0000000000000000
000000000000001FFFFFFC0000000000000000
000000000000001FFFFFFC0000000000000000
000000000000001FFFFFFC0000000000000000
000000000000001FFFFFFC0000000000000000
000000000000001FFFFFFC0000000000000000
000000000000001FFFFFFC0000000000000000
000000000000001FFFFFFC0000000000000000
000000000000001FFFFFFC0000000000000000
000000000000001FFFFFFC0000000000000000
000000000000001FFFFFFC0000000000000000
000000000000001FFFFFFC0000000000000000
000000000000001FFFFFFC0000000000000000
000000000000001FFFFFFC0000000000000000
000000000000001FFFFFFC0000000000000000
000000000000001FFFFFFC0000000000000000
000000000000001FFFFFFC0000000000000000
000000000000001FFFFFFC0000000000000000
000000000000001FFFFFFC0000000000000000
000000000000001FFFFFFC0000000000000000
000000000000001FFFFFFC0000000000000000
000000000000001FFFFFFC0000000000000000
000000000000001FFFFFFC0000000000000000
000000000000001FFFFFFC0000000000000000
000000000000001FFFFFFC0000000000000000
000000000000001FFFFFFC0000000000000000
000000000000001FFFFFFC0000000000000000
000000000000001FFFFFFC0000000000000000
000000000000001FFFFFFC0000000000000000
000000000000001FFFFFFC0000000000000000
000000000000001FFFFFFC0000000000000000
000000000000001FFFFFFC0000000000000000
000000000000001FFFFFFC0000000000000000
000000000000001FFFFFFC0000000000000000
000000000000001FFFFFFC0000000000000000
000000000000001FFFFFFC0000000000000000
000000000000001FFFFFFC0000000000000000
000000000000001FFFFFFC0000000000000000
000000000000001FFFFFFC0000000000000000
000000000000001FFFFFFC0000000000000000
000000000000001FFFFFFC0000000000000000
000000000000001FFFFFFC0000000000000000
000000000000001FFFFFFC0000000000000000
000000000000001FFFFFFC0000000000000000
000000000000001FFFFFFC0000000000000000
000000000000001FFFFFFC0000000000000000
000000000000001FFFFFFC0000000000000000
000000000000001FFFFFFC0000000000000000
000000000000001FFFFFFC0000000000000000
000000000000001FFFFFFC0000000000000000
000000000000001FFFFFFC0000000000000000
000000000000001FFFFFFC0000000000000000
000000000000001FFFFFFC0000000000000000
000000000000001FFFFFFC0000000000000000
000000000000001FFFFFFC0000000000000000
000000000000001FFFFFFC0000000000000000
000000000000001FFFFFFC0000000000000000
000000000000001FFFFFFC0000000000000000
000000000000001FFFFFFC0000000000000000
000000000000001FFFFFFC0000000000000000
000000000000001FFFFFFC0000000000000000
000000000000001FFFFFFC0000000000000000
000000000000001FFFFFFC0000000000000000
000000000000001FFFFFFC0000000000000000
000000000000001FFFFFF80000000000000000
000000000000000FFFFFF80000000000000000
000000000000000FFFFFF80000000000000000
0000000000000007FFFFF00000000000000000
0000000000000007FFFFE00000000000000000
0000000000000003FFFFC00000000000000000
0000000000000001FFFF800000000000000000
0000000000000000FFFF000000000000000000
00000000000000003FFE000000000000000000
000000000000000007F0000000000000000000
ENDCHAR
STARTCHAR 0055
ENCODING 85
SWIDTH 888 0
DWIDTH 160 0
BBX 143 136 0 0
BITMAP
003F8000000000000000000000000003F800
01FFF00000000000000000000000001FFF00
03FFFC0000000000000000000000003FFFC0
07FFFE0000000000000000000000007FFFE0
0FFFFF000000000000000000000000FFFFF0
1FFFFF800000000000000000000001FFFFF8
3FFFFF800000000000000000000003FFFFF8
7FFFFFC00000000000000000000007FFFFFC
7FFFFFC00000000000000000000007FFFFFC
7FFFFFE00000000000000000000007FFFFFE
FFFFFFE0000000000000000000000FFFFFFE
FFFFFFE0000000000000000000000FFFFFFE
FFFFFFE0000000000000000000000FFFFFFE
FFFFFFE0000000000000000000000FFFFFFE
FFFFFFE0000000000000000000000FFFFFFE
FFFFFFE0000000000000000000000FFFFFFE
FFFFFFE0000000000000000000000FFFFFFE
FFFFFFE0000000000000000000000FFFFFFE
FFFFFFE0000000000000000000000FFFFFFE
FFFFFFE0000000000000000000000FFFFFFE
FFFFFFE0000000000000000000000FFFFFFE
FFFFFFE0000000000000000000000FFFFFFE
FFFFFFE0000000000000000000000FFFFFFE
FFFFFFE0000000000000000000000FFFFFFE
FFFFFFE0000000000000000000000FFFFFFE
FFFFFFE0000000000000000000000FFFFFFE
FFFFFFE0000000000000000000000FFFFFFE
FFFFFFE0000000000000000000000FFFFFFE
FFFFFFE0000000000000000000000FFFFFFE
FFFFFFE0000000000000000000000FFFFFFE
FFFFFFE0000000000000000000000FFFFFFE
FFFFFFE0000000000000000000000FFFFFFE
FFFFFFE0000000000000000000000FFFFFFE
FFFFFFE0000000000000000000000FFFFFFE
FFFFFFE0000000000000000000000FFFFFFE
FFFFFFE0000000000000000000000FFFFFFE
FFFFFFE0000000000000000000000FFFFFFE
FFFFFFE0000000000000000000000FFFFFFE
FFFFFFE0000000000000000000000FFFFFFE
FFFFFFE0000000000000000000000FFFFFFE
FFFFFFE0000000000000000000000FFFFFFE
FFFFFFE0000000000000000000000FFFFFFE
FFFFFFE0000000000000000000000FFFFFFE
FFFFFFE0000000000000000000000FFFFFFE
FFFFFFE0000000000000000000000FFFFFFE
FFFFFFE0000000000000000000000FFFFFFE
FFFFFFE0000000000000000000000FFFFFFE
FFFFFFE0000000000000000000000FFFFFFE
FFFFFFE0000000000000000000000FFFFFFE
FFFFFFE0000000000000000000000FFFFFFE
FFFFFFE0000000000000000000000FFFFFFE
FFFFFFE0000000000000000000000FFFFFFE
FFFFFFE0000000000000000000000FFFFFFE
FFFFFFE0000000000000000000000FFFFFFE
FFFFFFE0000000000000000000000FFFFFFE
FFFFFFE0000000000000000000000FFFFFFE
FFFFFFE0000000000000000000000FFFFFFE
FFFFFFE0000000000000000000000FFFFFFE
FFFFFFE0000000000000000000000FFFFFFE
FFFFFFE0000000000000000000000FFFFFFE
FFFFFFE0000000000000000000000FFFFFFE
FFFFFFE0000000000000000000000FFFFFFE
FFFFFFE0000000000000000000000FFFFFFE
FFFFFFE0000000000000000000000FFFFFFE
FFFFFFE0000000000000000000000FFFFFFE
FFFFFFE0000000000000000000000FFFFFFE
FFFFFFE0000000000000000000000FFFFFFE
FFFFFFE0000000000000000000000FFFFFFE
FFFFFFE0000000000000000000000FFFFFFE
FFFFFFE0000000000000000000000FFFFFFE
FFFFFFE0000000000000000000000FFFFFFE
FFFFFFE0000000000000000000000FFFFFFE
FFFFFFE0000000000000000000000FFFFFFE
FFFFFFE0000000000000000000000FFFFFFE
FFFFFFE0000000000000000000000FFFFFFE
FFFFFFE0000000000000000000000FFFFFFE
FFFFFFE0000000000000000000000FFFFFFE
FFFFFFE0000000000000000000000FFFFFFE
FFFFFFE0000000000000000000000FFFFFFE
FFFFFFE0000000000000000000000FFFFFFE
FFFFFFE0000000000000000000000FFFFFFE
FFFFFFE0000000000000000000000FFFFFFE
FFFFFFE0000000000000000000000FFFFFFE
FFFFFFE0000000000000000000000FFFFFFE
FFFFFFE0000000000000000000000FFFFFFE
FFFFFFE0000000000000000000000FFFFFFE
FFFFFFE0000000000000000000000FFFFFFE
FFFFFFE0000000000000000000000FFFFFFE
FFFFFFE0000000000000000000000FFFFFFE
FFFFFFE0000000000000000000000FFFFFFE
FFFFFFE0000000000000000000000FFFFFFE
FFFFFFE0000000000000000000000FFFFFFE
FFFFFFE0000000000000000000000FFFFFFE
FFFFFFE0000000000000000000000FFFFFFE
FFFFFFE0000000000000000000000FFFFFFE
FFFFFFE0000000000000000000000FFFFFFE
FFFFFFF0000000000000000000000FFFFFFE
FFFFFFF0000000000000000000000FFFFFFE
FFFFFFF0000000000000000000001FFFFFFE
7FFFFFF0000000000000000000001FFFFFFE
7FFFFFF8000000000000000000003FFFFFFE
7FFFFFF8000000000000000000003FFFFFFC
7FFFFFFC000000000000000000007FFFFFFC
7FFFFFFE00000000000000000000FFFFFFFC
7FFFFFFF00000000000000000001FFFFFFFC
3FFFFFFF80000000000000000003FFFFFFFC
3FFFFFFFC0000000000000000007FFFFFFF8
3FFFFFFFF000000000000000001FFFFFFFF8
1FFFFFFFFE0000000000000000FFFFFFFFF8
1FFFFFFFFFFFFFFFFFFFFFFFFFFFFFFFFFF0
0FFFFFFFFFFFFFFFFFFFFFFFFFFFFFFFFFF0
0FFFFFFFFFFFFFFFFFFFFFFFFFFFFFFFFFE0
0FFFFFFFFFFFFFFFFFFFFFFFFFFFFFFFFFE0
07FFFFFFFFFFFFFFFFFFFFFFFFFFFFFFFFC0
03FFFFFFFFFFFFFFFFFFFFFFFFFFFFFFFFC0
03FFFFFFFFFFFFFFFFFFFFFFFFFFFFFFFF80
01FFFFFFFFFFFFFFFFFFFFFFFFFFFFFFFF80
01FFFFFFFFFFFFFFFFFFFFFFFFFFFFFFFF00
00FFFFFFFFFFFFFFFFFFFFFFFFFFFFFFFE00
007FFFFFFFFFFFFFFFFFFFFFFFFFFFFFFC00
003FFFFFFFFFFFFFFFFFFFFFFFFFFFFFFC00
001FFFFFFFFFFFFFFFFFFFFFFFFFFFFFF800
000FFFFFFFFFFFFFFFFFFFFFFFFFFFFFF000
0007FFFFFFFFFFFFFFFFFFFFFFFFFFFFE000
0003FFFFFFFFFFFFFFFFFFFFFFFFFFFFC000
0001FFFFFFFFFFFFFFFFFFFFFFFFFFFF8000
0000FFFFFFFFFFFFFFFFFFFFFFFFFFFF0000
00007FFFFFFFFFFFFFFFFFFFFFFFFFFC0000
00003FFFFFFFFFFFFFFFFFFFFFFFFFF80000
00000FFFFFFFFFFFFFFFFFFFFFFFFFE00000
000007FFFFFFFFFFFFFFFFFFFFFFFFC00000
000001FFFFFFFFFFFFFFFFFFFFFFFF000000
0000007FFFFFFFFFFFFFFFFFFFFFFC000000
0000000FFFFFFFFFFFFFFFFFFFFFE0000000
00000001FFFFFFFFFFFFFFFFFFFF00000000
000000000FFFFFFFFFFFFFFFFFF000000000
ENDCHAR
STARTCHAR 0056
ENCODING 86
SWIDTH 888 0
DWIDTH 160 0
BBX 154 136 0 0
BITMAP
003F800000000000000000000000000000FF0000
01FFF00000000000000000000000000003FFC000
03FFF8000000000000000000000000000FFFF000
0FFFFC000000000000000000000000001FFFF800
1FFFFE000000000000000000000000003FFFFC00
1FFFFF000000000000000000000000007FFFFE00
3FFFFF800000000000000000000000007FFFFF00
7FFFFF80000000000000000000000000FFFFFF00
7FFFFFC0000000000000000000000000FFFFFF80
7FFFFFC0000000000000000000000001FFFFFF80
FFFFFFC0000000000000000000000001FFFFFF80
FFFFFFE0000000000000000000000001FFFFFF80
FFFFFFE0000000000000000000000001FFFFFFC0
FFFFFFE0000000000000000000000003FFFFFFC0
FFFFFFE0000000000000000000000003FFFFFF80
FFFFFFF0000000000000000000000003FFFFFF80
FFFFFFF0000000000000000000000003FFFFFF80
7FFFFFF0000000000000000000000003FFFFFF80
7FFFFFF0000000000000000000000007FFFFFF80
7FFFFFF8000000000000000000000007FFFFFF00
7FFFFFF8000000000000000000000007FFFFFF00
3FFFFFF8000000000000000000000007FFFFFF00
3FFFFFF800000000000000000000000FFFFFFF00
3FFFFFF800000000000000000000000FFFFFFF00
3FFFFFFC00000000000000000000000FFFFFFE00
3FFFFFFC00000000000000000000000FFFFFFE00
1FFFFFFC00000000000000000000001FFFFFFE00
1FFFFFFC00000000000000000000001FFFFFFE00
1FFFFFFE00000000000000000000001FFFFFFC00
1FFFFFFE00000000000000000000001FFFFFFC00
0FFFFFFE00000000000000000000001FFFFFFC00
0FFFFFFE00000000000000000000003FFFFFFC00
0FFFFFFE00000000000000000000003FFFFFFC00
0FFFFFFF00000000000000000000003FFFFFF800
0FFFFFFF00000000000000000000003FFFFFF800
07FFFFFF00000000000000000000007FFFFFF800
07FFFFFF00000000000000000000007FFFFFF800
07FFFFFF80000000000000000000007FFFFFF000
07FFFFFF80000000000000000000007FFFFFF000
03FFFFFF80000000000000000000007FFFFFF000
03FFFFFF8000000000000000000000FFFFFFF000
03FFFFFF8000000000000000000000FFFFFFF000
03FFFFFFC000000000000000000000FFFFFFE000
03FFFFFFC000000000000000000000FFFFFFE000
01FFFFFFC000000000000000000001FFFFFFE000
01FFFFFFC000000000000000000001FFFFFFE000
01FFFFFFE000000000000000000001FFFFFFC000
01FFFFFFE000000000000000000001FFFFFFC000
00FFFFFFE000000000000000000001FFFFFFC000
00FFFFFFE000000000000000000003FFFFFFC000
00FFFFFFE000000000000000000003FFFFFFC000
00FFFFFFF000000000000000000003FFFFFF8000
00FFFFFFF000000000000000000003FFFFFF8000
007FFFFFF000000000000000000007FFFFFF8000
007FFFFFF000000000000000000007FFFFFF8000
007FFFFFF800000000000000000007FFFFFF0000
007FFFFFF800000000000000000007FFFFFF0000
003FFFFFF800000000000000000007FFFFFF0000
003FFFFFF80000000000000000000FFFFFFF0000
003FFFFFF80000000000000000000FFFFFFF0000
003FFFFFFC0000000000000000000FFFFFFE0000
003FFFFFFC0000000000000000000FFFFFFE0000
001FFFFFFC0000000000000000001FFFFFFE0000
001FFFFFFC0000000000000000001FFFFFFE0000
001FFFFFFE0000000000000000001FFFFFFC0000
001FFFFFFE0000000000000000001FFFFFFC0000
000FFFFFFE0000000000000000001FFFFFFC0000
000FFFFFFE0000000000000000003FFFFFFC0000
000FFFFFFE0000000000000000003FFFFFFC0000
000FFFFFFF0000000000000000003FFFFFF80000
000FFFFFFF0000000000000000003FFFFFF80000
0007FFFFFF0000000000000000007FFFFFF80000
0007FFFFFF0000000000000000007FFFFFF80000
0007FFFFFF8000000000000000007FFFFFF00000
0007FFFFFF8000000000000000007FFFFFF00000
0003FFFFFF8000000000000000007FFFFFF00000
0003FFFFFF800000000000000000FFFFFFF00000
0003FFFFFF800000000000000000FFFFFFF00000
0003FFFFFFC00000000000000000FFFFFFE00000
0003FFFFFFC00000000000000000FFFFFFE00000
0001FFFFFFC00000000000000001FFFFFFE00000
0001FFFFFFC00000000000000001FFFFFFE00000
0001FFFFFFE00000000000000001FFFFFFC00000
0001FFFFFFE00000000000000001FFFFFFC00000
0000FFFFFFE00000000000000001FFFFFFC00000
0000FFFFFFE00000000000000003FFFFFFC00000
0000FFFFFFE00000000000000003FFFFFFC00000
0000FFFFFFF00000000000000003FFFFFF800000
0000FFFFFFF00000000000000003FFFFFF800000
00007FFFFFF00000000000000007FFFFFF800000
00007FFFFFF00000000000000007FFFFFF800000
00007FFFFFF80000000000000007FFFFFF000000
00007FFFFFF80000000000000007FFFFFF000000
00003FFFFFF80000000000000007FFFFFF000000
00003FFFFFF8000000000000000FFFFFFF000000
00003FFFFFFC000000000000000FFFFFFE000000
00003FFFFFFC000000000000000FFFFFFE000000
00003FFFFFFC000000000000000FFFFFFE000000
00001FFFFFFC000000000000001FFFFFFE000000
00001FFFFFFE000000000000001FFFFFFE000000
00001FFFFFFE000000000000003FFFFFFC000000
00001FFFFFFF000000000000003FFFFFFC000000
00000FFFFFFF000000000000007FFFFFFC000000
00000FFFFFFF80000000000000FFFFFFFC000000
00000FFFFFFFC0000000000001FFFFFFF8000000
00000FFFFFFFE0000000000003FFFFFFF8000000
000007FFFFFFF0000000000007FFFFFFF8000000
000007FFFFFFFC00000000001FFFFFFFF8000000
000007FFFFFFFF8000000000FFFFFFFFF0000000
000003FFFFFFFFFFFFFFFFFFFFFFFFFFF0000000
000003FFFFFFFFFFFFFFFFFFFFFFFFFFE0000000
000001FFFFFFFFFFFFFFFFFFFFFFFFFFE0000000
000001FFFFFFFFFFFFFFFFFFFFFFFFFFC0000000
000000FFFFFFFFFFFFFFFFFFFFFFFFFFC0000000
000000FFFFFFFFFFFFFFFFFFFFFFFFFF80000000
0000007FFFFFFFFFFFFFFFFFFFFFFFFF80000000
0000007FFFFFFFFFFFFFFFFFFFFFFFFF00000000
0000003FFFFFFFFFFFFFFFFFFFFFFFFE00000000
0000001FFFFFFFFFFFFFFFFFFFFFFFFE00000000
0000001FFFFFFFFFFFFFFFFFFFFFFFFC00000000
0000000FFFFFFFFFFFFFFFFFFFFFFFF800000000
00000007FFFFFFFFFFFFFFFFFFFFFFF000000000
00000003FFFFFFFFFFFFFFFFFFFFFFE000000000
00000001FFFFFFFFFFFFFFFFFFFFFFC000000000
00000000FFFFFFFFFFFFFFFFFFFFFF8000000000
000000007FFFFFFFFFFFFFFFFFFFFF0000000000
000000003FFFFFFFFFFFFFFFFFFFFE0000000000
000000000FFFFFFFFFFFFFFFFFFFFC0000000000
0000000007FFFFFFFFFFFFFFFFFFF00000000000
0000000001FFFFFFFFFFFFFFFFFFE00000000000
0000000000FFFFFFFFFFFFFFFFFF800000000000
00000000003FFFFFFFFFFFFFFFFF000000000000
00000000000FFFFFFFFFFFFFFFF8000000000000
000000000003FFFFFFFFFFFFFFE0000000000000
0000000000003FFFFFFFFFFFFF00000000000000
00000000000003FFFFFFFFFFE000000000000000
ENDCHAR
STARTCHAR 0057
ENCODING 87
SWIDTH 1144 0
DWIDTH 206 0
BBX 196 136 0 0
BITMAP
003F8000000000000000007F000000000000000000001FC000
01FFF00000000000000003FFC0000000000000000000FFF800
07FFF8000000000000000FFFF0000000000000000001FFFC00
0FFFFC000000000000001FFFF8000000000000000003FFFE00
1FFFFE000000000000003FFFFC000000000000000007FFFF00
3FFFFF000000000000007FFFFE00000000000000000FFFFF80
3FFFFF800000000000007FFFFF00000000000000001FFFFFC0
7FFFFFC0000000000000FFFFFF00000000000000003FFFFFC0
7FFFFFC0000000000000FFFFFF80000000000000003FFFFFE0
FFFFFFC0000000000001FFFFFF80000000000000003FFFFFE0
FFFFFFE0000000000001FFFFFFC0000000000000007FFFFFF0
FFFFFFE0000000000001FFFFFFC0000000000000007FFFFFF0
FFFFFFE0000000000001FFFFFFC0000000000000007FFFFFF0
FFFFFFE0000000000001FFFFFFC0000000000000007FFFFFF0
FFFFFFE0000000000001FFFFFFC0000000000000007FFFFFF0
FFFFFFE0000000000001FFFFFFC000000000000000FFFFFFF0
FFFFFFE0000000000001FFFFFFC000000000000000FFFFFFE0
FFFFFFE0000000000001FFFFFFC000000000000000FFFFFFE0
FFFFFFE0000000000001FFFFFFC000000000000000FFFFFFE0
FFFFFFE0000000000001FFFFFFC000000000000001FFFFFFE0
FFFFFFE0000000000001FFFFFFC000000000000001FFFFFFE0
FFFFFFE0000000000001FFFFFFC000000000000001FFFFFFC0
FFFFFFE0000000000001FFFFFFC000000000000001FFFFFFC0
FFFFFFE0000000000001FFFFFFC000000000000001FFFFFFC0
FFFFFFE0000000000001FFFFFFC000000000000003FFFFFFC0
FFFFFFE0000000000001FFFFFFC000000000000003FFFFFF80
FFFFFFE0000000000001FFFFFFC000000000000003FFFFFF80
FFFFFFE0000000000001FFFFFFC000000000000003FFFFFF80
FFFFFFE0000000000001FFFFFFC000000000000007FFFFFF80
FFFFFFE0000000000001FFFFFFC000000000000007FFFFFF80
FFFFFFE0000000000001FFFFFFC000000000000007FFFFFF00
FFFFFFE0000000000001FFFFFFC000000000000007FFFFFF00
FFFFFFE0000000000001FFFFFFC000000000000007FFFFFF00
FFFFFFE0000000000001FFFFFFC00000000000000FFFFFFF00
FFFFFFE0000000000001FFFFFFC00000000000000FFFFFFE00
FFFFFFE0000000000001FFFFFFC00000000000000FFFFFFE00
FFFFFFE0000000000001FFFFFFC00000000000000FFFFFFE00
FFFFFFE0000000000001FFFFFFC00000000000001FFFFFFE00
FFFFFFE0000000000001FFFFFFC00000000000001FFFFFFE00
FFFFFFE0000000000001FFFFFFC00000000000001FFFFFFC00
FFFFFFE0000000000001FFFFFFC00000000000001FFFFFFC00
FFFFFFE0000000000001FFFFFFC00000000000001FFFFFFC00
FFFFFFE0000000000001FFFFFFC00000000000003FFFFFFC00
FFFFFFE0000000000001FFFFFFC00000000000003FFFFFF800
FFFFFFE0000000000001FFFFFFC00000000000003FFFFFF800
FFFFFFE0000000000001FFFFFFC00000000000003FFFFFF800
FFFFFFE0000000000001FFFFFFC00000000000007FFFFFF800
FFFFFFE0000000000001FFFFFFC00000000000007FFFFFF800
FFFFFFE0000000000001FFFFFFC00000000000007FFFFFF000
FFFFFFE0000000000001FFFFFFC00000000000007FFFFFF000
FFFFFFE0000000000001FFFFFFC00000000000007FFFFFF000
FFFFFFE0000000000001FFFFFFC0000000000000FFFFFFF000
FFFFFFE0000000000001FFFFFFC0000000000000FFFFFFE000
FFFFFFE0000000000001FFFFFFC0000000000000FFFFFFE000
FFFFFFE0000000000001FFFFFFC0000000000000FFFFFFE000
FFFFFFE0000000000001FFFFFFC0000000000001FFFFFFE000
FFFFFFE0000000000001FFFFFFC0000000000001FFFFFFE000
FFFFFFE0000000000001FFFFFFC0000000000001FFFFFFC000
FFFFFFE0000000000001FFFFFFC0000000000001FFFFFFC000
FFFFFFE0000000000001FFFFFFC0000000000001FFFFFFC000
FFFFFFE0000000000001FFFFFFC0000000000003FFFFFFC000
FFFFFFE0000000000001FFFFFFC0000000000003FFFFFF8000
FFFFFFE0000000000001FFFFFFC0000000000003FFFFFF8000
FFFFFFE0000000000001FFFFFFC0000000000003FFFFFF8000
FFFFFFE0000000000001FFFFFFC0000000000007FFFFFF8000
FFFFFFE0000000000001FFFFFFC0000000000007FFFFFF8000
FFFFFFE0000000000001FFFFFFC0000000000007FFFFFF0000
FFFFFFE0000000000001FFFFFFC0000000000007FFFFFF0000
FFFFFFE0000000000001FFFFFFC0000000000007FFFFFF0000
FFFFFFE0000000000001FFFFFFC000000000000FFFFFFF0000
FFFFFFE0000000000001FFFFFFC000000000000FFFFFFE0000
FFFFFFE0000000000001FFFFFFC000000000000FFFFFFE0000
FFFFFFE0000000000001FFFFFFC000000000000FFFFFFE0000
FFFFFFE0000000000001FFFFFFC000000000001FFFFFFE0000
FFFFFFE0000000000001FFFFFFC000000000001FFFFFFE0000
FFFFFFE0000000000001FFFFFFC000000000001FFFFFFC0000
FFFFFFE0000000000001FFFFFFC000000000001FFFFFFC0000
FFFFFFE0000000000001FFFFFFC000000000001FFFFFFC0000
FFFFFFE0000000000001FFFFFFC000000000003FFFFFFC0000
FFFFFFE0000000000001FFFFFFC000000000003FFFFFF80000
FFFFFFE0000000000001FFFFFFC000000000003FFFFFF80000
FFFFFFE0000000000001FFFFFFC000000000003FFFFFF80000
FFFFFFE0000000000001FFFFFFC000000000007FFFFFF80000
FFFFFFE0000000000001FFFFFFC000000000007FFFFFF80000
FFFFFFE0000000000001FFFFFFC000000000007FFFFFF00000
FFFFFFE0000000000001FFFFFFC000000000007FFFFFF00000
FFFFFFE0000000000001FFFFFFC000000000007FFFFFF00000
FFFFFFE0000000000001FFFFFFC00000000000FFFFFFF00000
FFFFFFE0000000000001FFFFFFC00000000000FFFFFFE00000
FFFFFFE0000000000001FFFFFFC00000000000FFFFFFE00000
FFFFFFE0000000000001FFFFFFC00000000000FFFFFFE00000
FFFFFFE0000000000001FFFFFFC00000000001FFFFFFE00000
FFFFFFE0000000000001FFFFFFC00000000001FFFFFFE00000
FFFFFFE0000000000001FFFFFFC00000000001FFFFFFC00000
FFFFFFE0000000000001FFFFFFC00000000001FFFFFFC00000
FFFFFFE0000000000001FFFFFFC00000000001FFFFFFC00000
FFFFFFE0000000000001FFFFFFC00000000003FFFFFFC00000
FFFFFFE0000000000001FFFFFFC00000000003FFFFFF800000
FFFFFFF0000000000001FFFFFFC00000000003FFFFFF800000
FFFFFFF0000000000001FFFFFFC00000000007FFFFFF800000
FFFFFFF0000000000001FFFFFFC00000000007FFFFFF800000
FFFFFFF8000000000001FFFFFFC0000000000FFFFFFF800000
7FFFFFFC000000000001FFFFFFC0000000000FFFFFFF000000
7FFFFFFC000000000001FFFFFFC0000000001FFFFFFF000000
7FFFFFFE000000000001FFFFFFC0000000003FFFFFFF000000
7FFFFFFF800000000001FFFFFFC0000000007FFFFFFE000000
3FFFFFFFC00000000001FFFFFFC000000000FFFFFFFE000000
3FFFFFFFF00000000001FFFFFFC000000003FFFFFFFE000000
3FFFFFFFFC0000000001FFFFFFC00000001FFFFFFFFC000000
1FFFFFFFFFFFFFFFFFFFFFFFFFFFFFFFFFFFFFFFFFFC000000
1FFFFFFFFFFFFFFFFFFFFFFFFFFFFFFFFFFFFFFFFFFC000000
0FFFFFFFFFFFFFFFFFFFFFFFFFFFFFFFFFFFFFFFFFF8000000
0FFFFFFFFFFFFFFFFFFFFFFFFFFFFFFFFFFFFFFFFFF8000000
07FFFFFFFFFFFFFFFFFFFFFFFFFFFFFFFFFFFFFFFFF0000000
07FFFFFFFFFFFFFFFFFFFFFFFFFFFFFFFFFFFFFFFFF0000000
03FFFFFFFFFFFFFFFFFFFFFFFFFFFFFFFFFFFFFFFFE0000000
03FFFFFFFFFFFFFFFFFFFFFFFFFFFFFFFFFFFFFFFFC0000000
01FFFFFFFFFFFFFFFFFFFFFFFFFFFFFFFFFFFFFFFFC0000000
00FFFFFFFFFFFFFFFFFFFFFFFFFFFFFFFFFFFFFFFF80000000
007FFFFFFFFFFFFFFFFFFFFFFFFFFFFFFFFFFFFFFF00000000
007FFFFFFFFFFFFFFFFFFFFFFFFFFFFFFFFFFFFFFF00000000
003FFFFFFFFFFFFFFFFFFFFFFFFFFFFFFFFFFFFFFE00000000
001FFFFFFFFFFFFFFFFFFFFFFFFFFFFFFFFFFFFFFC00000000
000FFFFFFFFFFFFFFFFFFFFFFFFFFFFFFFFFFFFFF800000000
0007FFFFFFFFFFFFFFFFFFFFFFFFFFFFFFFFFFFFF000000000
0003FFFFFFFFFFFFFFFFFFFFFFFFFFFFFFFFFFFFE000000000
0000FFFFFFFFFFFFFFFFFFFFFFFFFFFFFFFFFFFF8000000000
00007FFFFFFFFFFFFFFFFFFFFFFFFFFFFFFFFFFF0000000000
00003FFFFFFFFFFFFFFFFFFFFFFFFFFFFFFFFFFE0000000000
00000FFFFFFFFFFFFFFFFFFFFFFFFFFFFFFFFFF80000000000
000007FFFFFFFFFFFFFFFFFFFFFFFFFFFFFFFFF00000000000
000001FFFFFFFFFFFFFFFFFFFFFFFFFFFFFFFFC00000000000
0000007FFFFFFFFFFFFFFFFFFFFFFFFFFFFFFF000000000000
0000000FFFFFFFFFFFFFFFFFFFFFFFFFFFFFF8000000000000
00000001FFFFFFFFFFFFFFFFFFFFFFFFFFFFC0000000000000
000000000FFFFFFFFFFFFFFFFFFFFFFFFFF800000000000000
ENDCHAR
ENDFONT
